<svg width="118" height="200" viewBox="0 0 118 200" fill="none" xmlns="http://www.w3.org/2000/svg">
<path d="M68.5901 102.212C69.3966 100.102 71.7609 99.045 73.871 99.8515C75.9599 100.65 77.0164 102.975 76.2548 105.069L76.2311 105.132L44.2675 188.754C43.4609 190.864 41.0966 191.92 38.9866 191.114C36.8977 190.315 35.8411 187.99 36.6028 185.896L36.6264 185.833L68.5901 102.212Z" fill="#EBBAAA"/>
<path d="M46.9056 106.514C49.0789 105.987 51.2679 107.303 51.8282 109.459L51.8447 109.525L70.4776 186.329C71.0101 188.524 69.6623 190.736 67.467 191.268C65.2937 191.795 63.1047 190.48 62.5444 188.323L62.5279 188.258L43.8951 111.453C43.3625 109.258 44.7103 107.047 46.9056 106.514Z" fill="#EBBAAA"/>
<path d="M57.6304 197.912C58.1703 197.443 58.4272 196.828 58.3827 196.538C58.3383 196.248 41.0707 186.493 41.0707 186.493C38.1994 184.886 32.7695 180.676 31.6158 182.087C27.6831 186.896 31.3745 188.617 33.7343 189.717C36.9792 191.23 37.7646 190.55 39.7608 191.808C40.8015 192.464 42.077 193.965 49.5253 197.437C55.4992 200.221 56.4217 198.965 57.6304 197.912Z" fill="#DEDEDE"/>
<path d="M43.2309 180.467C40.2472 179.007 39.3098 177.521 39.0306 175.038L39.1968 174.682C37.8736 174.065 37.2564 175.861 36.2266 177.203C34.8535 178.992 34.6127 178.533 33.3061 180.179C32.4014 181.32 31.4419 183.217 31.6812 184.629C32.053 186.824 33.5657 187.33 36.0006 188.464C37.4024 189.119 39.9295 189.862 41.8033 191.43C44.4196 193.618 52.4531 197.869 54.8182 198.19C58.8485 198.738 59.2466 195.048 58.336 193.148C56.738 189.814 50.4919 187.66 50.0011 185.415C49.5997 183.58 50.7981 179.902 50.4281 178.762C49.7646 176.718 49.19 177.657 48.7842 179.151C48.2817 180.999 46.9605 182.293 43.2309 180.467Z" fill="#252424"/>
<mask id="mask0" mask-type="alpha" maskUnits="userSpaceOnUse" x="31" y="175" width="28" height="24">
<path fill-rule="evenodd" clip-rule="evenodd" d="M43.1672 180.649C40.186 179.187 40.0886 176.791 40.4124 175.774L38.8639 175.053C38.6132 175.205 37.8934 175.499 36.8398 176.892C35.4347 178.751 34.5254 178.775 33.1893 180.487C32.2641 181.672 31.2737 183.633 31.4956 185.083C31.8401 187.336 33.3548 187.836 35.7885 188.969C37.1897 189.623 39.7214 190.353 41.5849 191.941C44.187 194.156 52.2101 198.418 54.5844 198.717C58.6305 199.226 59.0803 195.427 58.1898 193.486C56.6272 190.079 50.3593 187.584 49.8958 185.283C49.5165 183.4 50.6935 180.305 50.3368 179.137C49.6969 177.044 49.1983 177.682 48.7702 179.221C48.24 181.128 46.8939 182.476 43.1672 180.649Z" fill="white"/>
</mask>
<g mask="url(#mask0)">
<path d="M49.5178 179.928C49.8358 178.784 49.8037 177.968 49.7478 177.703L50.3863 177.101L52.0826 177.892C52.5485 178.948 53.085 181.251 51.5046 182.022C49.5292 182.987 49.1203 181.36 49.5178 179.928Z" fill="#D9D8DD"/>
</g>
<mask id="mask1" mask-type="alpha" maskUnits="userSpaceOnUse" x="31" y="174" width="28" height="25">
<path fill-rule="evenodd" clip-rule="evenodd" d="M43.1515 180.649C40.1701 179.189 40.0727 176.791 40.3965 175.774L38.537 174.908C38.2863 175.061 37.8775 175.499 36.8239 176.892C35.419 178.751 34.5095 178.777 33.1734 180.487C32.2482 181.672 31.258 183.633 31.4797 185.083C31.8242 187.336 33.3389 187.836 35.7726 188.97C37.1738 189.623 39.7055 190.353 41.5692 191.941C44.1711 194.156 52.1941 198.419 54.5685 198.718C58.6147 199.227 59.3095 195.269 58.3831 193.25C56.8204 189.843 50.5214 187.584 50.0579 185.283C49.6786 183.4 50.4664 179.705 50.1097 178.537C49.4697 176.444 49.1824 177.682 48.7543 179.222C48.2243 181.129 46.878 182.476 43.1515 180.649Z" fill="white"/>
</mask>
<g mask="url(#mask1)">
<path d="M55.2805 194.913C56.6375 195.545 57.3663 194.868 57.561 194.45C57.0521 195.798 55.7238 198.584 54.4813 198.938C52.9282 199.382 44.9093 195.016 44.0093 194.057C43.1095 193.1 45.3943 191.471 46.078 192.509C46.7617 193.545 49.9227 194.66 51.5152 194.325C53.1076 193.989 53.5845 194.122 55.2805 194.913Z" fill="#DEDEDE"/>
<path d="M57.4946 193.928C57.9662 193.071 58.4052 193.066 58.5658 193.171L60.9308 194.453L58.5733 198.74L54.6511 199.067C54.0725 198.767 53.0186 197.946 53.4311 197.061C53.9468 195.955 55.0529 196.47 56.0259 196.116C56.9991 195.761 56.9053 194.999 57.4946 193.928Z" fill="#DEDEDE"/>
</g>
<path d="M46.6726 184.657C46.6962 184.398 46.9185 184.204 47.1755 184.213L47.2031 184.215L50.8382 184.547C51.1816 184.578 51.3824 184.944 51.2319 185.249L51.2196 185.272L49.9952 187.455L53.2143 187.72C53.4999 187.744 53.7018 188.006 53.6561 188.285L53.6509 188.312L53.149 190.583L55.9628 190.301C56.2218 190.275 56.4539 190.456 56.4938 190.71L56.4973 190.738C56.5234 190.997 56.3419 191.229 56.0879 191.269L56.0604 191.272L52.5756 191.622C52.2538 191.655 51.9929 191.372 52.0451 191.057L52.0501 191.031L52.5769 188.647L49.1576 188.366C48.8121 188.338 48.6083 187.97 48.7595 187.664L48.7718 187.641L49.9997 185.451L47.1144 185.188C46.8551 185.164 46.6618 184.942 46.6708 184.685L46.6726 184.657Z" fill="#2A2A2A"/>
<path d="M86.3474 197.008C86.6381 196.354 86.6112 195.689 86.4483 195.443C86.2855 195.199 66.5139 193.654 66.5139 193.654C63.2323 193.41 56.532 191.888 56.0824 193.654C54.5498 199.674 58.6224 199.674 61.226 199.674C64.8061 199.674 65.2308 198.728 67.5716 199.024C68.792 199.179 70.5819 200 78.7996 200C85.3905 200 85.6965 198.473 86.3474 197.008Z" fill="#DEDEDE"/>
<path d="M65.9255 187.278C62.6043 187.216 61.1269 186.265 59.825 184.132V183.739C58.3651 183.739 58.564 185.627 58.1978 187.278C57.7094 189.481 57.297 189.166 56.8086 191.211C56.4705 192.627 56.4017 194.751 57.2157 195.931C58.4798 197.763 60.0647 197.582 62.751 197.582C64.2977 197.582 66.9025 197.188 69.2631 197.819C72.559 198.697 81.636 199.155 83.9156 198.447C87.7997 197.241 86.6018 193.728 84.9739 192.391C82.1169 190.044 75.5454 190.73 74.1526 188.904C73.0131 187.41 72.5456 183.57 71.7288 182.693C70.2637 181.12 70.14 182.215 70.4029 183.739C70.7283 185.627 70.077 187.357 65.9255 187.278Z" fill="#252424"/>
<mask id="mask2" mask-type="alpha" maskUnits="userSpaceOnUse" x="56" y="182" width="31" height="18">
<path fill-rule="evenodd" clip-rule="evenodd" d="M65.945 187.471C62.6253 187.405 61.5241 185.274 61.3885 184.215H59.6801C59.5174 184.461 58.9885 185.03 58.6224 186.737C58.1343 189.016 57.3205 189.423 56.8323 191.538C56.4943 193.003 56.4257 195.199 57.2392 196.42C58.5027 198.315 60.0868 198.129 62.7719 198.129C64.3178 198.129 66.9213 197.722 69.2808 198.373C72.5752 199.282 81.648 199.756 83.9264 199.024C87.8087 197.776 86.6112 194.142 84.9842 192.759C82.1286 190.332 75.3933 190.717 74.0012 188.828C72.8621 187.283 72.621 183.979 71.8046 183.071C70.34 181.444 70.1575 182.232 70.42 183.809C70.7453 185.762 70.0945 187.552 65.945 187.471Z" fill="white"/>
</mask>
<g mask="url(#mask2)">
<path d="M71.3966 184.135C71.2013 182.962 70.827 182.237 70.6643 182.019L70.9895 181.205H72.861C73.7289 181.966 75.188 183.826 74.0815 185.192C72.6983 186.901 71.6406 185.6 71.3966 184.135Z" fill="#D9D8DD"/>
</g>
<mask id="mask3" mask-type="alpha" maskUnits="userSpaceOnUse" x="56" y="181" width="31" height="19">
<path fill-rule="evenodd" clip-rule="evenodd" d="M65.9307 187.478C62.6112 187.413 61.51 185.28 61.3744 184.223H59.3227C59.16 184.467 58.9744 185.036 58.6083 186.745C58.1201 189.023 57.3064 189.431 56.8182 191.545C56.4802 193.01 56.4114 195.207 57.2249 196.428C58.4886 198.323 60.0727 198.137 62.7577 198.137C64.3036 198.137 66.9072 197.729 69.2667 198.381C72.561 199.289 81.6338 199.764 83.9121 199.03C87.7946 197.784 86.7525 193.903 85.0597 192.463C82.2041 190.035 75.5401 190.649 74.1479 188.76C73.0091 187.213 72.1619 183.532 71.3454 182.624C69.881 180.997 70.1432 182.24 70.4059 183.817C70.7312 185.769 70.0802 187.558 65.9307 187.478Z" fill="white"/>
</mask>
<g mask="url(#mask3)">
<path d="M82.9501 195.281C84.4471 195.281 84.8214 194.359 84.8214 193.898C84.9299 195.336 84.9028 198.422 83.9264 199.268C82.7059 200.326 73.5934 199.756 72.3729 199.268C71.1525 198.781 72.5355 196.339 73.5934 196.99C74.6511 197.641 77.9869 197.316 79.2887 196.339C80.5905 195.363 81.0786 195.281 82.9501 195.281Z" fill="#DEDEDE"/>
<path d="M84.541 193.454C84.6059 192.477 85.0019 192.288 85.1919 192.315L87.8768 192.477L87.5513 197.36L84.1341 199.312C83.4831 199.285 82.1814 198.987 82.1814 198.01C82.1814 196.79 83.4018 196.79 84.1341 196.057C84.8663 195.325 84.4596 194.674 84.541 193.454Z" fill="#DEDEDE"/>
</g>
<path d="M74.5443 187.763C74.869 187.646 75.2059 187.893 75.1975 188.233L75.1962 188.258L75.0089 190.754L78.0388 189.635C78.3076 189.536 78.6014 189.688 78.6779 189.96L78.6846 189.987L79.1892 192.258L81.6197 190.812C81.8432 190.68 82.1297 190.746 82.2735 190.958L82.2889 190.982C82.4218 191.206 82.3557 191.492 82.1431 191.636L82.1188 191.652L79.1085 193.442C78.8307 193.607 78.4749 193.462 78.3891 193.155L78.3824 193.128L77.8526 190.744L74.6344 191.934C74.3091 192.054 73.9688 191.806 73.9771 191.465L73.9784 191.439L74.1662 188.936L71.4394 189.916C71.1945 190.004 70.9254 189.884 70.825 189.648L70.8149 189.622C70.7269 189.377 70.8467 189.108 71.0834 189.007L71.1092 188.997L74.5443 187.763Z" fill="#2A2A2A"/>
<path d="M59.4586 111.474L78.1671 113.367L50.1421 182.541C50.1421 182.541 45.5218 182.087 42.8708 181.253C40.2198 180.42 35.9781 177.542 35.9781 177.542L59.4586 111.474Z" fill="black"/>
<path d="M37.5006 111.075L59.3071 115.185L72.9409 186.006C72.9409 186.006 70.9715 187.414 66.2755 188.126C61.5794 188.837 58.0952 188.126 58.0952 188.126L37.5006 111.075Z" fill="#252424"/>
<path d="M62.4883 124.446C59.3979 119.417 49.3342 115.231 44.6886 113.766H64.0031C64.7859 119.422 65.5786 129.476 62.4883 124.446Z" fill="black"/>
<path d="M42.146 109.272L78.6973 112.5L77.8215 116.807L41.7605 113.579L42.146 109.272Z" fill="black"/>
<path fill-rule="evenodd" clip-rule="evenodd" d="M61.3934 110.161L65.0215 110.396C65.4389 110.423 65.7554 110.783 65.7284 111.2L65.3858 116.491C65.3587 116.909 64.9984 117.225 64.581 117.198L60.9529 116.963C60.5354 116.936 60.2189 116.576 60.246 116.158L60.5886 110.868C60.6157 110.45 60.976 110.134 61.3934 110.161ZM63.9229 115.638L64.1676 111.858L62.0513 111.721L61.8066 115.5L63.9229 115.638Z" fill="#252424"/>
<path d="M1.24935 46.064C3.19749 43.6583 6.72695 43.2874 9.13261 45.2356C21.311 55.0978 27.9251 59.7203 42.44 68.5037C45.0884 70.1063 45.9361 73.5524 44.3335 76.2008C42.7309 78.8492 39.2847 79.697 36.6363 78.0944C21.6925 69.0514 14.6602 64.1367 2.07776 53.9472C-0.3279 51.9991 -0.698792 48.4696 1.24935 46.064Z" fill="#FBD2C5"/>
<path d="M105.274 20.268C106.744 17.5437 110.144 16.527 112.868 17.997C115.592 19.467 116.609 22.8671 115.139 25.5914C106.625 41.3707 96.8622 56.1 85.2707 70.5894C83.3369 73.0066 79.8097 73.3985 77.3925 71.4648C74.9753 69.531 74.5834 66.0038 76.5171 63.5866C87.6896 49.6209 97.0797 35.4535 105.274 20.268Z" fill="#FBD2C5"/>
<path d="M72.5655 67.5216C69.6209 71.6899 70.6133 77.4552 74.7816 80.3996L75.4128 80.9056C79.5811 83.8502 85.3476 82.8567 88.292 78.6886L117.222 34.1746L101.496 23.0055L72.5655 67.5216Z" fill="black"/>
<path d="M48.8994 91.5326C52.9958 94.5764 58.7833 93.7228 61.827 89.6264L62.3481 89.0076C65.3919 84.9113 64.5374 79.1225 60.441 76.0787L16.6348 46.0874L5.09119 61.541L48.8994 91.5326Z" fill="black"/>
<path d="M102.708 112.989C104.162 109.717 104.652 107.914 104.147 106.324C95.7245 79.7834 84.3782 73.2998 79.7579 73.3755L45.4462 83.0707L19.3905 126.169C19.3905 126.169 38.6293 125.259 44.3858 132.53L70.0627 125.79C75.0618 128.592 79.4549 134.803 87.5594 133.591C95.6639 132.38 100.89 117.079 102.708 112.989Z" fill="black"/>
<path d="M40.8729 71.4678C40.985 66.5387 44.6864 62.5589 49.3087 62.398L60.1 62.0215C60.9792 61.992 61.8599 62.0408 62.7308 62.1692L73.2646 63.7221C77.9118 64.4071 79.6954 68.9598 79.2273 73.9361C79.2273 73.9361 81.0454 86.8135 81.0454 95.154C81.0454 103.495 78.2344 113.209 78.2344 113.209C78.1672 113.519 78.042 113.683 77.7983 113.669L38.721 111.432C38.4869 111.418 38.3083 111.201 38.3277 110.952L40.3964 92.4049L40.8729 71.4678Z" fill="#F3F6F9"/>
<path d="M72.2592 76.859C65.5938 73.8898 65.3413 68.1991 66.0483 65.7247L75.8949 57.3929C77.2332 58.2261 81.7726 62.3011 89.2257 71.9356C96.4276 81.2452 102.182 98.8007 104.384 107.218C104.515 107.626 104.582 107.903 104.602 108.065C104.533 107.794 104.461 107.512 104.384 107.218C103.844 105.529 102.225 101.607 98.4664 94.4314C92.6342 83.2971 80.591 80.5704 72.2592 76.859Z" fill="#252424"/>
<path d="M51.2026 74.2837L58.474 67.2396L51.2026 60.4984L40.4471 63.7554C40.4471 63.7554 34.9936 69.2846 34.2361 80.7219C33.4787 92.1591 13.0281 122.759 18.1028 125.713C23.1776 128.667 41.356 119.957 44.7645 114.2C48.1729 108.444 51.2026 74.2837 51.2026 74.2837Z" fill="#252424"/>
<path fill-rule="evenodd" clip-rule="evenodd" d="M58.474 67.26L51.2027 74.3041C51.2027 74.3041 48.357 106.389 45.0788 113.609C44.7503 113.753 44.4652 113.786 44.2343 113.691C41.659 112.63 39.8412 73.2437 39.8412 73.2437L48.9304 72.2591L46.8096 66.4268L53.7776 62.9061L58.474 67.26Z" fill="black"/>
<path d="M19.3905 72.4105L32.2669 54.3079L39.5382 59.0039L26.7376 77.864L19.3905 72.4105Z" fill="white"/>
<path d="M55.7472 61.6967C55.7472 58.525 58.3319 55.9537 61.5037 55.9537C64.6755 55.9537 67.2602 58.525 67.2602 61.6967V67.6317C67.2602 70.8035 64.6755 73.3747 61.5037 73.3747C58.3319 73.3747 55.7472 70.8034 55.7472 67.6317V61.6967Z" fill="#EBBAAA"/>
<path d="M79.7578 51.5811C84.5684 51.5811 88.4683 47.6812 88.4683 42.8706C88.4683 38.06 84.5684 34.1602 79.7578 34.1602C74.9472 34.1602 71.0474 38.06 71.0474 42.8706C71.0474 47.6812 74.9472 51.5811 79.7578 51.5811Z" fill="#EBBAAA"/>
<path d="M43.2495 51.5811C38.4389 51.5811 34.5391 47.6812 34.5391 42.8706C34.5391 38.06 38.4389 34.1602 43.2495 34.1602C48.0601 34.1602 51.96 38.06 51.96 42.8706C51.96 47.6812 48.0601 51.5811 43.2495 51.5811Z" fill="#EBBAAA"/>
<path d="M39.6795 30.1378C38.2703 17.3289 48.2999 6.13525 61.1861 6.13525C74.0827 6.13525 84.1157 17.3462 82.6897 30.1637L80.3826 50.9025C79.2939 60.6895 71.0209 68.0932 61.1733 68.0932C51.317 68.0932 43.0395 60.6764 41.9617 50.8792L39.6795 30.1378Z" fill="#F6DDD6"/>
<path d="M84.0288 21.2211C84.127 20.2984 83.438 19.4808 82.5129 19.4204C81.5529 19.3578 80.7478 20.1342 80.7762 21.0955L81.4049 37.3808C81.4129 37.653 81.4747 37.8734 81.7453 37.891C82.028 37.9095 82.1224 37.7024 82.1528 37.422L84.0288 21.2211Z" fill="#393939"/>
<path d="M70.8372 39.0077C71.8262 39.0077 72.6307 39.7975 72.6545 40.7807L72.6551 40.8255V42.7949C72.6551 43.7988 71.8412 44.6127 70.8372 44.6127C69.8483 44.6127 69.0437 43.8229 69.02 42.8397L69.0194 42.7949V40.8255C69.0194 39.8216 69.8333 39.0077 70.8372 39.0077Z" fill="black"/>
<path d="M51.9015 39.0077C52.8904 39.0077 53.695 39.7975 53.7188 40.7807L53.7193 40.8255V42.7949C53.7193 43.7988 52.9054 44.6127 51.9015 44.6127C50.9125 44.6127 50.108 43.8229 50.0842 42.8397L50.0836 42.7949V40.8255C50.0836 39.8216 50.8975 39.0077 51.9015 39.0077Z" fill="black"/>
<path d="M75.9845 36.6978C76.9858 36.6246 77.8568 37.377 77.93 38.3783C78.002 39.3647 77.273 40.2246 76.2941 40.32L76.2494 40.3238L67.8485 40.9376C66.8472 41.0108 65.9761 40.2584 65.903 39.2571C65.8309 38.2707 66.56 37.4108 67.5389 37.3154L67.5835 37.3116L75.9845 36.6978Z" fill="#393939"/>
<path d="M44.5414 38.4067C44.6088 37.42 45.4515 36.6712 46.4341 36.7144L46.4789 36.7169L54.8826 37.2909C55.8842 37.3593 56.6408 38.2268 56.5723 39.2284C56.505 40.2151 55.6622 40.9639 54.6796 40.9207L54.6349 40.9182L46.2311 40.3442C45.2295 40.2758 44.473 39.4083 44.5414 38.4067Z" fill="#393939"/>
<path d="M60.3607 42.9175L62.6011 44.1873C61.9259 45.3785 61.5412 46.6512 61.5824 47.5148C61.6122 48.1385 61.768 48.3171 62.3534 48.324L62.3898 48.3242V50.8995C60.3298 50.8995 59.1031 49.5859 59.0101 47.6377C58.9439 46.2526 59.4451 44.5642 60.3094 43.0088L60.3607 42.9175Z" fill="#EBBAAA"/>
<path d="M82.1059 36.281C82.1816 35.6751 82.4846 34.9176 82.939 34.7661C83.3935 34.6147 83.6686 12.9132 77.1826 7.69486C70.6965 2.47651 55.1726 0.358925 44.4118 7.69486C33.6508 15.0308 42.3407 30.1458 38.7165 34.2924C37.3954 35.804 39.9404 36.358 39.842 37.1899L40.4118 32.6285C40.4118 32.6285 43.4789 26.8925 45.7921 19.7717C47.6348 14.0996 59.2064 17.5029 61.4913 17.5029C63.7761 17.5029 74.2531 14.247 76.0849 19.7717C78.5171 27.1077 79.768 29.7198 81.0455 31.8122C81.3648 34.7365 81.9633 37.4217 82.1059 36.281Z" fill="#393939"/>
<path d="M42.5909 5.60323C37.8718 10.4526 37.0311 23.9891 39.3465 30.1567C39.3465 33.6064 29.1903 32.93 27.518 38.1935C26.1563 42.4791 39.1005 40.8315 52.9568 38.1935C66.8133 35.5555 99.8578 24.5828 94.7545 22.9869C91.5101 21.9722 88.6713 22.2428 84.8359 23.9891C84.8359 16.4133 74.986 0 67.5632 0C62.4726 0 60.8852 1.43349 57.6408 2.65101C54.3964 3.86854 49.7252 -1.72767 42.5909 5.60323Z" fill="black"/>
<path fill-rule="evenodd" clip-rule="evenodd" d="M86.4488 16.4612C86.0168 15.723 85.1539 15.5381 83.6775 16.4221C80.7761 18.1597 69.911 19.5897 60.2192 20.8655C51.6455 21.9941 43.99 23.0018 43.5781 23.9943C42.7004 26.1091 44.3207 29.7929 45.1983 30.2704C46.0758 30.7481 58.8348 29.4382 64.2354 28.8378C69.6361 28.2376 80.2123 25.3588 84.8927 23.9943C86.0163 22.8185 87.0751 19.347 86.7384 17.3297C86.6476 17.0431 86.5509 16.7534 86.4488 16.4612Z" fill="white"/>
<path d="M67.7904 55.9742H54.9141C56.1513 57.0599 59.1405 59.2312 61.2008 59.2312C63.261 59.2312 66.4523 57.0599 67.7904 55.9742Z" fill="white"/>
<path d="M72.032 54.308C74.1654 54.308 75.8949 52.5785 75.8949 50.4451C75.8949 48.3116 74.1654 46.5822 72.032 46.5822C69.8985 46.5822 68.1691 48.3116 68.1691 50.4451C68.1691 52.5785 69.8985 54.308 72.032 54.308Z" fill="#FBD2C5"/>
<path d="M51.1268 54.308C53.2602 54.308 54.9897 52.5785 54.9897 50.4451C54.9897 48.3116 53.2602 46.5822 51.1268 46.5822C48.9934 46.5822 47.2639 48.3116 47.2639 50.4451C47.2639 52.5785 48.9934 54.308 51.1268 54.308Z" fill="#FBD2C5"/>
</svg>
