<svg width="77" height="202" viewBox="0 0 77 202" fill="none" xmlns="http://www.w3.org/2000/svg">
<path d="M35.4097 148.211C44.2619 148.211 51.438 144.813 51.438 140.618C51.438 136.426 44.2619 133.027 35.4097 133.027C26.5575 133.027 19.3813 136.426 19.3813 140.618C19.3813 144.813 26.5575 148.211 35.4097 148.211Z" fill="#1B1E21"/>
<path d="M47.2316 165.976C49.2804 165.976 50.9452 167.62 50.9783 169.661L50.9788 169.723V193.039C50.9788 195.109 49.3011 196.786 47.2316 196.786C45.1828 196.786 43.518 195.142 43.4849 193.101L43.4844 193.039V169.723C43.4844 167.654 45.1621 165.976 47.2316 165.976Z" fill="#EBBAAA"/>
<path d="M27.942 165.998C29.9787 165.776 31.8123 167.229 32.0669 169.255L32.0741 169.316L34.3958 190.562C34.6207 192.619 33.1352 194.469 31.0779 194.694C29.0412 194.916 27.2076 193.462 26.953 191.437L26.9458 191.376L24.6241 170.13C24.3992 168.073 25.8847 166.223 27.942 165.998Z" fill="#EBBAAA"/>
<path d="M34.2792 189.025C30.1712 189.858 27.4326 189.372 26.7155 189.025L27.1318 193.675L31.5035 195.756L34.8344 192.981C34.6956 191.801 34.418 190.413 34.2792 189.025Z" fill="#3F4248"/>
<path d="M43.439 189.164C47.5471 189.997 50.2857 189.511 51.0028 189.164V193.813L46.6311 195.895L43.3003 193.12C43.439 191.94 43.3003 190.552 43.439 189.164Z" fill="#3F4248"/>
<path d="M18.1803 132.124H36.9163L36.2224 184.376V187.736H23.4542L22.8832 183.475L18.1803 132.124Z" fill="#1B1E21"/>
<path d="M36.7378 132.959H55.5374L54.717 184.029L53.8843 187.915L41.81 188.748L41.3574 184.584L36.7378 132.959Z" fill="#1B1E21"/>
<path d="M22.6213 186.805H36.4999V190.136H23.0079L22.6213 186.805Z" fill="#0A0A0B"/>
<path d="M41.3575 187.083H54.4033L53.8481 190.136H41.8769L41.3575 187.083Z" fill="#0A0A0B"/>
<path d="M66.779 198.879C66.779 194.619 64.0413 194.098 59.5792 192.638C57.3938 191.923 55.1635 191.3 52.9005 190.925C51.4784 190.69 51.0963 191.94 48.5981 191.94C46.3704 191.94 43.5911 190.837 43.0155 190.598C42.9433 190.567 42.8577 190.541 42.8003 190.594C42.7864 190.606 42.7747 190.623 42.766 190.64C42.4999 191.186 41.1037 194.167 41.1037 196.553C41.1037 198.378 40.9475 200.173 41.4507 201.1C41.6778 201.518 43.0955 201.747 43.5715 201.747H66.0069C66.4333 201.747 66.779 199.305 66.779 198.879Z" fill="#678EAB"/>
<mask id="mask0" mask-type="alpha" maskUnits="userSpaceOnUse" x="41" y="190" width="26" height="12">
<path fill-rule="evenodd" clip-rule="evenodd" d="M66.7785 198.879C66.7785 196.691 66.056 195.489 64.7484 194.639C58.5266 190.601 50.4592 190.411 43.0463 190.136C42.9856 190.136 42.792 190.585 42.7655 190.64C42.4994 191.186 41.1033 194.167 41.1033 196.553C41.1033 198.378 40.947 200.173 41.4502 201.1C41.6773 201.518 43.095 201.747 43.571 201.747H66.0065C66.4328 201.747 66.7785 199.305 66.7785 198.879Z" fill="white"/>
</mask>
<g mask="url(#mask0)">
<path d="M63.5175 195.965C65.6686 195.965 66.27 194.716 66.5013 194.508C66.9177 194.993 66.5707 196.95 66.8483 197.838C67.1259 198.727 66.7326 199.597 66.5013 199.92L47.1408 200.822C47.0251 198.972 46.8632 195.271 47.1408 195.271C47.4878 195.271 49.7083 192.287 50.888 192.218C51.8317 192.162 56.4162 193.352 58.5906 193.953C58.313 194.23 57.855 195.646 57.6885 196.312C57.4803 197.145 57.4109 197.145 58.1742 197.353C58.9375 197.561 59.0763 195.965 59.909 195.965H63.5175Z" fill="#35455F"/>
<path d="M48.8064 195.34C48.4733 194.785 43.1162 193.998 40.965 193.744L39.9935 199.712L50.8188 200.337C50.2867 198.903 49.1395 195.895 48.8064 195.34Z" fill="#071427"/>
<path d="M54.4964 199.643C58.0355 199.504 61.0887 200.337 64.9747 199.504C71.914 198.741 68.3487 199.194 70.1098 202.57H42.8962C40.2016 201.933 39.3075 198.006 41.3119 198.324C45.6836 199.018 51.7886 199.749 54.4964 199.643Z" fill="#D1CEC8"/>
<path d="M40.271 199.504C41.2148 199.892 54.0108 199.92 54.4271 199.643C53.4556 199.434 46.3055 198.624 44.7121 198.532C42.2834 198.393 41.3581 198.209 40.271 198.255C39.8777 198.532 39.3273 199.115 40.271 199.504Z" fill="#DEDEDE"/>
<path d="M52.974 190.465C53.1757 190.342 53.4387 190.406 53.5614 190.608C53.684 190.809 53.62 191.072 53.4183 191.195L53.2941 191.268C53.1301 191.362 52.8641 191.514 52.7509 191.582L52.6836 191.623L52.5944 191.68L55.6259 190.982C56.0083 190.894 56.2929 191.323 56.0754 191.639L56.0611 191.659L55.2317 192.742L58.6125 191.78C59.0295 191.662 59.3326 192.164 59.0472 192.477L59.0305 192.495L57.1853 194.325C57.0177 194.492 56.7471 194.491 56.5808 194.323C56.4212 194.162 56.4158 193.906 56.5639 193.739L56.5832 193.718L57.2507 193.056L54.2252 193.917C53.8372 194.027 53.5309 193.59 53.7549 193.265L53.7689 193.246L54.6603 192.082L51.6084 192.784C51.349 192.844 51.1011 192.655 51.0859 192.393L51.0851 192.368C51.0851 191.781 51.4898 191.357 52.2355 190.895L52.3276 190.839C52.5056 190.733 52.9092 190.504 52.974 190.465Z" fill="#0980D0"/>
<path fill-rule="evenodd" clip-rule="evenodd" d="M52.0407 189.101C52.0627 187.86 52.8832 186.944 53.9637 186.944C54.4973 186.944 54.9319 187.167 55.2317 187.576C55.5196 187.969 55.6735 188.519 55.6735 189.152C55.6735 189.736 55.3262 190.262 54.7331 190.657C54.2076 191.007 53.5327 191.217 52.9664 191.217C52.6948 191.217 52.4953 191.168 52.3545 191.069C52.2239 190.978 52.1394 190.845 52.0902 190.656C52.0473 190.493 52.0308 190.294 52.03 190.006L52.0301 189.912L52.0389 189.354L52.0407 189.101ZM54.5422 188.082C54.4022 187.89 54.2234 187.799 53.9637 187.799C53.3667 187.799 52.8952 188.335 52.8952 189.152L52.8942 189.326L52.8859 189.836C52.8852 189.889 52.8849 189.928 52.8848 189.968L52.8859 190.096C52.8878 190.199 52.8926 190.279 52.9 190.342L52.9022 190.36L52.9226 190.362L52.9664 190.362C53.3615 190.362 53.8722 190.203 54.2593 189.945C54.6338 189.696 54.8186 189.416 54.8186 189.152C54.8186 188.69 54.7141 188.316 54.5422 188.082Z" fill="#0980D0"/>
<path fill-rule="evenodd" clip-rule="evenodd" d="M49.9517 188.81C49.5895 188.971 49.3611 189.253 49.2794 189.618C49.2011 189.966 49.2609 190.382 49.4497 190.807C49.6243 191.198 50.0167 191.445 50.5372 191.53C50.9977 191.606 51.5187 191.544 51.9032 191.373L51.9437 191.354C52.0749 191.291 52.1682 191.223 52.2317 191.149L52.2498 191.126L52.2582 191.114L52.2686 191.099L52.2775 191.081L52.2939 191.053C52.3042 191.035 52.3073 191.026 52.3149 191.005L52.3149 191.005L52.323 190.979L52.3296 190.953L52.3355 190.919C52.3434 190.863 52.342 190.801 52.3311 190.733C52.3128 190.62 52.2707 190.494 52.1983 190.325L52.1566 190.231L51.9423 189.768C51.9338 189.749 51.9255 189.73 51.916 189.709C51.5375 188.86 50.6938 188.48 49.9517 188.81ZM51.5582 190.789L51.4931 190.776L51.4963 190.762L51.5068 190.726L51.5165 190.704L51.5388 190.656L51.5562 190.628L51.7184 190.49L51.7216 190.489C51.7633 190.474 51.8215 190.46 51.9107 190.437L51.5582 190.789ZM51.1351 190.057L51.117 190.018C50.9192 189.611 50.5802 189.466 50.2996 189.591C50.1856 189.642 50.1366 189.702 50.1136 189.805C50.0787 189.96 50.1122 190.193 50.2307 190.46C50.2733 190.555 50.4149 190.644 50.6758 190.687C50.9041 190.725 51.1636 190.709 51.3755 190.654L51.4052 190.645L51.3555 190.534L51.2113 190.224L51.1351 190.057Z" fill="#0980D0"/>
</g>
<path d="M11.102 198.879C11.102 194.619 13.8397 194.098 18.3016 192.638C20.4871 191.923 22.7175 191.3 24.9805 190.925C26.4027 190.69 26.7847 191.94 29.2829 191.94C31.5107 191.94 34.29 190.837 34.8655 190.598C34.9377 190.567 35.0232 190.541 35.0806 190.594C35.0945 190.606 35.1063 190.623 35.1149 190.64C35.381 191.186 36.7773 194.167 36.7773 196.553C36.7773 198.378 36.9336 200.173 36.4303 201.1C36.2033 201.518 34.7856 201.747 34.3094 201.747H11.874C11.4477 201.747 11.102 199.305 11.102 198.879Z" fill="#678EAB"/>
<mask id="mask1" mask-type="alpha" maskUnits="userSpaceOnUse" x="11" y="190" width="26" height="12">
<path fill-rule="evenodd" clip-rule="evenodd" d="M11.1027 198.879C11.1027 196.691 11.8252 195.489 13.1328 194.639C19.3546 190.601 27.4219 190.411 34.835 190.136C34.8955 190.136 35.0891 190.585 35.1156 190.64C35.3816 191.186 36.778 194.167 36.778 196.553C36.778 198.378 36.9342 200.173 36.431 201.1C36.2039 201.518 34.7862 201.747 34.3101 201.747H11.8747C11.4483 201.747 11.1027 199.305 11.1027 198.879Z" fill="white"/>
</mask>
<g mask="url(#mask1)">
<path d="M14.3633 195.965C12.2122 195.965 11.6108 194.716 11.3794 194.508C10.9631 194.993 11.3101 196.95 11.0325 197.838C10.7549 198.727 11.1481 199.597 11.3794 199.92L30.74 200.822C30.8556 198.972 31.0176 195.271 30.74 195.271C30.393 195.271 28.1725 192.287 26.9928 192.218C26.0491 192.162 21.4646 193.352 19.2902 193.953C19.5678 194.23 20.0258 195.646 20.1923 196.312C20.4005 197.145 20.4699 197.145 19.7066 197.353C18.9433 197.561 18.8045 195.965 17.9718 195.965H14.3633Z" fill="#35455F"/>
<path d="M29.0748 195.34C29.4079 194.785 34.765 193.998 36.9162 193.744L37.8877 199.712L27.0624 200.337C27.5944 198.903 28.7417 195.895 29.0748 195.34Z" fill="#071427"/>
<path d="M23.3845 199.643C19.8455 199.504 16.7922 200.337 12.9062 199.504C5.96699 198.741 9.53216 199.194 7.77121 202.57H34.9848C37.6794 201.933 38.5735 198.006 36.5691 198.324C32.1974 199.018 26.0922 199.749 23.3845 199.643Z" fill="#D1CEC8"/>
<path d="M37.6101 199.504C36.6664 199.892 23.8704 199.92 23.454 199.643C24.4255 199.434 31.5756 198.624 33.169 198.532C35.5977 198.393 36.523 198.209 37.6101 198.255C38.0033 198.532 38.5539 199.115 37.6101 199.504Z" fill="#DEDEDE"/>
<path d="M24.3194 190.608C24.4421 190.406 24.705 190.342 24.9067 190.465L25.1234 190.59C25.2895 190.686 25.5017 190.808 25.5927 190.863C26.372 191.337 26.7957 191.767 26.7957 192.368C26.7957 192.634 26.5559 192.833 26.2975 192.789L26.2724 192.784L23.2206 192.082L24.112 193.246C24.3573 193.566 24.0635 194.011 23.6789 193.923L23.6557 193.917L20.6301 193.056L21.2975 193.718C21.4584 193.878 21.4658 194.134 21.3191 194.302L21.2999 194.323C21.1403 194.484 20.8845 194.491 20.716 194.344L20.6954 194.325L18.8504 192.495C18.5427 192.189 18.8324 191.679 19.2449 191.774L19.2684 191.78L22.649 192.742L21.8197 191.659C21.5812 191.347 21.853 190.911 22.2312 190.977L22.255 190.982L25.2863 191.68L25.1973 191.623L25.1085 191.569C24.9398 191.47 24.5403 191.242 24.4624 191.195C24.2607 191.072 24.1967 190.809 24.3194 190.608Z" fill="#0980D0"/>
<path fill-rule="evenodd" clip-rule="evenodd" d="M22.6489 187.577C22.949 187.167 23.3836 186.944 23.9172 186.944C25.0127 186.944 25.8408 187.886 25.8408 189.152L25.8416 189.314L25.8508 189.902L25.8506 190.062C25.8477 190.321 25.8307 190.504 25.7908 190.656C25.7416 190.844 25.6574 190.978 25.527 191.069C25.3851 191.168 25.186 191.217 24.9147 191.217C24.3484 191.217 23.6735 191.007 23.1478 190.657C22.5548 190.262 22.2076 189.736 22.2076 189.152C22.2076 188.519 22.3614 187.968 22.6489 187.577ZM24.9854 189.107C24.9684 188.315 24.5033 187.799 23.9172 187.799C23.6575 187.799 23.4788 187.89 23.3384 188.082C23.167 188.316 23.0624 188.69 23.0624 189.152C23.0624 189.416 23.2472 189.696 23.6216 189.945C24.0088 190.203 24.5195 190.362 24.9147 190.362C24.9355 190.362 24.9544 190.362 24.9717 190.361L24.9785 190.36L24.981 190.342C24.9895 190.27 24.9946 190.173 24.9959 190.046L24.9962 190.003C24.9962 189.978 24.9962 189.953 24.996 189.927L24.9878 189.409L24.9854 189.107Z" fill="#0980D0"/>
<path fill-rule="evenodd" clip-rule="evenodd" d="M25.8553 189.948L25.7359 190.206C25.7279 190.223 25.7205 190.24 25.7135 190.255L25.7031 190.279C25.6185 190.471 25.5701 190.61 25.5501 190.732C25.5389 190.802 25.5375 190.863 25.5454 190.92L25.5522 190.958C25.5541 190.973 25.5559 190.984 25.5615 190.998L25.5698 191.016L25.5722 191.022C25.5768 191.034 25.5809 191.043 25.5899 191.059L25.6158 191.102L25.6149 191.103C25.6822 191.204 25.7974 191.293 25.9773 191.373C26.3624 191.544 26.8833 191.607 27.3444 191.531C27.8645 191.446 28.2568 191.198 28.4309 190.808C28.6202 190.382 28.68 189.967 28.6014 189.617C28.5198 189.253 28.2916 188.972 27.93 188.81C27.1999 188.486 26.372 188.847 25.9846 189.667L25.8553 189.948ZM25.9738 190.44L26.3107 190.621L26.3558 190.69C26.3605 190.698 26.3645 190.704 26.3679 190.71L26.3703 190.715L26.3729 190.722L26.3863 190.769C26.3869 190.771 26.3873 190.774 26.3879 190.777L26.3529 190.784L25.9738 190.44ZM26.5142 190.559L26.4757 190.645L26.5053 190.654C26.7012 190.705 26.9374 190.722 27.1525 190.695L27.2058 190.687C27.4661 190.644 27.6077 190.555 27.6499 190.461C27.7689 190.193 27.8024 189.96 27.7673 189.805C27.7443 189.702 27.6954 189.642 27.582 189.591C27.292 189.462 26.9405 189.621 26.7458 190.057L26.5142 190.559Z" fill="#0980D0"/>
</g>
<path d="M9.6811 93.9704C10.9711 91.4448 14.0643 90.4431 16.59 91.7331C19.1156 93.0232 20.1172 96.1164 18.8272 98.642C16.9426 102.332 15.7488 108.316 15.9766 113.806C16.2197 119.668 17.9781 124.12 20.9018 126.307L20.9907 126.373C23.285 128.04 23.7935 131.251 22.1264 133.546C20.4593 135.84 17.248 136.348 14.9537 134.681C9.03017 130.377 6.07865 122.992 5.71529 114.232C5.41679 107.036 6.9604 99.297 9.6811 93.9704Z" fill="#EBBAAA"/>
<path d="M56.5609 88.6782C59.031 87.2848 62.163 88.1577 63.5563 90.6278C67.0808 96.8757 69.2432 105.479 69.4286 113.511C69.5243 117.657 69.0891 121.519 68.0909 124.817C66.8997 128.752 64.9113 131.902 62.0108 133.914C59.6806 135.53 56.4811 134.952 54.8646 132.621C53.2642 130.315 53.8153 127.156 56.0875 125.524L56.1568 125.475C57.9669 124.22 59.3012 119.812 59.1612 113.748C59.0131 107.333 57.2651 100.378 54.6113 95.6737C53.2179 93.2035 54.0908 90.0716 56.5609 88.6782Z" fill="#EBBAAA"/>
<path d="M19.2295 83.2868C19.3454 78.5104 23.1692 74.6538 27.9441 74.4978L39.0919 74.1331C40.0003 74.1045 40.9101 74.1517 41.8099 74.2762L52.6916 75.781C57.4923 76.4447 60.9084 80.7848 60.4249 85.607L58.3664 106.132L59.3991 135.537C59.4092 135.789 47.4391 135.55 47.1874 135.537H27.9441L17.0066 133.886C16.7648 133.873 16.5803 133.663 16.6004 133.421L18.7375 103.575L19.2295 83.2868Z" fill="#1D1E1F"/>
<path d="M37.349 86.5703C42.8793 86.5703 47.3624 82.0871 47.3624 76.5568C47.3624 71.0266 42.8793 66.5435 37.349 66.5435C31.8187 66.5435 27.3355 71.0266 27.3355 76.5568C27.3355 82.0871 31.8187 86.5703 37.349 86.5703Z" fill="#363535"/>
<path d="M31.9209 71.0454C31.9209 68.1396 34.2766 65.7839 37.1824 65.7839H38.8725C41.7784 65.7839 44.134 68.1396 44.134 71.0454V77.0379C44.134 79.9437 41.7784 82.2994 38.8725 82.2994H37.1824C34.2766 82.2994 31.9209 79.9437 31.9209 77.0379V71.0454Z" fill="#EBBAAA"/>
<path d="M11.2649 82.9675C12.8727 77.5397 18.5762 74.4429 24.0041 76.0507C29.432 77.6585 32.5287 83.3621 30.9209 88.7899L22.5672 116.992C20.9594 122.419 15.2559 125.516 9.82801 123.908C4.40015 122.301 1.30338 116.597 2.91118 111.169L11.2649 82.9675Z" fill="#1E4295"/>
<path d="M11.5014 132.022C9.41527 130.302 4.13014 121.06 2.91452 116.926L16.5056 109.808C17.8002 115.193 21.1699 121.266 23.6375 127.725L23.6199 127.737C21.1855 129.382 14.1028 134.167 11.5014 132.022Z" fill="#1E4295"/>
<path d="M10.8305 131.374L14.8024 128.958C17.5293 127.298 21.2434 125.526 22.6662 124.66L23.5779 127.761C22.1757 128.749 18.6425 131.024 15.7269 132.213C12.8114 133.402 11.2478 132.149 10.8305 131.374Z" fill="#172F72"/>
<path d="M6.1063 109.64L16.1683 112.693L5.20419 111.652L6.1063 109.64Z" fill="#172F72"/>
<path d="M8.60461 113.665L16.3767 113.248L9.6455 115.399L8.60461 113.665Z" fill="#172F72"/>
<path d="M64.3643 82.9739C62.6985 77.1528 56.6293 73.7843 50.8082 75.4501C44.9872 77.1159 41.6187 83.1851 43.2845 89.0062L52.0788 119.738C53.7446 125.559 59.8139 128.928 65.6349 127.262C71.4559 125.596 74.8245 119.527 73.1587 113.706L64.3643 82.9739Z" fill="#1E4295"/>
<path d="M38.9989 111.444C38.8887 102.124 35.8068 89.3291 35.8068 84.8669C34.8353 84.8669 33.8638 84.7281 33.1699 84.3118C33.2073 80.7251 33.461 77.0471 31.9368 73.6947L20.0673 75.9808C18.2184 78.5251 14.9656 86.1269 14.4436 100.688C14.0286 112.26 14.4576 120.057 14.4436 127.543C14.4398 129.477 17.2096 130.899 17.2096 136.103C19.4936 136.764 31.4943 138.452 38.9989 136.103C40.3867 126.988 39.1621 125.242 38.9989 111.444Z" fill="#173988"/>
<path d="M28.3121 133.858C25.2033 134.08 19.7074 133.095 16.5154 131.984V136.703C18.3196 138.091 22.9689 137.952 25.5364 137.952C28.7284 137.952 33.8635 138.924 39.4149 138.091L39.1373 133.858C37.1943 134.274 31.4209 133.636 28.3121 133.858Z" fill="#172F72"/>
<path d="M66.4235 132.042C68.3686 130.164 72.392 123.285 73.2799 119.068L59.6941 110.288C58.8255 115.758 54.6243 119.699 52.6703 126.332C55.2087 127.771 63.9924 134.389 66.4235 132.042Z" fill="#1E4295"/>
<path d="M61.2581 128.263C59.4143 127.331 54.8495 124.789 53.3636 124.038C52.877 124.129 52.7721 125.823 53.5375 126.77C54.4941 127.953 59.9736 130.957 63.0713 132.213C65.5494 133.217 66.6922 132.126 66.9538 131.454C65.7474 130.611 63.9208 129.61 61.2581 128.263Z" fill="#172F72"/>
<path d="M69.1845 108.391L59.1226 111.444L70.0866 110.403L69.1845 108.391Z" fill="#172F72"/>
<path d="M67.3107 112.832L59.5388 112.416L66.2698 114.567L67.3107 112.832Z" fill="#172F72"/>
<path d="M37.8886 109.779C37.8886 96.4267 39.3455 88.9638 39.3455 84.6459C40.1089 84.6459 40.8652 84.8541 41.9131 84.5072C42.4103 80.8155 43.7542 76.5928 45.1584 73.4171L53.2139 74.7161C55.2177 75.0392 56.9764 76.2045 57.4219 78.1848C58.4092 82.574 58.976 90.7715 59.8774 101.469C60.7881 112.277 60.3358 121.374 60.7881 128.792C60.9293 131.106 57.7521 134.879 57.8736 136.387C53.8823 136.955 45.783 138.66 38.7213 136.387C38.7213 127.297 37.8886 123.131 37.8886 109.779Z" fill="#173988"/>
<path d="M47.7421 134.621C50.8509 134.843 56.902 134.552 59.5389 132.401L59.8165 137.258C57.0407 137.952 53.2242 138.507 52.1833 138.507C47.6883 138.507 43.8562 139.201 38.3047 138.369V133.719C40.2477 134.136 44.6334 134.399 47.7421 134.621Z" fill="#172F72"/>
<path d="M36.431 128.654C36.431 124.879 35.8526 101.452 34.8349 90.349L33.3777 84.52L36.3614 84.6588C36.5989 86.5836 37.1249 87.9203 37.9576 91.945L39.3453 84.6588L41.7047 84.52C41.7047 87.1107 40.6639 92.9026 40.6639 95.3453V138.646L36.431 138.369V128.654Z" fill="#143481"/>
<path d="M37.1255 91.7651L38.79 91.7086L38.8236 92.7143C39.362 109.132 39.7004 133.091 39.3543 138.343L39.3434 138.5L37.6825 138.377C38.0438 133.498 37.6936 108.786 37.1423 92.2633L37.1255 91.7651Z" fill="#122865"/>
<path d="M53.1113 75.4989C54.6657 74.7217 51.1683 73.1395 49.6417 72.3068C48.3926 71.9367 45.6447 71.0855 44.0903 73.4171C43.0364 74.9981 40.0393 80.0788 39.3401 84.6587C38.5821 88.4059 38.603 89.5384 39.6923 88.1977C47.8113 78.2052 51.1683 76.4704 53.1113 75.4989Z" fill="#172F72"/>
<path d="M23.1773 75.7764C21.6229 74.9992 25.1203 73.417 26.647 72.5843C27.896 72.2142 30.644 71.363 32.1984 73.6946C33.2799 75.317 35.3065 80.2393 36.5004 85.2137C37.3332 88.6834 37.1476 89.0997 36.5004 88.4058C28.7979 80.1481 25.1203 76.7478 23.1773 75.7764Z" fill="#172F72"/>
<path fill-rule="evenodd" clip-rule="evenodd" d="M38.7212 91.4592H37.1252L36.9864 92.5695L36.5531 95.458C36.4525 96.1293 36.9724 96.7331 37.6512 96.7331H38.1953C38.8741 96.7331 39.394 96.1293 39.2933 95.458L38.86 92.5695L38.7212 91.4592ZM37.3332 92.8471L37.472 91.8756H38.4508L38.5823 92.8471H37.3332ZM37.5568 96.1779H38.3766C38.7705 96.1779 39.0659 95.8179 38.9892 95.4315C38.931 95.1394 38.6746 94.9289 38.3766 94.9289H37.5568C37.2641 94.9289 37.0107 95.1322 36.9471 95.4179C36.8605 95.8079 37.1572 96.1779 37.5568 96.1779Z" fill="#09193F"/>
<path d="M37.5189 91.2488L37.6025 92.1084C37.6202 92.2912 37.7739 92.4307 37.9576 92.4307C38.1414 92.4307 38.295 92.2912 38.3128 92.1084L38.3963 91.2488C38.4216 90.9897 38.218 90.7653 37.9576 90.7653C37.6972 90.7653 37.4936 90.9897 37.5189 91.2488Z" fill="#2E4A7A"/>
<path d="M14.2947 106.587C15.8798 106.587 17.8329 107.684 19.7221 109.4C21.4277 110.949 22.7769 112.744 23.08 113.99C23.3639 115.157 23.2594 117.778 22.8709 121.969L22.8209 122.501C22.774 122.993 22.7237 123.502 22.6687 124.043L22.5671 125.027C22.4487 126.155 22.2153 128.345 22.169 128.796L22.109 129.393C22.0255 130.247 21.988 130.749 21.9958 130.89C22.0335 131.569 22.2454 132.41 22.4559 132.944L22.4793 133.002L22.5381 133.145L22.6499 134.555L22.6705 134.834C22.7002 135.244 22.7236 135.62 22.741 135.982L22.7465 136.102C22.7761 136.762 22.7833 137.34 22.7635 137.837L22.7595 137.929L20.8187 137.837C20.8388 137.415 20.835 136.9 20.8103 136.302L20.8055 136.189C20.7868 135.771 20.7593 135.332 20.7227 134.839L20.6238 133.594L20.5976 133.524C20.345 132.842 20.1198 131.919 20.0616 131.089L20.0558 130.997L20.0535 130.941C20.0449 130.627 20.091 130.037 20.1994 128.958L20.4288 126.772C20.5267 125.848 20.6332 124.844 20.6794 124.396L20.7536 123.669C20.7774 123.434 20.8004 123.204 20.8225 122.979L20.8866 122.317C21.2859 118.128 21.4109 115.349 21.1921 114.449C21.0027 113.671 19.8587 112.149 18.4157 110.838C16.8773 109.441 15.3172 108.556 14.3388 108.53L14.2947 108.53V106.587Z" fill="#142C6F"/>
<path opacity="0.1" d="M14.3513 107.35C15.4547 107.281 17.2254 108.302 19.0339 109.911C20.7397 111.429 22.0855 113.131 22.3385 114.171C22.5987 115.24 22.4834 117.939 22.0858 122.168L22.0611 122.429C22.0144 122.919 21.9642 123.427 21.9094 123.966L21.808 124.948L21.3951 128.861C21.276 130.032 21.2235 130.683 21.2331 130.918L21.2338 130.932C21.2766 131.703 21.5086 132.624 21.7479 133.229L21.7862 133.324L21.8889 134.598L21.9183 134.993C21.9488 135.422 21.9719 135.813 21.9878 136.19L21.9924 136.303C22.0139 136.861 22.0177 137.36 22.0011 137.799L21.9972 137.892L21.5813 137.873C21.6003 137.455 21.5992 136.975 21.5806 136.436L21.5763 136.319C21.5592 135.875 21.5317 135.412 21.4937 134.894L21.3759 133.42L21.3621 133.386C21.1157 132.764 20.8805 131.843 20.8235 131.041L20.8181 130.955C20.8069 130.754 20.8368 130.306 20.9112 129.523L20.9956 128.675C21.0485 128.16 21.3425 125.405 21.4348 124.513L21.5133 123.746C21.561 123.273 21.6052 122.824 21.6467 122.389L21.7062 121.754C22.0693 117.804 22.1705 115.242 21.9339 114.269C21.4225 112.167 16.4564 107.732 14.4375 107.764L14.3772 107.766L14.3513 107.35Z" fill="#F5F6F8"/>
<path d="M60.2327 106.173V108.116C59.2427 108.116 57.6412 109.007 56.0624 110.428L55.9308 110.547C54.5363 111.83 53.4446 113.284 53.2594 114.038C53.0388 114.937 53.165 117.716 53.568 121.903L53.6328 122.565C53.6719 122.958 53.7134 123.367 53.758 123.796L54.2248 128.183C54.3687 129.571 54.4252 130.258 54.4069 130.585C54.3573 131.469 53.6571 133.626 53.1584 134.872L53.1415 134.914L53.1369 134.987L53.128 135.155C53.0878 135.987 53.0942 137.096 53.1481 138.276L53.1535 138.391L51.2127 138.485L51.2014 138.237C51.1429 136.877 51.1448 135.611 51.2084 134.699L51.2262 134.462L51.2861 134.318C51.3916 134.064 51.6506 133.359 51.8706 132.705L51.9278 132.533C52.2374 131.596 52.4388 130.839 52.4653 130.5L52.4669 130.476C52.4748 130.336 52.4369 129.834 52.3527 128.98L52.2764 128.233C52.1946 127.458 51.9268 124.971 51.8447 124.183L51.7693 123.452C51.739 123.155 51.7102 122.867 51.6825 122.587L51.634 122.089C51.2005 117.586 51.0736 114.792 51.3725 113.575C51.6788 112.328 53.0409 110.532 54.7628 108.983C56.642 107.293 58.5838 106.204 60.1669 106.174L60.2327 106.173Z" fill="#142C6F"/>
<path opacity="0.1" d="M55.4503 109.497C57.252 107.91 59.0166 106.895 60.132 106.935L60.1757 106.937L60.15 107.353C58.1509 107.229 53.0399 111.732 52.5182 113.856L52.5036 113.92C52.2721 114.992 52.4017 117.751 52.8084 121.976L52.8403 122.305C52.8836 122.747 52.9298 123.206 52.9799 123.692L53.4657 128.262C53.6027 129.583 53.6598 130.277 53.6449 130.542C53.6008 131.328 52.9267 133.437 52.4914 134.518L52.4578 134.6L52.4553 134.636C52.3942 135.506 52.3926 136.805 52.4507 138.201L52.4606 138.428L52.0447 138.448L52.0347 138.218C51.976 136.808 51.9777 135.495 52.0399 134.607L52.0476 134.503L52.0604 134.472C52.4669 133.494 53.1625 131.346 53.2264 130.559L53.2292 130.519C53.2414 130.3 53.1911 129.667 53.0734 128.517L52.604 124.104L52.4933 123.024C52.4584 122.677 52.4254 122.342 52.3939 122.016L52.3329 121.371C51.9607 117.362 51.8592 114.794 52.1139 113.757C52.3694 112.717 53.7281 111.015 55.4503 109.497Z" fill="#F5F6F8"/>
<path d="M48.9982 76.54C49.4039 76.5541 49.902 76.6967 50.2375 76.9155C50.6957 77.2142 50.8509 77.6478 50.554 78.1097C50.2513 78.5807 49.8189 78.5804 49.4063 78.2305C49.1604 78.022 48.9232 77.7011 48.7106 77.3359L48.671 77.2669L49.0335 77.062C49.2337 77.4162 49.4608 77.7308 49.6756 77.913C49.9148 78.1158 50.0551 78.1159 50.2038 77.8846C50.3617 77.6388 50.2939 77.4492 50.0102 77.2643C49.7558 77.0985 49.3615 76.9806 49.0372 76.9589L48.9838 76.9561L48.9982 76.54Z" fill="#1E1C1C"/>
<path d="M28.5857 78.3212C28.5179 77.9139 27.9748 77.4387 27.4316 77.303C26.7531 77.303 27.0243 77.9139 27.4316 78.3212C27.8389 78.7286 28.6536 78.7286 28.5857 78.3212Z" fill="#020D2B"/>
<path d="M27.6958 77.6381L27.7101 78.0542C27.3847 78.0654 26.9702 78.1841 26.7083 78.3548C26.4327 78.5345 26.3673 78.7174 26.5203 78.9556C26.6641 79.1792 26.7982 79.1792 27.0303 78.9823C27.2277 78.815 27.4359 78.5327 27.6227 78.2117L27.6574 78.151L28.0199 78.3559C27.8022 78.7412 27.5557 79.0826 27.2996 79.2999C26.8941 79.6438 26.4679 79.644 26.1701 79.1807C25.8781 78.7264 26.0308 78.2995 26.481 78.0061C26.7943 77.8018 27.2519 77.6653 27.6384 77.6409L27.6958 77.6381Z" fill="#1E1C1C"/>
<path d="M48.0887 77.2338C48.1581 76.8174 48.7132 76.3317 49.2684 76.1929C49.962 76.1929 49.6847 76.8174 49.2684 77.2338C48.852 77.6501 48.0193 77.6501 48.0887 77.2338Z" fill="#020D2B"/>
<path d="M58.212 70.8198C57.5074 69.8215 56.0589 69.0336 55.4227 68.7645L51.0185 71.1867C51.41 71.3336 52.56 72.0089 54.028 73.5357C55.863 75.4441 56.4502 75.6644 57.3311 75.591C58.0359 75.5322 58.1141 74.8813 58.0651 74.5632C58.212 74.7101 58.6231 74.8862 59.0928 74.4166C59.68 73.8292 59.0928 72.0676 58.212 70.8198Z" fill="#F5D4A1"/>
<path d="M16.3749 71.0167C17.1847 70.0882 18.7175 69.4481 19.3827 69.2443L23.5409 72.1335C23.1335 72.2401 21.9113 72.7981 20.282 74.1777C18.2452 75.9022 17.6341 76.0621 16.7596 75.8968C16.06 75.7645 16.0495 75.1032 16.1316 74.789C15.9692 74.9211 15.5393 75.0551 15.1178 74.5348C14.5908 73.8844 15.3626 72.1775 16.3749 71.0167Z" fill="#F5D4A1"/>
<path d="M12.9961 54.5243C13.4071 49.6505 13.8525 40.015 14.0238 35.8066H61.295C61.4662 39.6969 61.8675 48.7402 62.1023 53.7903C62.396 60.1029 58.2121 76.7653 35.8243 75.0772C13.4365 73.3888 12.4823 60.6167 12.9961 54.5243Z" fill="#76CCDB"/>
<path d="M57.4413 55.5013C62.1134 55.5013 65.9009 51.7138 65.9009 47.0418C65.9009 42.3698 62.1134 38.5824 57.4413 38.5824C52.7694 38.5824 48.982 42.3698 48.982 47.0418C48.982 51.7138 52.7694 55.5013 57.4413 55.5013Z" fill="#EBBAAA"/>
<path d="M18.0344 55.9296C13.3625 55.9296 9.57504 52.1422 9.57504 47.4701C9.57504 42.7982 13.3625 39.0107 18.0344 39.0107C22.7065 39.0107 26.4939 42.7982 26.4939 47.4701C26.4939 52.1422 22.7065 55.9296 18.0344 55.9296Z" fill="#EBBAAA"/>
<path d="M15.2651 32.4575C15.2651 20.3569 25.0746 10.5476 37.1752 10.5476C49.2756 10.5476 59.085 20.3569 59.085 32.4575V42.8059L58.0212 55.3615C57.2685 64.2468 50.9006 71.6732 42.2439 73.8119C38.9254 74.6317 35.4423 74.6161 32.1328 73.7605C23.8912 71.63 17.8082 64.6504 16.824 56.1949L15.2651 42.8059V32.4575Z" fill="#F4D4C9"/>
<path d="M33.4671 39.4907L33.2137 38.2029C33.1663 37.962 32.9697 37.7786 32.7258 37.7483L26.5126 36.9747C26.4856 36.9713 26.4584 36.9719 26.4318 36.9765L23.031 37.554C22.8941 37.5771 22.7942 37.6957 22.7942 37.8343V39.4449C22.7942 39.6081 22.9312 39.7379 23.0941 39.7289L27.833 39.4692C27.8509 39.4682 27.8689 39.4691 27.8867 39.4715L32.8301 40.1638C33.2173 40.2181 33.5426 39.8744 33.4671 39.4907Z" fill="#393939"/>
<path d="M41.4875 39.4116L41.6929 38.2176C41.7345 37.9755 41.9269 37.7875 42.1697 37.7514L48.0974 36.8694C48.1242 36.8655 48.1514 36.8654 48.1782 36.8694L51.4441 37.3442C51.5813 37.3642 51.6842 37.4802 51.6875 37.6189L51.7237 39.143C51.7276 39.3061 51.5938 39.439 51.4306 39.434L46.8898 39.2936C46.8719 39.293 46.8539 39.2943 46.8363 39.2972L42.1403 40.0693C41.7544 40.1327 41.4211 39.797 41.4875 39.4116Z" fill="#393939"/>
<path d="M46.6306 42.6069C47.5504 42.6069 48.296 43.3526 48.296 44.2724C48.296 45.1778 47.5735 45.9144 46.6736 45.9372L46.6306 45.9378H44.0278C43.108 45.9378 42.3624 45.1921 42.3624 44.2724C42.3624 43.3669 43.0849 42.6303 43.9848 42.6075L44.0278 42.6069H46.6306Z" fill="black"/>
<path d="M30.4621 42.6069C31.3819 42.6069 32.1275 43.3526 32.1275 44.2724C32.1275 45.1778 31.405 45.9144 30.5051 45.9372L30.4621 45.9378H27.617C26.6972 45.9378 25.9516 45.1921 25.9516 44.2724C25.9516 43.3669 26.6741 42.6303 27.574 42.6075L27.617 42.6069H30.4621Z" fill="black"/>
<path d="M36.38 45.2876L38.491 46.484C37.6168 48.0266 36.9409 49.8181 36.8489 51.1342L36.843 51.2286C36.7737 52.5309 37.2218 53.0567 38.7007 53.0689L38.754 53.0691V55.4956C35.7089 55.4956 34.238 53.6855 34.4283 50.9649C34.5481 49.2518 35.3129 47.1978 36.3205 45.3934L36.38 45.2876Z" fill="#EBBAAA"/>
<path d="M52.265 24.9512C49.8312 22.1122 51.4232 18.5718 51.1283 16.0963C50.9194 14.3429 50.8977 13.8956 55.8822 17.5698C60.8668 21.2438 61.6142 29.3046 60.2581 36.1559L59.2602 43.9113H58.15L58.4969 39.6925C58.4969 39.6925 58.2887 38.5129 56.9009 37.125C55.513 35.7372 55.0274 28.1734 52.265 24.9512Z" fill="#6E6C6C"/>
<path d="M18.4482 29.7326C18.6541 25.9992 18.2334 26.1914 18.3707 23.7024C18.4679 21.9394 19.0755 22.3252 15.9281 25.558C14.1911 27.3422 14.3865 35.0467 14.7562 40.06L15.1957 44.6809H16.3564C16.3564 44.6809 16.219 42.942 16.3564 42.1093C16.4936 41.2766 17.486 40.5486 17.7426 38.9865C18.1098 36.7503 18.327 31.9307 18.4482 29.7326Z" fill="#6E6C6C"/>
<path d="M17.9025 15.3357C21.5799 12.0048 25.2013 11.0333 29.9762 11.0333C30.1483 13.7216 27.364 14.0468 28.2416 19.7074C29.3385 26.7832 31.6036 27.2354 29.0225 28.681C26.9577 29.8375 20.6087 34.0023 18.8738 35.9453C17.139 37.8883 17.139 38.3564 16.2369 38.5128C15.3348 38.6692 14.7103 38.0677 13.8776 36.5411C13.0448 35.0144 12.9414 34.9044 12.2812 31.6429C11.621 28.3815 12.5527 20.1812 17.9025 15.3357Z" fill="#272727"/>
<path d="M28.5883 35.3208C26.3678 35.4596 20.4729 37.2374 19.4979 36.2226C14.1548 24.4955 22.6374 12.117 27.5473 10.5476C42.7444 5.69008 54.8135 12.6893 58.219 17.8338C61.4804 22.7607 61.8968 33.3778 60.9253 34.5575C59.7295 36.0094 57.0715 36.9837 54.4718 36.2226C51.872 35.4614 46.7672 36.1579 44.6874 35.3208C43.0235 34.6509 37.1932 35.39 33.7928 35.3208C32.0449 35.2851 31.9744 28.2501 30.6007 28.2427C28.7965 28.233 29.6675 35.2533 28.5883 35.3208Z" fill="#272727"/>
<path d="M40.9522 59.2565C41.4984 59.033 42.1223 59.2947 42.3458 59.8409C42.5693 60.3871 42.3076 61.0111 41.7614 61.2346C38.2993 62.6509 35.0906 62.69 32.3719 61.1796C31.856 60.893 31.6701 60.2425 31.9568 59.7266C32.2434 59.2107 32.8939 59.0248 33.4098 59.3114C35.5056 60.4757 38.0476 60.4447 40.9522 59.2565Z" fill="#C99584"/>
<path fill-rule="evenodd" clip-rule="evenodd" d="M39.5009 41.5873C41.4226 40.8816 43.876 40.3579 46.795 40.2337L46.9519 40.2274C49.7668 40.1197 52.1144 40.3572 53.95 40.7799C54.6735 40.9464 55.1763 41.5796 55.2149 42.3318C55.3071 44.1286 55.3711 45.7372 55.3785 46.785L55.3792 46.9787C55.3792 47.9381 55.1655 49.0064 54.828 50.0782C54.608 50.7775 53.9528 51.2387 53.209 51.2463L41.9919 51.3592C41.3487 51.3656 40.7571 51.0309 40.4553 50.4725C39.7536 49.1739 39.192 47.818 38.9523 46.5701C38.7464 45.498 38.5822 44.3882 38.4569 43.3286C38.3668 42.5657 38.7869 41.8496 39.5009 41.5873ZM54.3833 42.3744C54.3633 41.9851 54.115 41.6724 53.7631 41.5914C51.9646 41.1772 49.6383 40.9462 46.8304 41.0657C44.0014 41.186 41.632 41.6918 39.788 42.3689C39.4424 42.4959 39.2382 42.8441 39.2839 43.2309C39.407 44.272 39.5683 45.3627 39.7701 46.413C39.9904 47.5603 40.5231 48.8464 41.1879 50.0766C41.34 50.3581 41.6437 50.5299 41.9836 50.5266L53.2006 50.4137C53.5918 50.4097 53.9245 50.1755 54.0337 49.8282C54.348 48.8302 54.5465 47.8378 54.5465 46.9787C54.5465 46.0424 54.4907 44.5374 54.406 42.8255L54.3833 42.3744Z" fill="black"/>
<path d="M34.9565 42.4999C36.0732 41.9581 37.7293 41.8199 39.1261 42.4669L39.1957 42.4999L38.59 43.7486C37.6223 43.2791 36.3936 43.3654 35.6089 43.7265L35.5624 43.7485L34.9565 42.4999Z" fill="black"/>
<path fill-rule="evenodd" clip-rule="evenodd" d="M18.563 42.6229C18.5842 41.911 19.0282 41.2969 19.6993 41.0913C21.7307 40.4694 24.3184 40.1279 27.3615 40.3388C30.3289 40.5445 32.8115 41.1373 34.7465 41.8968C35.4595 42.1765 35.8657 42.9085 35.7536 43.6734C35.5989 44.7282 35.404 45.8294 35.1679 46.8923C34.8912 48.1379 34.2823 49.4821 33.5326 50.7634C33.215 51.306 32.6201 51.6194 31.983 51.5965L20.8666 51.1987C20.1412 51.1729 19.508 50.7166 19.2842 50.0355C18.9273 48.9494 18.6696 47.8453 18.5948 46.8327C18.5213 45.8382 18.5155 44.4892 18.552 43.0249L18.563 42.6229ZM34.4423 42.672C32.5832 41.9422 30.1829 41.3691 27.3039 41.1695L27.1524 41.1595C24.2822 40.9774 21.8477 41.3044 19.9431 41.8876C19.6218 41.986 19.4061 42.2841 19.3954 42.6476C19.3507 44.1525 19.348 45.5623 19.4133 46.5976L19.4252 46.7713C19.4942 47.7049 19.7377 48.7482 20.0753 49.7755C20.1881 50.1188 20.513 50.3529 20.8963 50.3666L32.0129 50.7643C32.3493 50.7764 32.6541 50.6158 32.8139 50.3428C33.5237 49.1298 34.1009 47.8554 34.355 46.7117C34.5863 45.6708 34.7777 44.5888 34.9297 43.5526C34.9866 43.1646 34.7886 42.8078 34.4423 42.672Z" fill="black"/>
<path d="M10.3518 40.222C11.7123 39.4182 13.6501 39.4233 14.4489 39.5263C15.4538 40.0674 14.7581 42.6184 14.217 43.0822C13.6758 43.5461 10.661 45.1694 9.50146 44.7829C8.34192 44.3964 9.34685 43.3142 9.03765 43.3915C8.72844 43.4688 8.18732 43.0822 8.18732 42.6184C8.18732 42.1546 8.65114 41.227 10.3518 40.222Z" fill="#EFD19F"/>
<path d="M64.3402 39.055C62.9737 38.2439 61.0272 38.249 60.2249 38.3531C59.2155 38.899 59.9143 41.4726 60.4579 41.9406C61.0014 42.4084 64.0296 44.0462 65.1942 43.6562C66.3591 43.2664 65.3495 42.1744 65.6601 42.2524C65.9707 42.3304 66.5144 41.9406 66.5144 41.4726C66.5144 41.0046 66.0485 40.0688 64.3402 39.055Z" fill="#EFD19F"/>
<path d="M60.6821 42.8846C59.8319 43.3609 56.0532 31.3961 36.9596 31.7053C17.8658 32.0145 14.9216 44.6794 14.1194 44.2725C13.3172 43.8656 11.1096 31.2569 11.2951 23.5885C11.527 14.0029 13.5368 0.474937 36.9596 0.0111198C60.3822 -0.452696 62.0057 13.6937 62.083 23.5885C62.1449 31.5042 61.5325 42.4083 60.6821 42.8846Z" fill="#76CCDB"/>
<path d="M33.7901 28.6133C32.5532 27.7474 32.6563 25.1088 32.8624 23.8978L36.496 22.5063V27.0672C36.496 28.0722 35.3361 29.6956 33.7901 28.6133Z" fill="#F5F6F8"/>
<path d="M37.269 28.9225C36.0322 28.0566 36.3679 23.7174 36.574 22.5063H40.1008V27.0672C40.1008 28.9225 38.815 30.0048 37.269 28.9225Z" fill="#F5F6F8"/>
<path d="M30.7755 21.7331C30.9301 19.9551 33.8676 18.8728 36.3414 18.7955C39.82 18.7955 41.2113 19.7232 42.4482 20.8054C43.685 21.8877 43.8396 23.9747 41.7524 24.3612C39.6653 24.7478 38.3511 23.4336 36.8823 23.3563C35.4136 23.279 34.0996 24.3612 32.8627 24.3612C31.6258 24.3612 30.6209 23.5109 30.7755 21.7331Z" fill="#F6D59F"/>
<path d="M33.2493 19.1048C33.172 18.0998 34.0997 16.4765 36.5734 16.3992C39.511 16.3992 40.2064 17.7133 40.2064 18.5637C40.2064 19.414 39.356 20.6509 36.8825 20.7282C34.4087 20.8055 33.3266 20.1097 33.2493 19.1048Z" fill="black"/>
<path d="M37.8111 11.8385C37.5019 7.81877 41.5213 3.64441 46.469 4.03092C51.4166 4.41743 53.1942 6.96843 53.658 10.2924C54.1218 13.6165 53.1942 17.327 47.4737 18.4865C41.7533 19.6461 38.1203 15.8582 37.8111 11.8385Z" fill="#F5F6F8"/>
<path d="M39.5107 11.7612C39.5107 10.9882 40.2064 9.44217 41.8298 9.36487C43.8396 9.36487 44.3035 11.2201 44.3035 11.7612C44.3035 12.3024 43.9169 14.3895 41.8298 14.3895C39.7426 14.3895 39.5107 12.5343 39.5107 11.7612Z" fill="black"/>
<path d="M18.269 12.5592C17.9598 8.53946 21.9793 4.36511 26.927 4.75162C31.8745 5.13814 33.6521 7.68914 34.1159 11.0132C34.5797 14.3372 33.6521 18.0478 27.9317 19.2073C22.2112 20.3669 18.5782 16.579 18.269 12.5592Z" fill="#F5F6F8"/>
<path d="M19.9689 12.4816C19.9689 11.7086 20.6646 10.1625 22.288 10.0852C24.2977 10.0852 24.7615 11.9405 24.7615 12.4816C24.7615 13.0227 24.375 15.1099 22.288 15.1099C20.2008 15.1099 19.9689 13.2546 19.9689 12.4816Z" fill="black"/>
<path d="M62.2375 4.26276C59.1455 1.72722 55.7957 4.18545 54.5073 5.73151L57.9087 13.771C58.424 14.1318 60.0113 14.544 62.2375 13.3072C65.0204 11.7611 66.1027 7.43218 62.2375 4.26276Z" fill="#76CCDB"/>
<path d="M59.6671 6.84377C58.4999 5.87894 57.2354 6.81437 56.7491 7.40269L58.033 10.4619C58.2275 10.5992 58.8266 10.7561 59.6671 10.2854C60.7176 9.69713 61.126 8.04983 59.6671 6.84377Z" fill="black"/>
<path d="M10.6248 5.51249C13.7995 2.97531 17.2388 5.43514 18.5615 6.98219L15.0694 15.0269C14.5402 15.3879 12.9106 15.8005 10.6248 14.5628C7.76751 13.0157 6.65635 8.68396 10.6248 5.51249Z" fill="#76CCDB"/>
<path d="M13.208 8.0806C14.4218 7.11575 15.7368 8.05118 16.2427 8.6395L14.9073 11.6987C14.7051 11.836 14.0819 11.9929 13.208 11.5223C12.1155 10.9339 11.6906 9.28664 13.208 8.0806Z" fill="black"/>
</svg>
