<svg width="174" height="207" viewBox="0 0 174 207" fill="none" xmlns="http://www.w3.org/2000/svg">
<path d="M34.3713 135.94C42.6895 135.94 49.4328 131.964 49.4328 127.058C49.4328 122.152 42.6895 118.176 34.3713 118.176C26.053 118.176 19.3097 122.152 19.3097 127.058C19.3097 131.964 26.053 135.94 34.3713 135.94Z" fill="#3D3D3D"/>
<path d="M44.0261 159.884C46.1377 159.884 47.8534 161.616 47.8875 163.764L47.8881 163.83V188.379C47.8881 190.558 46.159 192.325 44.0261 192.325C41.9146 192.325 40.1988 190.593 40.1647 188.445L40.1642 188.379V163.83C40.1642 161.651 41.8932 159.884 44.0261 159.884Z" fill="#6E5243"/>
<path d="M23.7616 159.908C26.005 159.675 28.0247 161.198 28.3052 163.321L28.3132 163.386L30.8707 185.653C31.1184 187.809 29.4821 189.748 27.216 189.984C24.9726 190.217 22.9529 188.694 22.6724 186.571L22.6644 186.506L20.1069 164.239C19.8592 162.083 21.4955 160.144 23.7616 159.908Z" fill="#6E5243"/>
<path d="M13.903 124.355H33.2127L32.4975 177.356L31.3532 181.511L20.4111 180.922L15.6328 175.638L13.903 124.355Z" fill="#3D3D3D"/>
<path d="M24.2147 176.105C24.4825 176.105 24.7014 176.306 24.7157 176.56L24.7164 176.587V181.028C24.7164 181.478 24.1366 181.679 23.8368 181.346L23.8201 181.326L20.1893 176.885C20.0181 176.675 20.056 176.372 20.2739 176.208C20.4842 176.049 20.7856 176.077 20.9602 176.268L20.9784 176.289L23.7129 179.634L23.7129 176.587C23.7129 176.329 23.9228 176.119 24.1871 176.105L24.2147 176.105Z" fill="#272727"/>
<path d="M33.2127 125.127H54.7216L54.8396 177.218L50.8515 180.309L39.3177 182.284L38.2438 177.218L33.2127 125.127Z" fill="#3D3D3D"/>
<path opacity="0.2" fill-rule="evenodd" clip-rule="evenodd" d="M16.2202 132.851L20.6002 121.265L23.1716 122.167L18.7916 132.851H16.2202Z" fill="white"/>
<path opacity="0.2" fill-rule="evenodd" clip-rule="evenodd" d="M52.5224 132.851L48.629 121.265L46.3433 122.167L50.2366 132.851H52.5224Z" fill="white"/>
<path d="M48.8351 177.061C49.0198 176.852 49.3601 176.816 49.5951 176.98C49.8221 177.139 49.8681 177.427 49.7047 177.635L49.6864 177.657L47.5575 180.069L50.1602 178.696C50.4085 178.565 50.7266 178.631 50.8855 178.841L50.9019 178.864C51.0491 179.086 50.975 179.369 50.7383 179.51L50.7123 179.525L45.6204 182.212C45.113 182.48 44.5659 181.937 44.902 181.52L44.9187 181.5L48.8351 177.061Z" fill="#272727"/>
<path d="M18.8347 179.194H31.6968L32.4403 180.407L31.6968 182.843L28.7229 183.828H19.9499L19.4295 182.843L19.7269 181.472L18.5373 181.168L18.8347 179.194Z" fill="black"/>
<path d="M38.5162 179.194L51.75 179.431L50.6348 181.989L50.8579 183.349L47.6609 183.828H44.2409L37.847 183.029L38.5162 179.194Z" fill="black"/>
<path d="M32.7313 185.482C32.1175 184.275 30.7368 184.566 30.1231 184.86L30.2765 185.571C30.5322 185.63 31.1817 185.748 31.4271 186.103C31.734 186.546 31.5038 187.434 31.734 187.611C31.9641 187.789 32.5778 187.611 32.8847 187.611C33.1914 187.611 33.4983 186.99 32.7313 185.482Z" fill="black"/>
<path d="M5.48319 203.882C5.31656 203.457 5.34525 202.536 6.37263 202.111C7.40002 201.686 19.5238 203.882 19.5238 203.882C22.6448 203.618 31.0273 199.386 34.1134 201.33C35.0899 201.945 34.759 203.894 34.3985 205.717C33.8217 206.326 27.9873 206.857 26.0956 206.402C26.0956 205.338 25.9483 204.655 25.9483 204.655C25.9483 204.655 24.8023 205.42 23.5651 205.717C21.0419 206.326 20.4897 207 12.6743 207C6.40601 206.391 5.95517 205.086 5.48319 203.882Z" fill="#383129"/>
<path fill-rule="evenodd" clip-rule="evenodd" d="M33.985 202.479C33.7759 202.628 33.5335 202.747 33.2289 202.849L33.1858 202.718C33.4782 202.62 33.7086 202.507 33.906 202.366L33.985 202.479ZM6.79748 203.443C6.53566 203.243 6.32426 203.048 6.17908 202.875L6.2834 202.786C6.42142 202.951 6.62557 203.138 6.8799 203.333L6.79748 203.443ZM8.2114 204.304C7.95594 204.178 7.7127 204.045 7.48508 203.907L7.55523 203.789C7.77957 203.924 8.01945 204.056 8.27152 204.18L8.2114 204.304ZM8.9659 204.642C9.21881 204.745 9.47819 204.839 9.74271 204.924L9.78418 204.792C9.52281 204.708 9.26653 204.615 9.01666 204.514L8.9659 204.642ZM11.3489 205.313C11.0769 205.268 10.807 205.213 10.5399 205.148L10.5718 205.014C10.8357 205.078 11.1023 205.132 11.371 205.177L11.3489 205.313ZM12.1704 205.417C12.4447 205.44 12.7198 205.453 12.9951 205.455L12.996 205.317C12.7243 205.315 12.4529 205.302 12.1821 205.279L12.1704 205.417ZM14.638 205.431C14.3663 205.44 14.0925 205.446 13.8166 205.45L13.8146 205.312C14.0898 205.308 14.3628 205.301 14.6337 205.293L14.638 205.431ZM15.4583 205.398C15.7343 205.384 16.0077 205.368 16.2785 205.35L16.2694 205.212C15.9995 205.23 15.7269 205.246 15.4516 205.26L15.4583 205.398ZM17.9155 205.209C17.6463 205.237 17.3737 205.264 17.0977 205.287L17.0861 205.15C17.3612 205.126 17.633 205.1 17.9013 205.072L17.9155 205.209ZM18.7327 205.114C19.0085 205.079 19.28 205.042 19.5468 205.002L19.5268 204.865C19.261 204.905 18.9905 204.942 18.7157 204.977L18.7327 205.114ZM21.1663 204.72C20.9034 204.773 20.6338 204.823 20.3579 204.871L20.3348 204.735C20.6095 204.687 20.878 204.637 21.1397 204.585L21.1663 204.72ZM21.971 204.548C22.2477 204.484 22.5143 204.418 22.7698 204.35L22.735 204.216C22.4809 204.284 22.2158 204.349 21.9406 204.413L21.971 204.548ZM24.3489 203.891L23.5615 204.124L23.5233 203.991L24.3103 203.759L24.3489 203.891ZM25.1355 203.656L25.6787 203.491C25.7631 203.466 25.8441 203.441 25.9214 203.417L25.8818 203.285L25.0965 203.523L25.1355 203.656ZM26.69 203.263L26.7003 203.125C26.8873 203.139 27.0906 203.153 27.3026 203.165L27.5172 203.177L27.5101 203.315C27.2924 203.304 27.0808 203.291 26.883 203.277L26.69 203.263ZM28.3309 203.35C28.6112 203.359 28.8864 203.364 29.1527 203.366L29.1536 203.228C28.8884 203.226 28.6143 203.22 28.3351 203.212L28.3309 203.35ZM30.7983 203.315C30.5485 203.335 30.2732 203.35 29.9755 203.358L29.9718 203.22C30.2671 203.212 30.54 203.198 30.7871 203.177L30.7983 203.315ZM31.5953 203.072L31.6177 203.208L31.8654 203.166C32.0755 203.129 32.2601 203.094 32.4272 203.059L32.3994 202.923L32.2717 202.949C32.0749 202.989 31.8533 203.029 31.5953 203.072Z" fill="#67513B"/>
<path d="M23.6616 184.741C24.3273 184.741 28.2122 186.763 30.2279 185.195C30.4494 185.023 30.9003 185.165 30.9006 185.443C30.9042 188.137 30.9445 192.82 31.3515 194.678C31.7827 196.647 32.1467 196.365 32.5778 198.192C32.8764 199.458 33.8433 202.41 32.5778 202.41H26.8067C25.4414 202.41 23.5972 203.982 19.0503 204.424C11.5024 205.156 9.65798 204.153 8.15092 203.679C4.72187 202.601 6.46204 200.135 8.15091 199.346C10.625 198.192 14.1707 197.325 15.9743 196.37C17.3787 195.624 17.861 195.392 18.5821 194.609C19.7709 193.318 20.8153 186.523 20.9766 184.749C20.9878 184.625 21.1629 184.562 21.2691 184.627C21.9725 185.056 23.0015 184.741 23.6616 184.741Z" fill="#6C3F2E"/>
<path d="M8.51652 201.931C8.5915 201.68 8.85283 201.538 9.10022 201.614C11.1293 202.239 12.6325 202.403 14.8836 201.924C15.1366 201.87 15.3847 202.034 15.4377 202.291C15.4907 202.548 15.3286 202.8 15.0756 202.854C13.7184 203.143 12.4838 203.202 11.3159 203.074C10.4573 202.98 9.79769 202.822 8.8287 202.524C8.58131 202.448 8.44154 202.182 8.51652 201.931Z" fill="white"/>
<path d="M17.765 199.316C19.0974 198.048 23.9567 195.217 23.6165 184.601C24.1939 184.601 25.5897 185.376 27.699 185.516C29.9143 185.447 29.8778 185.24 30.4644 184.898C30.4803 184.887 30.4988 184.874 30.5139 184.863C31.4338 184.222 31.0202 194.458 31.6805 196.273C32.2134 197.737 33.2127 199.935 33.2127 202.61C32.7464 203.455 28.1494 203.033 26.6836 203.033C25.998 199.245 20.6226 202.132 19.466 201.781C18.4506 201.472 17.765 200.865 17.765 199.316Z" fill="#3A1719"/>
<path d="M19.3985 194.71C20.9584 193.501 21.5574 187.622 21.6269 184.807C21.3483 184.739 21.2787 184.546 21.0698 184.616C20.861 184.685 20.861 185.509 20.7913 186.195C20.715 186.947 20.1644 189.285 19.8859 190.865C19.6073 192.443 19.3288 193.405 18.2842 194.71C17.4484 195.754 14.1752 196.825 13.1306 197.717C13.2467 197.695 13.5485 197.539 13.827 197.595C14.1752 197.662 14.1056 197.731 14.5235 197.731C14.9413 197.731 17.4484 196.221 19.3985 194.71Z" fill="#1D1D20"/>
<path d="M20.9785 185.603C21.039 185.434 21.2293 185.34 21.4116 185.384L21.4354 185.391L24.4693 186.33C24.7974 186.432 24.7963 186.857 24.4808 186.963L24.4546 186.971L22.2981 187.545L24.0148 188.365C24.3132 188.508 24.2574 188.914 23.9411 188.989L23.9156 188.994L22.0436 189.318L23.9825 190.031C24.2894 190.144 24.2834 190.544 23.9857 190.654L23.9594 190.663L21.434 191.412L23.6438 192.39C23.9627 192.532 23.8943 192.966 23.5567 193.023L23.5315 193.027L20.8138 193.33L22.6937 194.64C22.9648 194.829 22.8309 195.225 22.5015 195.244L22.477 195.245L19.6103 195.245L21.573 197.019C21.8279 197.249 21.6089 197.642 21.267 197.592L21.244 197.588L17.5404 196.834L19.0141 198.743C19.2285 199.02 18.9126 199.378 18.5828 199.249L18.5617 199.24L14.8776 197.561C14.6985 197.48 14.6245 197.278 14.7123 197.112C14.7963 196.953 14.9979 196.883 15.172 196.948L15.1956 196.958L17.5892 198.049L16.4047 196.515C16.2163 196.271 16.4408 195.941 16.7524 195.987L16.7754 195.991L20.1617 196.68L18.4689 195.15C18.2424 194.945 18.3885 194.592 18.6961 194.574L18.7207 194.573L21.3932 194.573L19.6598 193.365C19.4061 193.188 19.5045 192.819 19.8084 192.767L19.8335 192.763L22.2075 192.498L20.2991 191.653C20.012 191.526 20.0314 191.145 20.3187 191.039L20.3447 191.03L22.7755 190.309L20.6105 189.513C20.2816 189.392 20.3189 188.954 20.6519 188.876L20.6774 188.871L22.7443 188.513L21.1561 187.754C20.873 187.619 20.9051 187.238 21.1963 187.14L21.2219 187.133L23.1336 186.624L21.2071 186.028C21.0257 185.972 20.9242 185.795 20.9715 185.625L20.9785 185.603Z" fill="black"/>
<path d="M37.5561 185.482C38.1698 184.275 39.5504 184.566 40.1642 184.86L40.0107 185.571C39.755 185.63 39.1055 185.748 38.8601 186.103C38.5532 186.546 38.7834 187.434 38.5532 187.611C38.3231 187.789 37.7095 187.611 37.4026 187.611C37.0959 187.611 36.789 186.99 37.5561 185.482Z" fill="black"/>
<path d="M65.5765 203.882C65.7432 203.457 65.7144 202.536 64.687 202.111C63.6597 201.686 51.536 203.882 51.536 203.882C48.415 203.618 40.0324 199.386 36.9463 201.33C35.9698 201.945 36.3007 203.894 36.6612 205.717C37.238 206.326 43.0724 206.857 44.9641 206.402C44.9641 205.338 45.1114 204.655 45.1114 204.655C45.1114 204.655 46.2575 205.42 47.4946 205.717C50.0179 206.326 50.57 207 58.3854 207C64.6537 206.391 65.1045 205.086 65.5765 203.882Z" fill="#383129"/>
<path fill-rule="evenodd" clip-rule="evenodd" d="M37.1536 202.366C37.3511 202.507 37.5815 202.62 37.8739 202.718L37.8307 202.849C37.5262 202.747 37.2838 202.628 37.0746 202.479L37.1536 202.366ZM64.1798 203.333C64.4341 203.138 64.6383 202.951 64.7763 202.786L64.8806 202.875C64.7354 203.048 64.524 203.243 64.2622 203.443L64.1798 203.333ZM62.7882 204.18C63.0402 204.056 63.2801 203.924 63.5045 203.789L63.5746 203.907C63.347 204.045 63.1037 204.178 62.8483 204.304L62.7882 204.18ZM62.043 204.514C61.7932 204.615 61.5369 204.708 61.2755 204.792L61.317 204.924C61.5815 204.839 61.8409 204.744 62.0938 204.642L62.043 204.514ZM59.6887 205.177C59.9573 205.132 60.2239 205.078 60.4878 205.014L60.5198 205.148C60.2526 205.213 59.9827 205.268 59.7107 205.313L59.6887 205.177ZM58.8776 205.279C58.6068 205.302 58.3353 205.315 58.0637 205.317L58.0646 205.455C58.3399 205.453 58.6149 205.44 58.8893 205.417L58.8776 205.279ZM56.4259 205.293C56.6968 205.301 56.9699 205.308 57.245 205.312L57.243 205.45C56.9671 205.446 56.6933 205.44 56.4216 205.431L56.4259 205.293ZM55.608 205.26C55.3328 205.246 55.0601 205.23 54.7902 205.212L54.7811 205.35C55.0519 205.368 55.3253 205.384 55.6013 205.398L55.608 205.26ZM53.1583 205.072C53.4266 205.1 53.6984 205.126 53.9735 205.15L53.9619 205.287C53.6859 205.264 53.4133 205.237 53.1441 205.209L53.1583 205.072ZM52.3439 204.977C52.0691 204.942 51.7986 204.905 51.5328 204.865L51.5128 205.002C51.7797 205.042 52.0511 205.079 52.3269 205.114L52.3439 204.977ZM49.9199 204.585C50.1816 204.637 50.4501 204.687 50.7248 204.735L50.7017 204.871C50.4258 204.823 50.1562 204.773 49.8933 204.72L49.9199 204.585ZM49.119 204.413C48.8438 204.349 48.5786 204.284 48.3246 204.216L48.2898 204.35C48.5453 204.418 48.8119 204.484 49.0886 204.548L49.119 204.413ZM46.7493 203.758L47.5363 203.991L47.4981 204.124L46.7107 203.891L46.7493 203.758ZM45.9631 203.523L45.1779 203.285L45.1382 203.417L45.9241 203.656L45.9631 203.523ZM44.3593 203.125L44.3696 203.263C44.1818 203.277 43.9777 203.291 43.7649 203.303L43.5496 203.315L43.5424 203.177C43.7593 203.166 43.9701 203.153 44.1672 203.139L44.3593 203.125ZM42.7242 203.212C42.445 203.22 42.1709 203.226 41.9058 203.228L41.9066 203.366C42.1729 203.364 42.4482 203.359 42.7284 203.35L42.7242 203.212ZM40.2724 203.177C40.5196 203.198 40.7925 203.212 41.0878 203.22L41.0841 203.358C40.7864 203.35 40.5111 203.335 40.2612 203.315L40.2724 203.177ZM39.4419 203.208L39.4642 203.072L39.2975 203.044C39.0552 203.002 38.8466 202.962 38.6602 202.923L38.6324 203.059L38.7612 203.085C38.9595 203.125 39.1826 203.165 39.4419 203.208Z" fill="#67513B"/>
<path d="M47.3982 184.741C46.7324 184.741 42.8476 186.763 40.8318 185.195C40.6103 185.023 40.1595 185.165 40.1592 185.443C40.1555 188.137 40.1153 192.82 39.7081 194.678C39.277 196.647 38.913 196.365 38.4818 198.192C38.1833 199.458 37.2165 202.41 38.4818 202.41H44.253C45.6184 202.41 47.4625 203.982 52.0095 204.424C59.5573 205.156 61.4018 204.153 62.9087 203.679C66.3378 202.601 64.5977 200.135 62.9087 199.346C60.4348 198.192 56.8889 197.325 55.0854 196.37C53.681 195.624 53.1987 195.392 52.4776 194.609C51.2888 193.318 50.2445 186.523 50.0831 184.749C50.072 184.625 49.8969 184.562 49.7905 184.627C49.0873 185.056 48.0583 184.741 47.3982 184.741Z" fill="#6C3F2E"/>
<path d="M61.1871 201.614C61.4345 201.538 61.6958 201.68 61.7708 201.931C61.8458 202.182 61.706 202.448 61.4586 202.524L61.2402 202.59C60.3869 202.846 59.7639 202.988 58.9713 203.074C57.8034 203.202 56.5689 203.143 55.2117 202.854C54.9587 202.8 54.7966 202.548 54.8496 202.291C54.9026 202.034 55.1507 201.87 55.4037 201.924C57.6548 202.403 59.1579 202.239 61.1871 201.614Z" fill="white"/>
<path d="M53.2948 199.316C51.8956 198.048 46.7933 195.217 47.1505 184.601C46.5443 184.601 45.0787 185.376 42.864 185.516C40.5381 185.447 40.5762 185.24 39.9604 184.898C39.9437 184.887 39.9242 184.874 39.9083 184.863C38.9424 184.222 39.3768 194.458 38.6835 196.273C38.1239 197.737 37.0746 199.935 37.0746 202.61C37.5642 203.455 42.3911 203.033 43.9301 203.033C44.65 199.245 50.2941 202.132 51.5086 201.781C52.5747 201.472 53.2948 200.865 53.2948 199.316Z" fill="#3A1719"/>
<path d="M51.4587 194.71C50.0406 193.501 49.4961 187.622 49.4329 184.807C49.6861 184.739 49.7494 184.546 49.9393 184.616C50.1293 184.685 50.1293 185.509 50.1925 186.195C50.2618 186.947 50.7624 189.285 51.0156 190.865C51.2688 192.443 51.522 193.405 52.4717 194.71C53.2315 195.754 56.2071 196.825 57.1567 197.717C57.0512 197.695 56.7769 197.539 56.5236 197.595C56.2071 197.662 56.2704 197.731 55.8905 197.731C55.5107 197.731 53.2315 196.221 51.4587 194.71Z" fill="#1D1D20"/>
<path d="M49.3719 185.391C49.5466 185.332 49.7354 185.427 49.7936 185.603C49.8493 185.772 49.7649 185.953 49.604 186.02L49.5826 186.028L47.8041 186.624L49.569 187.133C49.8514 187.214 49.8961 187.593 49.6514 187.742L49.6297 187.754L48.1635 188.513L50.0716 188.871C50.3925 188.931 50.4422 189.367 50.1554 189.503L50.1333 189.513L48.1348 190.309L50.3788 191.03C50.6585 191.12 50.6919 191.5 50.4435 191.641L50.4209 191.653L48.6592 192.498L50.8506 192.763C51.1413 192.798 51.2459 193.163 51.0291 193.35L51.0109 193.365L49.4107 194.573L51.8778 194.573C52.1694 194.573 52.3171 194.921 52.126 195.133L52.1102 195.15L50.5474 196.68L53.6736 195.991C53.965 195.927 54.1833 196.249 54.0278 196.497L54.0157 196.515L52.9222 198.049L55.1317 196.958C55.2898 196.88 55.4795 196.94 55.5666 197.091L55.5778 197.112C55.6553 197.271 55.5962 197.462 55.4462 197.55L55.4252 197.561L52.0245 199.24C51.7197 199.391 51.4176 199.041 51.5949 198.761L51.6069 198.743L52.9672 196.834L49.5486 197.588C49.228 197.658 49.0138 197.272 49.2298 197.035L49.2448 197.019L51.0564 195.245L48.4104 195.245C48.0976 195.245 47.9606 194.853 48.1927 194.655L48.2104 194.64L49.9455 193.33L47.4372 193.027C47.1134 192.988 47.0356 192.556 47.3126 192.401L47.3335 192.39L49.3731 191.412L47.0421 190.663C46.7519 190.57 46.7305 190.17 46.9973 190.041L47.0208 190.031L48.8106 189.318L47.0826 188.994C46.7781 188.937 46.7117 188.533 46.97 188.377L46.991 188.365L48.5753 187.545L46.585 186.971C46.2781 186.883 46.261 186.458 46.5474 186.339L46.5713 186.33L49.3719 185.391Z" fill="black"/>
<path fill-rule="evenodd" clip-rule="evenodd" d="M40.5635 65.8613C40.5659 65.8619 40.5571 65.8785 40.53 65.9095C40.5476 65.8761 40.5611 65.8607 40.5635 65.8613ZM39.8008 66.4224C39.7662 66.4036 39.7302 66.3845 39.6927 66.365C38.5524 65.7715 36.6784 65.2756 34.3714 65.2756C32.0645 65.2756 30.1905 65.7715 29.0502 66.365C29.0127 66.3845 28.9767 66.4036 28.9421 66.4224C28.9767 66.4411 29.0127 66.4602 29.0502 66.4797C30.1905 67.0732 32.0645 67.5691 34.3714 67.5691C36.6784 67.5691 38.5524 67.0732 39.6927 66.4797C39.7302 66.4602 39.7662 66.4411 39.8008 66.4224ZM28.1794 65.8613C28.1818 65.8607 28.1952 65.8761 28.2129 65.9095C28.1858 65.8785 28.177 65.8619 28.1794 65.8613ZM28.1794 66.9834C28.177 66.9828 28.1858 66.9662 28.2129 66.9352C28.1952 66.9686 28.1818 66.984 28.1794 66.9834ZM40.53 66.9352C40.5571 66.9662 40.5659 66.9828 40.5635 66.9834C40.5611 66.984 40.5476 66.9686 40.53 66.9352ZM34.3714 71.826C46.0707 71.9738 44.7543 69.4068 44.7543 66.4224C44.7543 63.4379 40.1057 61.0187 34.3714 61.0187C28.6371 61.0187 23.9886 63.4379 23.9886 66.4224C23.9886 69.4068 22.6722 71.6782 34.3714 71.826Z" fill="black"/>
<path opacity="0.5" d="M52.1364 49.4329C55.3358 49.4329 57.9293 46.8394 57.9293 43.64C57.9293 40.4407 55.3358 37.847 52.1364 37.847C48.9371 37.847 46.3435 40.4407 46.3435 43.64C46.3435 46.8394 48.9371 49.4329 52.1364 49.4329Z" fill="#C99584"/>
<path d="M14.6756 50.9776C11.2629 50.9776 8.49646 45.5486 8.49646 40.6428C8.49646 35.7373 11.2629 33.2126 14.6756 33.2126C18.0881 33.2126 20.8547 37.1895 20.8547 42.0951C20.8547 47.0008 18.0881 50.9776 14.6756 50.9776Z" fill="#7B5B4A"/>
<path d="M53.6812 50.9776C56.8804 50.9776 59.4741 45.5486 59.4741 40.6428C59.4741 35.7373 56.8804 33.2126 53.6812 33.2126C50.4819 33.2126 47.8882 37.1895 47.8882 42.0951C47.8882 47.0008 50.4819 50.9776 53.6812 50.9776Z" fill="#7B5B4A"/>
<path d="M13.1549 28.7918C12.5885 16.9016 22.0785 6.95154 33.9853 6.95154C45.8921 6.95154 55.3821 16.9016 54.8156 28.7918L53.8516 49.0323C53.3466 59.634 44.6018 67.9702 33.9853 67.9702C23.3688 67.9702 14.624 59.634 14.119 49.0323L13.1549 28.7918Z" fill="#8D6956"/>
<path d="M11.7597 26.4936C12.3882 21.11 12.0846 21.7927 14.8155 16.0402C17.5461 10.2877 19.9584 14.4218 17.5461 16.8997C15.134 19.3775 14.8155 23.609 14.8155 23.609L13.4025 39.6936C13.3782 39.961 13.1639 40.1642 12.9082 40.1642C12.6411 40.1642 12.4225 39.9446 12.4111 39.6666C12.4111 39.6666 11.1311 31.8773 11.7597 26.4936Z" fill="#281515"/>
<path d="M55.4385 25.7212C54.8099 20.3375 55.1134 21.0202 52.3827 15.2678C49.6519 9.51518 47.2398 13.6493 49.6519 16.1272C52.0642 18.6051 52.3827 22.8366 52.3827 22.8366L53.7956 38.921C53.8199 39.1884 54.0342 39.3917 54.2899 39.3917C54.5571 39.3917 54.7756 39.1721 54.7871 38.8941C54.7871 38.8941 56.067 31.1048 55.4385 25.7212Z" fill="#281515"/>
<path d="M19.9481 31.4226C19.3485 31.8302 18.5081 31.7196 18.0523 31.1662C17.5877 30.6021 17.6986 29.7916 18.3001 29.3559C18.4033 29.2811 18.5654 29.1786 18.7869 29.0589C19.1263 28.8755 19.5257 28.6961 19.9855 28.5314C21.4248 28.0156 23.1625 27.7402 25.1915 27.8193C26.9212 27.8867 28.307 28.0923 29.3892 28.4005C30.2916 28.6575 30.873 28.9494 31.1926 29.2089C31.7672 29.6754 31.8298 30.4904 31.3325 31.0293C30.8542 31.5475 30.0324 31.6217 29.459 31.2119L29.4417 31.1991L29.4107 31.1811C29.4003 31.1754 29.3883 31.1689 29.3747 31.1619L29.3529 31.1508C29.1778 31.0628 28.9268 30.9663 28.5896 30.8703C27.7408 30.6285 26.5839 30.4569 25.0772 30.3982C23.4276 30.3339 22.0623 30.5503 20.9677 30.9425C20.6457 31.0579 20.3769 31.1786 20.1609 31.2954L20.0963 31.3311C20.0762 31.3424 20.0576 31.3532 20.0405 31.3635L19.9803 31.4L19.9481 31.4226Z" fill="#3D2020"/>
<path d="M38.4854 31.4226C37.8858 31.8302 37.0454 31.7196 36.5896 31.1662C36.125 30.6021 36.2359 29.7916 36.8373 29.3559C36.9406 29.2811 37.1027 29.1786 37.3242 29.0589C37.6635 28.8755 38.063 28.6961 38.5228 28.5314C39.9621 28.0156 41.6998 27.7402 43.7288 27.8193C45.4585 27.8867 46.8443 28.0923 47.9265 28.4005C48.8289 28.6575 49.4103 28.9494 49.7299 29.2089C50.3045 29.6754 50.3671 30.4904 49.8698 31.0293C49.3915 31.5475 48.5697 31.6217 47.9963 31.2119L47.979 31.1991L47.948 31.1811C47.9376 31.1754 47.9256 31.1689 47.912 31.1619L47.8902 31.1508C47.7151 31.0628 47.4641 30.9663 47.1269 30.8703C46.2781 30.6285 45.1212 30.4569 43.6145 30.3982C41.9649 30.3339 40.5996 30.5503 39.505 30.9425C39.1829 31.0579 38.9141 31.1786 38.6981 31.2954L38.6336 31.3311C38.6135 31.3424 38.5949 31.3532 38.5778 31.3635L38.5176 31.4L38.4854 31.4226Z" fill="#3D2020"/>
<path d="M22.3148 35.0809C23.0519 34.8374 23.9378 34.716 24.9675 34.7702C25.7745 34.8127 26.4371 34.9118 26.9717 35.0553C27.4947 35.1957 27.8535 35.3658 28.0766 35.537C28.6324 35.9636 28.7436 36.7686 28.3249 37.335C27.922 37.88 27.1754 38.0055 26.6243 37.634L26.5906 37.6106C26.6218 37.6333 26.6388 37.6437 26.6388 37.6436C26.5825 37.617 26.4937 37.5842 26.3683 37.549L26.3296 37.5384C25.9704 37.4419 25.4784 37.3683 24.8375 37.3346C24.1173 37.2967 23.5387 37.3759 23.092 37.5235C22.9913 37.5568 22.9084 37.5901 22.8429 37.6211L22.7932 37.6459L22.7802 37.6529L22.7758 37.656C22.2094 38.0121 21.4674 37.8569 21.0846 37.3021L21.0629 37.2697C20.6798 36.6777 20.8403 35.8814 21.4212 35.4911C21.6103 35.3641 21.9078 35.2154 22.3148 35.0809Z" fill="#252525"/>
<path d="M40.0796 35.0809C40.8167 34.8374 41.7026 34.716 42.7323 34.7702C43.5394 34.8127 44.202 34.9118 44.7366 35.0553C45.2596 35.1957 45.6184 35.3658 45.8415 35.537C46.3973 35.9636 46.5085 36.7686 46.0898 37.335C45.6869 37.88 44.9402 38.0055 44.3892 37.634L44.3554 37.6106C44.3866 37.6333 44.4037 37.6437 44.4037 37.6436C44.3474 37.617 44.2585 37.5842 44.1332 37.549L44.0945 37.5384C43.7352 37.4419 43.2432 37.3683 42.6023 37.3346C41.8821 37.2967 41.3036 37.3759 40.8569 37.5235C40.7563 37.5568 40.6733 37.5901 40.6078 37.6211L40.5684 37.6405L40.5462 37.6523L40.5408 37.6559C39.9745 38.0121 39.2324 37.8569 38.8495 37.3022L38.8278 37.2697C38.4447 36.6778 38.6051 35.8815 39.1861 35.4911C39.3751 35.3641 39.6726 35.2154 40.0796 35.0809Z" fill="#252525"/>
<path d="M33.1118 35.5299L35.2382 36.4654C34.5245 38.2741 33.9717 40.9589 33.9717 43.0087C33.9717 44.1199 34.1293 44.9963 34.4196 45.548C34.6615 46.0078 34.9704 46.2161 35.4842 46.2276L35.53 46.2281V48.6605C34.1362 48.6605 33.0539 47.961 32.4059 46.7293C31.8949 45.7581 31.6681 44.4969 31.6681 43.0087C31.6681 40.6641 32.2645 37.7267 33.0692 35.639L33.1118 35.5299Z" fill="#7B5B4A"/>
<path fill-rule="evenodd" clip-rule="evenodd" d="M34.3645 1.5449L34.3644 1.5448C34.355 1.5448 34.3456 1.5448 34.3362 1.54483C34.3268 1.5448 34.3174 1.5448 34.308 1.5448L34.3078 1.5449C28.2966 1.5681 12.8993 7.31483 12.3584 24.7164C13.9567 22.573 14.6338 22.7355 16.8262 21.3367C18.5901 20.2114 19.3975 18.3829 24.1115 17.1901C28.8253 15.9972 31.2181 18.1985 34.3078 18.1985C36.7181 18.1985 39.5388 16.3949 42.9135 17.4741C46.2882 18.5533 48.7427 20.5016 50.3058 21.3367C53.4901 23.0379 52.5 22.1808 55.6121 24.7164C55.0712 7.31483 40.3754 1.5681 34.3645 1.5449Z" fill="#342929"/>
<path d="M17.327 6.77379L16.2203 11.5826L33.0275 8.16699L52.5226 13.1306L52.3742 9.11989L50.9737 8.57732L50.8848 7.04069L49.1487 7.15019L49.0112 4.7754L46.7791 4.91618L46.178 3.13145L44.1938 3.2566L42.9106 1.51489L40.8968 2.20272L40.2121 1.12428L38.1039 1.25725L38.0312 0L35.2518 1.43713L34.435 0.226823L33.2677 1.56228L31.9548 0.383252L29.6714 1.7891L28.1105 0.625721L26.5711 1.98464L25.455 2.05504L24.2796 3.25079L23.7189 2.16454L21.7482 4.67229L20.3517 4.19955L18.7113 7.03699L17.327 6.77379Z" fill="#342929"/>
<path fill-rule="evenodd" clip-rule="evenodd" d="M27.0338 52.5223V54.3581C27.0338 57.1839 30.3197 59.4738 34.3714 59.4738C38.4247 59.4738 41.7091 57.1839 41.7091 54.3581V52.5223H27.0338Z" fill="#393939"/>
<mask id="mask0" mask-type="alpha" maskUnits="userSpaceOnUse" x="27" y="52" width="15" height="8">
<path fill-rule="evenodd" clip-rule="evenodd" d="M27.0457 52.5223C27.0377 52.617 27.0338 52.7124 27.0338 52.808V54.5956C27.0338 57.2902 30.3197 59.4738 34.3714 59.4738C38.4247 59.4738 41.7091 57.2902 41.7091 54.5956V52.808C41.7091 52.7124 41.7052 52.617 41.6972 52.5223H27.0457Z" fill="white"/>
</mask>
<g mask="url(#mask0)">
<path d="M34.3714 61.0186C36.7175 61.0186 38.6194 60.154 38.6194 59.0876C38.6194 58.0212 36.7175 57.1566 34.3714 57.1566C32.0251 57.1566 30.1232 58.0212 30.1232 59.0876C30.1232 60.154 32.0251 61.0186 34.3714 61.0186Z" fill="#FF6C6C"/>
</g>
<path d="M27.0338 52.5223H41.7091V54.0671H27.0338V52.5223Z" fill="white"/>
<path opacity="0.2" d="M31.231 16.2462C30.2699 15.6711 30.1235 13.3371 30.1234 12.0423C30.1232 10.7475 30.6385 10.041 30.6385 10.041C30.6385 10.041 31.5716 14.4026 33.7123 16.4075C34.7848 17.412 32.4324 16.9651 31.231 16.2462Z" fill="#8D5454"/>
<path opacity="0.2" d="M24.9344 15.4008C23.6415 14.0422 23.9128 13.2948 24.1174 11.1887C24.3218 9.08264 26.6353 7.72388 26.6353 7.72388C26.6353 7.72388 27.2591 14.018 29.9021 16.42C31.2263 17.6233 26.2272 16.7596 24.9344 15.4008Z" fill="#8D5454"/>
<path d="M57.4442 49.7382C58.5744 48.9063 60.0388 48.4639 61.6528 48.7444C63.1521 49.005 64.2711 49.7874 65.048 50.7846C65.4464 51.2959 65.7041 51.7954 65.8971 52.3126C66.0916 52.8339 66.1994 53.3195 66.2753 53.8526C66.4335 54.9645 66.4587 56.547 66.3879 58.6315L66.3836 58.7547C66.2388 62.8445 65.7348 68.3954 65.0204 73.4766L64.942 74.0271C64.0902 79.928 63.0272 84.7647 61.7402 87.9681C61.2934 89.0801 60.8041 90.0434 60.228 90.8782C59.3465 92.1554 58.2637 93.1598 56.7834 93.7558C54.7196 94.5868 52.4855 94.3028 50.6728 93.1007C49.4777 92.3081 48.5811 91.2261 47.8103 89.8703C46.3514 87.3043 47.2653 84.0507 49.8514 82.6033C50.6531 82.1545 51.5213 81.9321 52.3813 81.9151L52.4479 81.9142L52.4732 81.8243C53.134 79.454 53.7756 76.1645 54.3229 72.3427L54.3712 72.0026L54.4285 71.5905C55.0627 66.9767 55.5103 61.9833 55.6379 58.3801L55.647 58.1068C55.6554 57.8378 55.6617 57.5818 55.666 57.3398L55.6687 57.1585L55.6371 57.1018C54.9406 55.8298 54.7662 54.284 55.278 52.8136L55.3077 52.7305C55.5114 52.1745 55.7382 51.6856 56.0757 51.179C56.423 50.6578 56.8455 50.1788 57.4442 49.7382Z" fill="#6E5243"/>
<path d="M11.7251 77.6491C11.9944 74.4969 14.247 71.8764 17.3082 71.1541L33.8302 69.5146L50.6621 71.1541C53.7232 71.8764 55.9759 74.4969 56.2451 77.6491L58.7015 106.404L56.5206 120.504L55.4951 122.13C55.2284 122.553 54.7652 122.809 54.2675 122.809H12.9034L11.4495 120.504L9.26868 106.404L11.7251 77.6491Z" fill="black"/>
<path d="M12.7939 122.809H55.1762L55.5871 124.981C55.7535 125.86 55.0639 126.671 54.1501 126.671H13.8201C12.9064 126.671 12.2167 125.86 12.3831 124.981L12.7939 122.809Z" fill="black"/>
<path d="M28.5784 43.4032C28.5784 43.3205 28.7068 43.2534 28.8652 43.2534H33.6982C33.8567 43.2534 33.9851 43.3205 33.9851 43.4032V43.876C33.9851 43.9587 33.8567 44.0258 33.6982 44.0258H28.8652C28.7068 44.0258 28.5784 43.9587 28.5784 43.876V43.4032Z" fill="#636363"/>
<path d="M28.5784 44.9507C28.5784 44.0133 30.9836 43.2534 31.8985 43.2534H62.4515C63.3664 43.2534 64.1082 44.0133 64.1082 44.9507V60.8659C64.1082 61.8033 63.3664 62.5631 62.4515 62.5631H30.2351C29.3201 62.5631 28.5784 61.8033 28.5784 60.8659V44.9507Z" fill="#121413"/>
<path d="M28.5784 46.343H37.6975C38.6334 46.343 39.3918 47.1057 39.3918 48.0468V59.3146C39.3918 60.2555 38.6334 61.0184 37.6975 61.0184H28.5784V46.343Z" fill="#434448"/>
<g opacity="0.2">
<path fill-rule="evenodd" clip-rule="evenodd" d="M41.709 52.9083C41.709 48.0027 45.6858 44.0259 50.5914 44.0259C55.4971 44.0259 59.4739 48.0027 59.4739 52.9083C59.4739 57.814 55.4971 61.7908 50.5914 61.7908C45.6858 61.7908 41.709 57.814 41.709 52.9083ZM58.2326 52.9083C58.2326 48.6883 54.8115 45.2672 50.5914 45.2672C46.3714 45.2672 42.9503 48.6883 42.9503 52.9083C42.9503 57.1284 46.3714 60.5495 50.5914 60.5495C54.8115 60.5495 58.2326 57.1284 58.2326 52.9083Z" fill="#636363"/>
<path fill-rule="evenodd" clip-rule="evenodd" d="M41.709 52.9083C41.709 48.0027 45.6858 44.0259 50.5914 44.0259C55.4971 44.0259 59.4739 48.0027 59.4739 52.9083C59.4739 57.814 55.4971 61.7908 50.5914 61.7908C45.6858 61.7908 41.709 57.814 41.709 52.9083ZM58.2326 52.9083C58.2326 48.6883 54.8115 45.2672 50.5914 45.2672C46.3714 45.2672 42.9503 48.6883 42.9503 52.9083C42.9503 57.1284 46.3714 60.5495 50.5914 60.5495C54.8115 60.5495 58.2326 57.1284 58.2326 52.9083Z" fill="#636363"/>
</g>
<path d="M50.5914 57.9289C53.3642 57.9289 55.612 55.6811 55.612 52.9083C55.612 50.1356 53.3642 47.8878 50.5914 47.8878C47.8187 47.8878 45.5709 50.1356 45.5709 52.9083C45.5709 55.6811 47.8187 57.9289 50.5914 57.9289Z" fill="#434448"/>
<path d="M47.1157 51.6917C47.1157 50.8706 47.7221 50.205 48.4701 50.205H52.7127C53.4608 50.205 54.0672 50.8706 54.0672 51.6917V54.125C54.0672 54.946 53.4608 55.6117 52.7127 55.6117H48.4701C47.7221 55.6117 47.1157 54.946 47.1157 54.125V51.6917Z" fill="#121413"/>
<path d="M48.6605 54.8392H52.5224V55.6116H48.6605V54.8392Z" fill="#121413"/>
<path d="M50.5914 54.8392C51.6579 54.8392 52.5224 53.9747 52.5224 52.9083C52.5224 51.8418 51.6579 50.9773 50.5914 50.9773C49.525 50.9773 48.6605 51.8418 48.6605 52.9083C48.6605 53.9747 49.525 54.8392 50.5914 54.8392Z" fill="#2E2E2E"/>
<mask id="mask1" mask-type="alpha" maskUnits="userSpaceOnUse" x="48" y="50" width="5" height="5">
<path fill-rule="evenodd" clip-rule="evenodd" d="M50.5914 54.8392C51.6579 54.8392 52.5224 53.9747 52.5224 52.9083C52.5224 51.8418 51.6579 50.9773 50.5914 50.9773C49.525 50.9773 48.6605 51.8418 48.6605 52.9083C48.6605 53.9747 49.525 54.8392 50.5914 54.8392Z" fill="white"/>
</mask>
<g mask="url(#mask1)">
<path d="M50.2051 53.2945C50.6316 53.2945 50.9775 52.9487 50.9775 52.5221C50.9775 52.0956 50.6316 51.7498 50.2051 51.7498C49.7785 51.7498 49.4327 52.0956 49.4327 52.5221C49.4327 52.9487 49.7785 53.2945 50.2051 53.2945Z" fill="#121413"/>
</g>
<path d="M56.3843 39.3915L64.1082 39.3354L63.1348 38.7293C63.019 38.6575 62.8838 38.6191 62.7454 38.6191H56.6213C56.4904 38.6191 56.3843 38.7196 56.3843 38.8438V39.3915Z" fill="#434448"/>
<path d="M56.3843 39.3915H63.7571C63.951 39.3915 64.1082 39.5225 64.1082 39.684V41.7086H56.3843V39.3915Z" fill="#636363"/>
<path opacity="0.65" d="M57.9291 39.6762C57.9291 39.519 58.0379 39.3915 58.1722 39.3915H63.0927C63.2269 39.3915 63.3358 39.519 63.3358 39.6762V41.4239C63.3358 41.5812 63.2269 41.7086 63.0927 41.7086H58.1722C58.0379 41.7086 57.9291 41.5812 57.9291 41.4239V39.6762Z" fill="white"/>
<path d="M39.8616 42.6666C39.9556 42.5494 40.0977 42.4811 40.2481 42.4811H55.5279C55.6782 42.4811 55.8205 42.5494 55.9143 42.6666L56.3843 43.2535H39.3918L39.8616 42.6666Z" fill="#222423"/>
<path d="M56.3843 41.7087H61.0187V43.2535H56.3843V41.7087Z" fill="#222423"/>
<path d="M57.9291 39.3915H63.3358V40.1639H57.9291V39.3915Z" fill="white"/>
<path d="M57.9291 40.1639H63.3358V40.9363H57.9291V40.1639Z" fill="white"/>
<path d="M34.1991 42.714C34.2549 42.5734 34.3902 42.4811 34.5406 42.4811H37.2914C37.4419 42.4811 37.5771 42.5734 37.633 42.714L37.847 43.2535H33.985L34.1991 42.714Z" fill="#636363"/>
<path d="M27.9007 47.217C29.3465 47.0494 30.6823 47.0789 31.9271 47.382C32.8266 47.601 33.6759 47.9619 34.4542 48.518C35.4884 49.257 36.2996 50.2825 36.7515 51.5289C37.7599 54.3104 36.3293 57.3851 33.556 58.3965C31.9726 58.9739 30.294 58.754 28.9573 57.9412L28.8846 57.8962L28.8447 57.9023C27.7014 58.0795 26.1451 58.5662 24.5249 59.2994L24.4214 59.3465C20.0911 61.3309 16.5899 64.4029 15.2877 67.5636C14.5875 69.2633 14.4139 70.6702 14.6188 71.7611C14.7289 72.3472 14.9421 72.7981 15.2048 73.1089L15.2397 73.1489L15.2635 73.1185C16.8536 71.1272 19.6788 70.5115 21.9783 71.7636L22.0557 71.8065C24.6259 73.2606 25.5341 76.5291 24.0843 79.1069C22.4294 82.0493 19.6325 83.8747 16.4291 84.153C13.5717 84.4012 10.7124 83.3903 8.45296 81.4507C3.79471 77.4518 2.49736 70.544 5.41142 63.4707C7.89294 57.4474 13.4042 52.6117 19.9803 49.5982C22.7346 48.336 25.519 47.493 27.9007 47.217Z" fill="#6E5243"/>
<path d="M55.1536 65.6527L66.4254 70.9018L63.9607 85.8303C63.3994 89.2303 61.1527 92.0709 58.0496 93.3037L55.7158 94.2311L50.9776 74.9844L55.1536 65.6527Z" fill="black"/>
<path d="M10.7963 65.8533C13.5049 66.7831 16.3675 65.8533 16.7614 64.877L25.4008 73.0251L29.3507 81.2427L14.4035 87.1168V97.3207L0.165387 78.1939C0.065041 78.0592 0.00506853 77.9002 0.00160186 77.7325C-0.0746682 74.0425 2.59021 66.9147 4.24663 61.9482C4.55675 61.0184 4.93608 61.3438 6.01906 61.0184C6.7324 63.5617 8.08781 64.9235 10.7963 65.8533Z" fill="black"/>
<path d="M145.411 145.106C147.616 144.664 149.762 146.094 150.204 148.299C151.067 152.609 151.409 160.36 151.439 171.788L151.441 173.936C151.44 176.325 151.427 178.718 151.401 181.757L151.312 191.364C151.304 192.427 151.301 193.078 151.301 193.868L151.301 194.269C151.301 196.518 149.477 198.342 147.228 198.342C144.979 198.342 143.156 196.518 143.156 194.269L143.157 192.88C143.161 191.857 143.171 190.682 143.195 188.107L143.258 181.395C143.285 178.218 143.297 175.751 143.296 173.222L143.294 172.186C143.272 161.252 142.952 153.687 142.239 150.011L142.217 149.899C141.775 147.694 143.205 145.548 145.411 145.106Z" fill="#EBBAAA"/>
<path d="M124.877 160.076C125.007 157.83 126.933 156.115 129.178 156.245C131.424 156.375 133.139 158.3 133.009 160.546C132.862 163.098 132.695 165.539 132.498 168.108L132.434 168.921C132.259 171.144 131.791 176.715 131.778 176.877L131.692 177.959C131.509 180.297 131.392 182.096 131.315 183.854C131.191 186.684 131.181 189.307 131.298 192.09C131.392 194.337 129.646 196.235 127.399 196.329C125.151 196.423 123.253 194.677 123.159 192.43C123.038 189.533 123.043 186.791 123.161 183.879L123.177 183.498C123.264 181.518 123.397 179.513 123.608 176.866L124.214 169.527C124.263 168.926 124.305 168.404 124.334 168.028C124.547 165.306 124.723 162.752 124.877 160.076Z" fill="#EBBAAA"/>
<path d="M122.864 187.124V194.126L131.581 194.484L131.366 187.91L122.864 187.124Z" fill="#F2EFEF"/>
<path d="M143.013 187.624V194.126L151.729 194.484V187.624H143.013Z" fill="#F2EFEF"/>
<path d="M134.09 145.91C143.205 145.91 150.594 142.295 150.594 137.837C150.594 133.378 143.205 129.764 134.09 129.764C124.976 129.764 117.587 133.378 117.587 137.837C117.587 142.295 124.976 145.91 134.09 145.91Z" fill="#2E2E2D"/>
<path d="M116.35 128.803H135.641L133.724 183.838L133.296 188.929L122.364 188.338L118.824 183.838L116.35 128.803Z" fill="#2E2E2D"/>
<path d="M135.439 129.75H154.796V185.338L152.485 188.585L141.267 189.544L140.624 185.338L135.439 129.75Z" fill="#2E2E2D"/>
<path d="M123.583 192.544C124.128 190.91 123.053 189.592 122.448 189.138C122.145 189.562 121.767 191.711 121.085 193.377L119.307 195.534L116.62 198.75L113.29 200.339L115.031 202.383C116.216 201.476 123.038 194.179 123.583 192.544Z" fill="#3B3937"/>
<path d="M133.964 203.782C133.964 203.782 134.061 200.23 133.305 198.262C132.549 196.294 131.77 191.218 131.77 191.218C131.77 191.218 130.429 192.656 127.931 192.656C125.434 192.656 122.785 192.054 122.785 192.054C122.785 192.054 118.146 198.182 116.935 198.939C115.724 199.695 109.82 201.286 109.82 201.286C108.524 201.286 107.474 202.336 107.474 203.631V204.825H121.703L133.964 203.782Z" fill="#1C1B19"/>
<mask id="mask2" mask-type="alpha" maskUnits="userSpaceOnUse" x="107" y="191" width="27" height="14">
<path fill-rule="evenodd" clip-rule="evenodd" d="M133.964 203.782C133.964 203.782 134.061 200.23 133.305 198.262C132.549 196.294 131.77 191.218 131.77 191.218C131.77 191.218 130.429 192.656 127.931 192.656C125.434 192.656 122.785 192.054 122.785 192.054C122.785 192.054 118.146 198.182 116.935 198.939C115.724 199.695 110.478 201.167 109.833 201.21C108.495 201.3 107.353 202.263 107.374 203.603L107.392 204.752L121.703 204.825L133.964 203.782Z" fill="white"/>
</mask>
<g mask="url(#mask2)">
<path d="M109.479 209.419C111.923 209.525 113.99 207.629 114.095 205.185C114.201 202.74 112.305 200.673 109.861 200.568C107.416 200.462 105.349 202.358 105.244 204.803C105.138 207.247 107.034 209.314 109.479 209.419Z" fill="#D0CEC1"/>
</g>
<path d="M120.285 193.51C120.375 193.286 120.624 193.173 120.851 193.248L120.876 193.257L121.633 193.56C121.865 193.654 121.979 193.918 121.885 194.151C121.796 194.375 121.547 194.489 121.32 194.413L121.295 194.404L120.538 194.101C120.305 194.008 120.192 193.743 120.285 193.51Z" fill="#ECECEC"/>
<path d="M119.301 194.874C119.391 194.649 119.64 194.536 119.866 194.611L119.892 194.621L120.648 194.924C120.881 195.017 120.995 195.281 120.901 195.514C120.811 195.738 120.562 195.852 120.336 195.776L120.311 195.767L119.554 195.464C119.321 195.371 119.208 195.106 119.301 194.874Z" fill="#ECECEC"/>
<path d="M118.242 196.235C118.331 196.011 118.58 195.898 118.807 195.973L118.832 195.982L119.589 196.285C119.822 196.379 119.935 196.643 119.842 196.876C119.752 197.1 119.503 197.214 119.276 197.138L119.251 197.129L118.494 196.826C118.262 196.732 118.148 196.468 118.242 196.235Z" fill="#ECECEC"/>
<path d="M116.879 197.599C116.968 197.375 117.217 197.261 117.444 197.336L117.469 197.345L118.226 197.647C118.459 197.74 118.572 198.004 118.48 198.237C118.39 198.462 118.141 198.575 117.915 198.5L117.89 198.491L117.133 198.189C116.9 198.096 116.786 197.832 116.879 197.599Z" fill="#ECECEC"/>
<path d="M115.668 198.809C115.758 198.584 116.007 198.471 116.234 198.547L116.259 198.556L117.016 198.859C117.248 198.952 117.362 199.217 117.268 199.449C117.179 199.674 116.93 199.787 116.703 199.711L116.678 199.702L115.921 199.399C115.688 199.306 115.575 199.042 115.668 198.809Z" fill="#ECECEC"/>
<path d="M134.104 203.746L120.707 204.352L107.386 203.746L107.176 205.488C107.112 206.017 107.515 206.486 108.047 206.504L120.429 206.924L127.342 207L134.255 206.773L134.104 203.746Z" fill="#D0CEC1"/>
<path d="M134.168 205.184L134.19 205.789L130.335 205.935L129.2 205.976C127.144 206.047 125.596 206.088 124.583 206.092L124.344 206.092L124.118 206.091C122.207 206.077 118.375 205.934 116.712 205.804L116.518 205.788L116.571 205.185L116.765 205.201C118.458 205.333 122.435 205.479 124.271 205.487L124.525 205.487C125.38 205.484 126.64 205.454 128.286 205.401L129.492 205.359L134.168 205.184Z" fill="#1C1B19"/>
<path d="M116.923 206.774V205.411V204.881L107.31 204.428L107.174 205.655C107.125 206.095 107.461 206.483 107.903 206.496L116.923 206.774Z" fill="#ECEADF"/>
<path d="M128.654 200.492C127.149 200.492 125.929 199.272 125.929 197.767C125.929 196.263 127.149 195.043 128.654 195.043C130.159 195.043 131.379 196.263 131.379 197.767C131.379 199.272 130.159 200.492 128.654 200.492Z" fill="#DCE0E4"/>
<path d="M128.66 195.762C128.598 195.654 128.438 195.664 128.389 195.78L127.937 196.857C127.918 196.903 127.877 196.937 127.828 196.947L126.684 197.186C126.561 197.21 126.521 197.366 126.616 197.449L127.501 198.212C127.539 198.245 127.558 198.293 127.553 198.343L127.426 199.505C127.412 199.629 127.547 199.715 127.655 199.651L128.655 199.045C128.697 199.019 128.75 199.015 128.795 199.036L129.861 199.516C129.976 199.568 130.099 199.465 130.071 199.343L129.803 198.205C129.792 198.156 129.805 198.106 129.838 198.069L130.624 197.203C130.709 197.11 130.65 196.96 130.525 196.95L129.36 196.853C129.31 196.848 129.266 196.82 129.241 196.777L128.66 195.762Z" fill="#5B568E"/>
<path d="M151.211 192.544C150.664 190.91 151.744 189.592 152.352 189.139C152.656 189.562 153.037 191.711 153.721 193.378L155.508 195.534L158.208 198.75L161.555 200.34L159.805 202.384C158.614 201.476 151.759 194.179 151.211 192.544Z" fill="#3B3937"/>
<path d="M140.78 203.782C140.78 203.782 140.683 200.23 141.442 198.262C142.202 196.294 142.985 191.218 142.985 191.218C142.985 191.218 144.332 192.656 146.842 192.656C149.352 192.656 152.014 192.054 152.014 192.054C152.014 192.054 156.675 198.182 157.892 198.939C159.109 199.695 165.041 201.286 165.041 201.286C166.343 201.286 167.398 202.34 167.398 203.642V204.825H153.101L140.78 203.782Z" fill="#1C1B19"/>
<mask id="mask3" mask-type="alpha" maskUnits="userSpaceOnUse" x="140" y="191" width="28" height="14">
<path fill-rule="evenodd" clip-rule="evenodd" d="M140.78 203.782C140.78 203.782 140.683 200.23 141.442 198.262C142.202 196.294 142.984 191.218 142.984 191.218C142.984 191.218 144.332 192.656 146.842 192.656C149.352 192.656 152.013 192.054 152.013 192.054C152.013 192.054 156.675 198.182 157.892 198.939C159.108 199.695 164.379 201.167 165.028 201.21C166.372 201.3 167.52 202.269 167.499 203.616L167.481 204.752L153.1 204.825L140.78 203.782Z" fill="white"/>
</mask>
<g mask="url(#mask3)">
<path d="M165.384 209.419C162.928 209.526 160.851 207.631 160.745 205.187C160.639 202.742 162.544 200.674 165 200.568C167.456 200.461 169.533 202.357 169.639 204.801C169.745 207.245 167.84 209.313 165.384 209.419Z" fill="#D0CEC1"/>
</g>
<path d="M153.933 193.257C154.166 193.164 154.43 193.278 154.523 193.511C154.613 193.736 154.51 193.989 154.294 194.09L154.269 194.101L153.509 194.404C153.276 194.497 153.012 194.383 152.919 194.15C152.829 193.925 152.932 193.672 153.148 193.571L153.173 193.56L153.933 193.257Z" fill="#ECECEC"/>
<path d="M154.922 194.62C155.155 194.528 155.419 194.641 155.512 194.874C155.601 195.099 155.499 195.353 155.282 195.454L155.258 195.464L154.497 195.767C154.264 195.86 154 195.746 153.907 195.513C153.818 195.289 153.92 195.035 154.137 194.934L154.161 194.923L154.922 194.62Z" fill="#ECECEC"/>
<path d="M155.987 195.982C156.22 195.889 156.484 196.003 156.577 196.236C156.667 196.461 156.564 196.714 156.348 196.815L156.323 196.826L155.563 197.129C155.33 197.222 155.066 197.108 154.973 196.875C154.883 196.65 154.986 196.397 155.202 196.296L155.227 196.285L155.987 195.982Z" fill="#ECECEC"/>
<path d="M157.356 197.345C157.589 197.253 157.853 197.367 157.946 197.6C158.035 197.825 157.932 198.078 157.715 198.179L157.691 198.19L156.93 198.491C156.697 198.583 156.433 198.469 156.341 198.236C156.252 198.011 156.355 197.758 156.571 197.657L156.596 197.647L157.356 197.345Z" fill="#ECECEC"/>
<path d="M158.573 198.556C158.806 198.463 159.07 198.577 159.163 198.81C159.253 199.034 159.15 199.288 158.934 199.389L158.909 199.4L158.149 199.703C157.916 199.795 157.652 199.682 157.559 199.449C157.469 199.224 157.572 198.97 157.788 198.869L157.813 198.859L158.573 198.556Z" fill="#ECECEC"/>
<path d="M140.64 203.746L154.101 204.352L167.486 203.746L167.697 205.487C167.761 206.015 167.358 206.486 166.826 206.504L154.38 206.924L147.434 207L140.488 206.773L140.64 203.746Z" fill="#D0CEC1"/>
<path d="M140.553 205.789L140.575 205.184L144.449 205.33L145.589 205.37C147.764 205.446 149.372 205.487 150.375 205.487L150.67 205.486C152.601 205.471 156.516 205.326 158.132 205.196L158.258 205.185L158.31 205.788L158.113 205.805C156.371 205.94 152.273 206.088 150.447 206.092L150.149 206.092C149.208 206.087 147.827 206.052 146.026 205.991L144.764 205.947L140.553 205.789Z" fill="#1C1B19"/>
<path d="M157.904 206.774V205.411V204.881L167.563 204.428L167.7 205.655C167.749 206.094 167.413 206.483 166.971 206.496L157.904 206.774Z" fill="#ECEADF"/>
<path d="M146.116 200.492C147.628 200.492 148.854 199.272 148.854 197.767C148.854 196.263 147.628 195.043 146.116 195.043C144.604 195.043 143.378 196.263 143.378 197.767C143.378 199.272 144.604 200.492 146.116 200.492Z" fill="#DCE0E4"/>
<path d="M146.11 195.761C146.173 195.652 146.332 195.662 146.381 195.777L146.836 196.857C146.856 196.903 146.896 196.937 146.945 196.947L148.096 197.186C148.219 197.21 148.259 197.366 148.164 197.449L147.274 198.212C147.236 198.245 147.217 198.293 147.222 198.343L147.35 199.505C147.363 199.629 147.228 199.716 147.121 199.652L146.115 199.043C146.072 199.019 146.02 199.015 145.974 199.036L144.901 199.516C144.787 199.568 144.663 199.465 144.692 199.344L144.961 198.205C144.972 198.156 144.959 198.106 144.925 198.069L144.136 197.203C144.052 197.11 144.11 196.96 144.236 196.95L145.407 196.853C145.457 196.849 145.501 196.821 145.526 196.777L146.11 195.761Z" fill="#5B568E"/>
<path d="M135.439 76.0203C144.515 76.0203 153.301 72.6615 153.301 68.5181C153.301 48.1552 144.515 48.1552 135.439 48.1552C126.363 48.1552 117.577 48.1552 117.577 68.5181C117.577 72.6615 126.363 76.0203 135.439 76.0203Z" fill="#2D2427"/>
<path d="M107.396 90.5198C108.724 87.9193 111.909 86.888 114.51 88.2163C117.11 89.5445 118.141 92.7294 116.813 95.3299C114.953 98.9715 112.988 106.349 111.982 113.45L111.936 113.778C111.478 117.105 111.276 120.075 111.36 122.251C111.39 123.019 111.454 123.643 111.536 124.085L111.554 124.178L111.558 124.183C113.06 125.902 113.319 128.462 112.046 130.48L111.999 130.553C110.401 132.997 107.124 133.683 104.68 132.085C102.934 130.943 101.979 129.274 101.418 127.237C101.056 125.921 100.861 124.401 100.794 122.659C100.679 119.7 100.94 116.003 101.512 111.966C102.668 103.807 104.912 95.3833 107.396 90.5198Z" fill="#EBBAAA"/>
<path d="M154.522 84.7848C157.065 83.3501 160.29 84.2488 161.725 86.7921C165.111 92.7951 167.611 101.277 168.901 110.141C170.13 118.583 170.104 126.217 168.559 130.467C167.561 133.211 164.527 134.627 161.783 133.629C159.066 132.641 157.652 129.658 158.592 126.935L158.621 126.853C159.412 124.679 159.432 118.502 158.437 111.664C157.319 103.984 155.171 96.6969 152.515 91.9876C151.08 89.4443 151.979 86.2195 154.522 84.7848Z" fill="#EBBAAA"/>
<path d="M160.518 76.4491C159.203 75.1344 154.873 73.8054 152.873 73.3053C154.135 90.1673 156.774 124.32 157.231 126.035C157.803 128.178 170.306 129.036 171.449 128.178C172.593 127.321 173.879 119.247 173.593 114.817C173.307 110.387 162.161 78.0924 160.518 76.4491Z" fill="#F2EEE2"/>
<path d="M111.278 76.3037C112.508 74.99 116.561 73.6621 118.434 73.1624C117.253 90.0113 114.782 124.137 114.354 125.851C113.819 127.993 102.114 128.849 101.044 127.993C99.9742 127.136 98.7703 119.069 99.0378 114.642C99.3053 110.216 109.739 77.9457 111.278 76.3037Z" fill="#F2EEE2"/>
<mask id="mask4" mask-type="alpha" maskUnits="userSpaceOnUse" x="99" y="73" width="20" height="56">
<path fill-rule="evenodd" clip-rule="evenodd" d="M111.278 76.3037C112.508 74.99 116.561 73.6621 118.434 73.1624C117.253 90.0113 114.782 124.137 114.354 125.851C113.819 127.993 102.114 128.849 101.044 127.993C99.9742 127.136 98.7703 119.069 99.0378 114.642C99.3053 110.216 109.739 77.9457 111.278 76.3037Z" fill="white"/>
</mask>
<g mask="url(#mask4)">
<path d="M101.62 94.1845L103.954 91.2943L103.981 91.3149C104.052 91.368 104.185 91.455 104.36 91.5597L104.398 91.5823C104.666 91.7399 104.996 91.9177 105.367 92.1026C106.227 92.5309 107.23 92.9596 108.268 93.3308C110.794 94.235 113.212 94.698 115.137 94.5561L115.235 94.5483L115.55 98.2503C113.032 98.4647 110.136 97.9297 107.16 96.8801L107.016 96.8289C104.764 96.0231 102.576 94.9378 101.658 94.2149L101.62 94.1845Z" fill="black"/>
<path d="M102.297 100.552C102.293 100.543 102.302 100.558 102.327 100.591C102.377 100.657 102.451 100.737 102.549 100.827C102.786 101.045 103.126 101.29 103.553 101.544C104.459 102.083 105.684 102.622 107.069 103.088C109.93 104.052 113.039 104.572 115.143 104.416L115.235 104.408L115.55 108.11C112.874 108.338 109.23 107.737 105.882 106.609L105.665 106.535C102.168 105.33 99.6362 103.806 98.8702 101.988L98.8471 101.932L102.297 100.552Z" fill="black"/>
<path d="M99.2052 109.565C99.7614 110.314 102.47 111.637 105.848 112.687L105.951 112.719C109.524 113.82 113.135 114.433 115.237 114.274L115.306 114.268L115.621 117.97C112.962 118.197 108.885 117.511 104.857 116.27L104.607 116.192C100.589 114.932 97.4656 113.399 96.2594 111.83L96.2227 111.781L99.2052 109.565Z" fill="black"/>
<path d="M97.6164 118.025C99.0625 119.36 102.094 120.646 105.819 121.538C109.236 122.357 112.832 122.743 115.144 122.564L115.235 122.556L115.55 126.258C112.803 126.492 108.773 126.067 104.953 125.151L104.686 125.087C100.561 124.071 97.146 122.611 95.1599 120.813L95.0964 120.755L97.6164 118.025Z" fill="black"/>
<path d="M105.883 82.4346C106.414 82.863 107.729 83.5371 109.198 84.0305C111.13 84.6795 113.154 84.9872 115.105 84.8416L115.235 84.8312L115.55 88.5332C113.014 88.749 110.444 88.3684 108.015 87.5525C106.188 86.9389 104.514 86.0868 103.598 85.3641L103.549 85.3248L105.883 82.4346Z" fill="black"/>
</g>
<mask id="mask5" mask-type="alpha" maskUnits="userSpaceOnUse" x="152" y="73" width="22" height="56">
<path fill-rule="evenodd" clip-rule="evenodd" d="M160.518 76.4491C159.203 75.1344 154.873 73.8054 152.873 73.3053C154.135 90.1673 156.774 124.32 157.231 126.035C157.803 128.178 170.306 129.036 171.449 128.178C172.593 127.321 173.879 119.247 173.593 114.817C173.307 110.387 162.161 78.0924 160.518 76.4491Z" fill="white"/>
</mask>
<g mask="url(#mask5)">
<path d="M167.424 91.1515L169.759 94.0417C168.869 94.7608 166.507 95.9056 164.084 96.7604C160.947 97.8672 157.941 98.4502 155.406 98.2599L155.287 98.2504L155.603 94.5484C157.541 94.7134 160.115 94.221 162.848 93.2567C163.955 92.8663 165.029 92.4171 165.945 91.9734L166.112 91.8913C166.441 91.7284 166.734 91.5733 166.975 91.4349L167.049 91.3918C167.228 91.2868 167.357 91.2028 167.414 91.1596L167.424 91.1515Z" fill="black"/>
<path d="M170.355 99.3217L173.402 101.448C170.884 105.057 161.17 108.524 155.459 108.124L155.287 108.11L155.603 104.408C160.032 104.785 168.49 101.809 170.302 99.3946L170.355 99.3217Z" fill="black"/>
<path d="M173.383 108.818L176.518 110.813C175.485 112.436 171.953 114.17 167.24 115.73L167.097 115.777C162.506 117.285 158.038 118.179 155.368 117.977L155.287 117.97L155.603 114.268C157.635 114.441 161.741 113.626 165.937 112.247C167.918 111.596 169.754 110.872 171.161 110.186L171.339 110.098C171.953 109.792 172.463 109.502 172.846 109.243C173.018 109.126 173.159 109.02 173.264 108.928L173.294 108.901C173.354 108.847 173.384 108.814 173.384 108.817L173.383 108.818Z" fill="black"/>
<path d="M174.295 118.477L174.352 118.426C174.368 118.411 174.375 118.404 174.374 118.407L174.373 118.409L177.528 120.371C176.385 122.21 172.696 123.651 167.376 124.862L167.1 124.924C162.64 125.919 158.003 126.47 155.368 126.265L155.287 126.258L155.603 122.556C157.816 122.745 162.303 122.206 166.551 121.239C168.699 120.75 170.625 120.188 172.083 119.619C172.816 119.333 173.412 119.052 173.845 118.791C174.037 118.675 174.189 118.568 174.295 118.477Z" fill="black"/>
<path d="M164.845 82.4407L167.194 85.3189C166.296 86.0521 164.608 86.9263 162.763 87.5526C160.398 88.3557 157.897 88.7384 155.425 88.5476L155.286 88.5361L155.604 84.8345C157.57 85.0036 159.617 84.6972 161.569 84.0345C162.995 83.5505 164.274 82.8925 164.815 82.4642L164.845 82.4407Z" fill="black"/>
</g>
<path fill-rule="evenodd" clip-rule="evenodd" d="M135.31 78.1126C134.345 74.7243 132.744 70.5913 131.295 71.3582C130.869 71.5839 130.629 74.1758 130.514 78.2158L129.866 78.4317V71.019C125.579 71.019 121.364 72.0013 118.148 73.4303C115.112 74.7798 114.958 78.6495 114.742 84.0673C114.685 85.4932 114.624 87.0263 114.505 88.6489L113.719 131.304L124.293 132.947L131.295 133.018C131.295 133.018 131.295 133.019 131.295 133.019H131.366H152.229L157.66 131.518L156.659 87.0056C156.659 87.0056 155.373 74.502 153.23 73.3588C151.086 72.2156 139.726 70.8761 139.726 70.8761L140.297 77.36L135.582 77.9316L135.31 78.1126Z" fill="#FDF9EF"/>
<mask id="mask6" mask-type="alpha" maskUnits="userSpaceOnUse" x="113" y="70" width="45" height="64">
<path fill-rule="evenodd" clip-rule="evenodd" d="M135.31 78.1126C134.345 74.7243 132.744 70.5913 131.295 71.3582C130.869 71.5839 130.629 74.1758 130.514 78.2158L129.866 78.4317V71.019C125.579 71.019 121.364 72.0013 118.148 73.4303C115.112 74.7798 114.958 78.6495 114.742 84.0673C114.685 85.4932 114.624 87.0263 114.505 88.6489L113.719 131.304L124.293 132.947L131.295 133.018C131.295 133.018 131.295 133.019 131.295 133.019H131.366H152.229L157.66 131.518L156.659 87.0056C156.659 87.0056 155.373 74.502 153.23 73.3588C151.086 72.2156 139.726 70.8761 139.726 70.8761L140.297 77.36L135.582 77.9316L135.31 78.1126Z" fill="white"/>
</mask>
<g mask="url(#mask6)">
<path d="M136.318 83.1837C145.981 83.081 154.951 83.3988 158.015 84.0029L158.108 84.0217L157.354 87.6597C154.712 87.112 145.648 86.7919 136.057 86.9022L135.766 86.9057C125.319 87.0352 116.814 87.6368 114.117 88.5184L114.037 88.5452L112.829 85.0318C115.943 83.9608 124.513 83.3399 135.389 83.1949L136.318 83.1837Z" fill="black"/>
<path d="M136.318 92.0435C145.981 91.9408 154.951 92.2585 158.015 92.8626L158.108 92.8814L157.354 96.5194C154.712 95.9717 145.648 95.6517 136.057 95.762L135.766 95.7654C125.319 95.895 116.814 96.4965 114.117 97.3781L114.037 97.4049L112.829 93.8916C115.943 92.8205 124.513 92.1997 135.389 92.0546L136.318 92.0435Z" fill="black"/>
<path d="M136.318 102.189C145.981 102.087 154.951 102.404 158.015 103.009L158.108 103.027L157.354 106.665C154.712 106.118 145.648 105.798 136.057 105.908L135.766 105.911C125.319 106.041 116.814 106.642 114.117 107.524L114.037 107.551L112.829 104.037C115.943 102.966 124.513 102.346 135.389 102.201L136.318 102.189Z" fill="black"/>
<path d="M157.308 111.298L157.868 114.971L157.661 115.001C154.195 115.499 145.215 116.103 136.47 116.408L136.199 116.417C125.427 116.786 116.946 116.665 113.047 115.927L112.93 115.905L113.649 112.259C117.037 112.928 125.168 113.06 135.441 112.725L136.072 112.704C144.768 112.407 153.788 111.803 157.112 111.327L157.308 111.298Z" fill="black"/>
<path d="M157.308 120.34L157.868 124.013L157.661 124.044C154.16 124.547 145.03 125.158 136.199 125.46L135.549 125.481C125.086 125.823 116.868 125.693 113.047 124.97L112.93 124.947L113.649 121.302C117.037 121.97 125.168 122.103 135.441 121.768L136.072 121.746C144.768 121.449 153.788 120.846 157.112 120.369L157.308 120.34Z" fill="black"/>
<path d="M136.318 74.3242C145.981 74.2215 154.951 74.5393 158.015 75.1434L158.108 75.1622L157.354 78.8002C154.712 78.2525 145.648 77.9324 136.057 78.0427L135.766 78.0462C125.319 78.1757 116.814 78.7773 114.117 79.6589L114.037 79.6857L112.829 76.1723C115.943 75.1013 124.513 74.4804 135.389 74.3354L136.318 74.3242Z" fill="black"/>
</g>
<path d="M127.437 73.8231C127.437 72.3534 128.628 71.1619 130.098 71.1619H140.832C142.301 71.1619 143.493 72.3534 143.493 73.8231C143.493 77.7 140.35 80.8428 136.473 80.8428H134.456C130.58 80.8428 127.437 77.7 127.437 73.8231Z" fill="#EBBAAA"/>
<path fill-rule="evenodd" clip-rule="evenodd" d="M130.098 72.5909C129.417 72.5909 128.866 73.1426 128.866 73.8231C128.866 76.9109 131.369 79.4138 134.457 79.4138H136.473C139.561 79.4138 142.064 76.9108 142.064 73.8231C142.064 73.1426 141.512 72.5909 140.832 72.5909H130.098ZM126.008 73.8231C126.008 71.5642 127.839 69.7329 130.098 69.7329H140.832C143.091 69.7329 144.922 71.5642 144.922 73.8231C144.922 78.4893 141.139 82.2718 136.473 82.2718H134.457C129.79 82.2718 126.008 78.4893 126.008 73.8231Z" fill="#E2DBD0"/>
<path d="M127.437 73.8231C127.437 72.3534 128.628 71.1619 130.098 71.1619H140.832C142.301 71.1619 143.493 72.3534 143.493 73.8231C143.493 77.7 140.35 80.8428 136.473 80.8428H134.456C130.58 80.8428 127.437 77.7 127.437 73.8231Z" fill="#EBBAAA"/>
<path d="M127.508 73.8231C127.508 72.3534 128.7 71.1619 130.169 71.1619H140.903C142.373 71.1619 143.564 72.3534 143.564 73.8231C143.564 77.7 140.422 80.8428 136.545 80.8428H134.528C130.651 80.8428 127.508 77.7 127.508 73.8231Z" fill="#EBBAAA"/>
<path fill-rule="evenodd" clip-rule="evenodd" d="M130.169 72.5909C129.489 72.5909 128.937 73.1426 128.937 73.8231C128.937 76.9109 131.44 79.4138 134.528 79.4138H136.545C139.632 79.4138 142.135 76.9108 142.135 73.8231C142.135 73.1426 141.584 72.5909 140.903 72.5909H130.169ZM126.079 73.8231C126.079 71.5642 127.91 69.7329 130.169 69.7329H140.903C143.162 69.7329 144.993 71.5642 144.993 73.8231C144.993 78.4893 141.211 82.2718 136.545 82.2718H134.528C129.862 82.2718 126.079 78.4893 126.079 73.8231Z" fill="#E2DBD0"/>
<path d="M135.786 54.7286C138.778 54.7286 141.203 57.154 141.203 60.146V71.1391L141.203 71.1786C142.532 71.3275 143.564 72.4547 143.564 73.8231C143.564 77.7001 140.422 80.8428 136.545 80.8428H134.528C130.651 80.8428 127.508 77.7001 127.508 73.8231C127.508 72.4548 128.541 71.3276 129.87 71.1786L129.869 71.1391V60.146C129.869 57.154 132.295 54.7286 135.287 54.7286H135.786Z" fill="#EBBAAA"/>
<path d="M129.798 60.146C129.798 57.154 132.223 54.7286 135.215 54.7286H135.714C138.706 54.7286 141.132 57.154 141.132 60.146V71.1391C141.132 74.2688 138.595 76.806 135.465 76.806C132.335 76.806 129.798 74.2688 129.798 71.1391V60.146Z" fill="#EBBAAA"/>
<path fill-rule="evenodd" clip-rule="evenodd" d="M142.968 55.1262C143.301 55.3381 143.399 55.7797 143.187 56.1126C142.784 56.7444 141.849 57.5333 140.545 58.1601C139.214 58.7992 137.437 59.3013 135.287 59.3013C130.964 59.3013 128.61 57.2735 127.735 56.1737C127.489 55.8649 127.54 55.4154 127.849 55.1698C128.158 54.9241 128.608 54.9752 128.853 55.284C129.498 56.0948 131.462 57.8723 135.287 57.8723C137.212 57.8723 138.778 57.4231 139.926 56.872C141.099 56.3086 141.775 55.6686 141.981 55.3451C142.193 55.0123 142.635 54.9142 142.968 55.1262Z" fill="#C99584"/>
<path d="M121.864 53.8711C124.231 53.8711 126.151 51.9518 126.151 49.5842C126.151 47.2166 124.231 45.2972 121.864 45.2972C119.496 45.2972 117.577 47.2166 117.577 49.5842C117.577 51.9518 119.496 53.8711 121.864 53.8711Z" fill="#F2CACA"/>
<path fill-rule="evenodd" clip-rule="evenodd" d="M121.864 39.5814C121.864 39.1868 122.184 38.8669 122.578 38.8669H126.865C127.26 38.8669 127.58 39.1868 127.58 39.5814C127.58 39.976 127.26 40.2959 126.865 40.2959H122.578C122.184 40.2959 121.864 39.976 121.864 39.5814Z" fill="black"/>
<path fill-rule="evenodd" clip-rule="evenodd" d="M143.298 39.5814C143.298 39.1868 143.618 38.8669 144.013 38.8669H148.3C148.694 38.8669 149.014 39.1868 149.014 39.5814C149.014 39.976 148.694 40.2959 148.3 40.2959H144.013C143.618 40.2959 143.298 39.976 143.298 39.5814Z" fill="black"/>
<path fill-rule="evenodd" clip-rule="evenodd" d="M144.013 37.7236C144.96 37.7236 145.728 38.4914 145.728 39.4384V43.7254C145.728 44.6724 144.96 45.4401 144.013 45.4401C143.066 45.4401 142.298 44.6724 142.298 43.7254V39.4384C142.298 38.4914 143.066 37.7236 144.013 37.7236Z" fill="black"/>
<path fill-rule="evenodd" clip-rule="evenodd" d="M126.866 37.7236C127.813 37.7236 128.58 38.4914 128.58 39.4384V43.7254C128.58 44.6724 127.813 45.4401 126.866 45.4401C125.919 45.4401 125.151 44.6724 125.151 43.7254V39.4384C125.151 38.4914 125.919 37.7236 126.866 37.7236Z" fill="black"/>
<path fill-rule="evenodd" clip-rule="evenodd" d="M140.727 33.2487C140.752 32.7759 141.156 32.4127 141.629 32.4376L149.774 32.8663C150.247 32.8912 150.61 33.2947 150.585 33.7676C150.56 34.2404 150.157 34.6036 149.684 34.5787L141.539 34.15C141.066 34.1251 140.703 33.7216 140.727 33.2487Z" fill="#271E1E"/>
<path fill-rule="evenodd" clip-rule="evenodd" d="M130.151 33.2487C130.176 33.7216 129.812 34.1251 129.339 34.15L121.194 34.5787C120.721 34.6036 120.318 34.2404 120.293 33.7676C120.268 33.2947 120.631 32.8912 121.104 32.8663L129.249 32.4376C129.722 32.4127 130.126 32.7759 130.151 33.2487Z" fill="#271E1E"/>
<path d="M149.014 53.8711C151.382 53.8711 153.301 51.9518 153.301 49.5842C153.301 47.2166 151.382 45.2972 149.014 45.2972C146.647 45.2972 144.727 47.2166 144.727 49.5842C144.727 51.9518 146.647 53.8711 149.014 53.8711Z" fill="#F2CACA"/>
<path fill-rule="evenodd" clip-rule="evenodd" d="M132.795 47.3872C132.795 45.5648 133.622 43.5472 134.428 42.3372L136.45 43.6847C135.827 44.6181 135.225 46.173 135.225 47.3872C135.225 47.9779 135.366 48.3344 135.543 48.5339C135.697 48.7065 136.036 48.9412 136.868 48.9412V51.3705C135.556 51.3705 134.467 50.9799 133.727 50.1478C133.012 49.3426 132.795 48.3148 132.795 47.3872Z" fill="#EBBAAA"/>
<path d="M149.636 34.2187C146.784 32.334 141.412 24.5812 139.083 20.9404C152.56 17.4424 158.193 27.4367 159.334 34.2187C160.475 41.0005 160.59 42.3556 160.661 43.4396C160.875 46.7263 161.188 48.6554 161.188 51.1388C161.426 60.8952 164.058 78.7785 161.188 80.1924C157.42 82.0485 146.724 82.1913 148.507 77.1941C150.289 72.197 155.555 40.5008 154.984 38.8589C154.414 37.217 153.202 36.5745 149.636 34.2187Z" fill="#2D2427"/>
<path fill-rule="evenodd" clip-rule="evenodd" d="M135.423 6.42909C135.433 6.42909 135.413 6.42906 135.423 6.42909C141.825 6.42909 152.842 9.67062 156.888 18.0039C159.023 22.4012 158.682 25.512 158.319 30.8647C153.878 25.2165 141.808 21.4334 135.423 21.4334C127.359 21.4334 118.845 25.9833 112.527 30.8647C112.238 25.4864 111.823 22.4012 113.958 18.0039C118.004 9.67062 128.854 6.429 135.423 6.42909Z" fill="#614D4E"/>
<path fill-rule="evenodd" clip-rule="evenodd" d="M135.437 5C135.438 5 135.436 5 135.437 5C136.149 5 137.373 5.36017 137.822 6.28609C138.059 6.77469 138.022 7.12032 137.981 7.71506C137.488 7.08748 136.147 6.66715 135.437 6.66715C134.541 6.66715 133.595 7.17269 132.893 7.71506C132.861 7.11748 132.815 6.77469 133.052 6.28609C133.502 5.36017 134.707 4.99999 135.437 5Z" fill="#272727"/>
<path d="M121.242 34.6474C124.094 32.7627 129.466 25.0099 131.795 21.3691C118.318 17.8712 112.685 27.8654 111.544 34.6474C110.403 41.4292 110.432 41.7963 110.075 45.0115C109.979 45.8752 109.768 48.3696 109.69 51.5675C109.452 61.3239 106.82 79.2072 109.69 80.6211C113.458 82.4772 124.154 82.62 122.371 77.6229C120.589 72.6257 115.323 40.9295 115.894 39.2876C116.464 37.6457 117.676 37.0032 121.242 34.6474Z" fill="#2D2427"/>
<path fill-rule="evenodd" clip-rule="evenodd" d="M135.429 17.8608C135.439 17.8608 135.42 17.8608 135.429 17.8608C144.058 17.8608 157.916 21.4749 156.812 33.7225C152.664 29.7545 141.393 27.398 135.429 27.398C127.898 27.398 119.947 30.2933 114.047 33.7225C113.149 21.1738 126.651 17.8608 135.429 17.8608Z" fill="#413F3F"/>
<path d="M114.076 34.2941C114.076 22.456 123.672 12.8594 135.51 12.8594C147.348 12.8594 156.945 22.456 156.945 34.2941V44.0646L156.536 49.725C155.883 58.7425 149.474 66.3717 140.73 68.6695C137.555 69.5038 134.196 69.5757 130.991 68.8636C122.69 67.0188 116.374 60.2637 115.091 51.8569L114.362 47.0826C114.171 45.8351 114.076 44.5749 114.076 43.313V34.2941Z" fill="#F4D5CC"/>
<path d="M140.201 57.1019C140.469 56.8119 140.921 56.7938 141.211 57.0615C141.501 57.3291 141.519 57.7812 141.251 58.0711C140.279 59.1245 137.72 59.9443 135.796 59.9443C133.76 59.9443 132.262 59.4508 130.453 58.1695C130.131 57.9415 130.055 57.4955 130.283 57.1735C130.511 56.8515 130.957 56.7754 131.279 57.0035C132.851 58.1165 134.061 58.5153 135.796 58.5153C137.337 58.5153 139.483 57.8346 140.173 57.1312L140.201 57.1019Z" fill="#C99584"/>
<path fill-rule="evenodd" clip-rule="evenodd" d="M121.935 39.5814C121.935 39.1868 122.255 38.8669 122.65 38.8669H126.937C127.331 38.8669 127.651 39.1868 127.651 39.5814C127.651 39.976 127.331 40.2959 126.937 40.2959H122.65C122.255 40.2959 121.935 39.976 121.935 39.5814Z" fill="black"/>
<path fill-rule="evenodd" clip-rule="evenodd" d="M143.37 39.5814C143.37 39.1868 143.69 38.8669 144.084 38.8669H148.371C148.766 38.8669 149.086 39.1868 149.086 39.5814C149.086 39.976 148.766 40.2959 148.371 40.2959H144.084C143.69 40.2959 143.37 39.976 143.37 39.5814Z" fill="black"/>
<path fill-rule="evenodd" clip-rule="evenodd" d="M144.084 37.7236C145.031 37.7236 145.799 38.4914 145.799 39.4384V43.7254C145.799 44.6724 145.031 45.4401 144.084 45.4401C143.137 45.4401 142.37 44.6724 142.37 43.7254V39.4384C142.37 38.4914 143.137 37.7236 144.084 37.7236Z" fill="black"/>
<path fill-rule="evenodd" clip-rule="evenodd" d="M126.937 37.7236C127.884 37.7236 128.652 38.4914 128.652 39.4384V43.7254C128.652 44.6724 127.884 45.4401 126.937 45.4401C125.99 45.4401 125.222 44.6724 125.222 43.7254V39.4384C125.222 38.4914 125.99 37.7236 126.937 37.7236Z" fill="black"/>
<path fill-rule="evenodd" clip-rule="evenodd" d="M140.869 34.4371C140.869 33.9636 141.253 33.5797 141.727 33.5797H149.8C150.274 33.5797 150.658 33.9636 150.658 34.4371C150.658 34.9106 150.274 35.2945 149.8 35.2945H141.727C141.253 35.2945 140.869 34.9106 140.869 34.4371Z" fill="#271E1E"/>
<path fill-rule="evenodd" clip-rule="evenodd" d="M120.292 34.4371C120.292 33.9636 120.676 33.5797 121.15 33.5797H129.294C129.768 33.5797 130.152 33.9636 130.152 34.4371C130.152 34.9106 129.768 35.2945 129.294 35.2945H121.15C120.676 35.2945 120.292 34.9106 120.292 34.4371Z" fill="#271E1E"/>
<path d="M134.5 42.3373L136.521 43.6848C135.834 44.7153 135.296 46.262 135.296 47.3873C135.296 48.4723 135.688 48.9284 136.888 48.941L136.939 48.9413V51.3706C134.29 51.3706 132.867 49.7699 132.867 47.3873C132.867 45.7732 133.538 43.8139 134.45 42.4131L134.5 42.3373Z" fill="#EBBAAA"/>
<path d="M148.565 34.6474C145.712 32.7627 140.341 25.0099 138.011 21.3691C151.488 17.8712 157.121 27.8654 158.262 34.6474C159.403 41.4292 159.518 42.7843 159.589 43.8683C159.803 47.155 160.116 49.0841 160.116 51.5675C160.354 61.3239 162.987 79.2072 160.116 80.6211C156.348 82.4772 141.553 82.9648 146.014 78.0924C148.565 75.3059 150.358 69.0644 151.658 61.6591C153.419 51.6258 154.241 40.2323 153.913 39.2876C153.342 37.6457 152.13 37.0032 148.565 34.6474Z" fill="#2D2427"/>
<path d="M123.457 34.6474C126.309 32.7627 131.681 25.0099 134.01 21.3691C120.533 17.8712 114.9 27.8654 113.759 34.6474C112.618 41.4292 112.647 41.7963 112.289 45.0115C112.194 45.8752 111.983 48.3696 111.905 51.5675C111.667 61.3239 109.034 79.2072 111.905 80.6211C115.673 82.4772 129.433 82.2752 126.079 78.1639C123.457 74.9487 121.542 69.4962 120.149 61.3733C118.531 51.9421 117.802 40.1697 118.109 39.2876C118.679 37.6457 119.891 37.0032 123.457 34.6474Z" fill="#2D2427"/>
<path fill-rule="evenodd" clip-rule="evenodd" d="M135.509 5C135.51 5 135.507 5 135.509 5C136.22 5 137.444 5.36017 137.894 6.28609C138.131 6.77469 138.093 7.12032 138.053 7.71506C137.559 7.08748 136.218 6.66715 135.509 6.66715C134.613 6.66715 133.667 7.17269 132.965 7.71506C132.932 7.11748 132.886 6.77469 133.124 6.28609C133.573 5.36017 134.779 4.99999 135.509 5Z" fill="#272727"/>
<path fill-rule="evenodd" clip-rule="evenodd" d="M135.566 6.42909C135.576 6.42909 135.555 6.42906 135.566 6.42909C141.968 6.42909 152.984 9.67062 157.031 18.0039C159.166 22.4012 158.825 25.512 158.462 30.8647C154.02 25.2165 141.951 21.4334 135.566 21.4334C127.502 21.4334 118.988 25.9833 112.67 30.8647C112.38 25.4864 111.966 22.4012 114.101 18.0039C118.147 9.67062 128.996 6.429 135.566 6.42909Z" fill="#614D4E"/>
<path fill-rule="evenodd" clip-rule="evenodd" d="M135.572 17.8608C135.582 17.8608 135.563 17.8608 135.572 17.8608C144.201 17.8608 158.059 21.4749 156.955 33.7225C152.807 29.7545 141.536 27.398 135.572 27.398C128.041 27.398 120.09 30.2933 114.19 33.7225C113.292 21.1738 126.794 17.8608 135.572 17.8608Z" fill="#715E5F"/>
<path d="M128.174 10.6658H127.314L126.936 12.613H125.444L125.822 10.6658H124.962L124.03 15.3814H124.89L125.288 13.3812H126.78L126.382 15.3814H127.243L128.174 10.6658Z" fill="white"/>
<path fill-rule="evenodd" clip-rule="evenodd" d="M131.187 10.6658L131.89 15.3814H130.993L130.893 14.5204H129.28L128.832 15.3814H127.888L130.485 10.6658H131.187ZM129.642 13.8051H130.826L130.598 11.9904L129.642 13.8051Z" fill="white"/>
<path fill-rule="evenodd" clip-rule="evenodd" d="M134.921 10.6658C135.716 10.6658 136.177 11.1757 136.177 11.9109C136.177 12.752 135.572 13.5534 134.448 13.5534H133.547L133.186 15.3814H132.318L133.258 10.6658H134.921ZM134.481 12.7785C135.046 12.7785 135.302 12.3414 135.302 11.9838C135.302 11.6857 135.164 11.4407 134.777 11.4407H133.975L133.705 12.7785H134.481Z" fill="white"/>
<path fill-rule="evenodd" clip-rule="evenodd" d="M138.922 10.6658C139.718 10.6658 140.178 11.1757 140.178 11.9109C140.178 12.752 139.573 13.5534 138.449 13.5534H137.549L137.187 15.3814H136.319L137.259 10.6658H138.922ZM138.482 12.7785C139.047 12.7785 139.304 12.3414 139.304 11.9838C139.304 11.6857 139.165 11.4407 138.778 11.4407H137.976L137.706 12.7785H138.482Z" fill="white"/>
<path d="M144.179 10.6658H143.224L142.02 12.6196L141.522 10.6658H140.606L141.45 13.4475L141.064 15.3814H141.928L142.308 13.4806L144.179 10.6658Z" fill="white"/>
<path fill-rule="evenodd" clip-rule="evenodd" d="M144.999 10.6658H146.037L145.182 13.8975H144.552L144.999 10.6658ZM144.681 14.3921C144.959 14.3921 145.189 14.623 145.189 14.8934C145.189 15.1638 144.959 15.3814 144.681 15.3814C144.403 15.3814 144.179 15.1638 144.179 14.8934C144.179 14.623 144.403 14.3921 144.681 14.3921Z" fill="white"/>
<path fill-rule="evenodd" clip-rule="evenodd" d="M129.352 9.81322C129.597 9.4547 130.003 9.23669 130.44 9.23669H131.133C131.584 9.23669 131.988 9.46643 132.227 9.82304C132.467 9.46538 132.872 9.23669 133.322 9.23669H134.992C135.473 9.23669 135.948 9.34777 136.364 9.59207C136.602 9.36993 136.919 9.23669 137.262 9.23669H138.933C139.29 9.23669 139.645 9.29827 139.975 9.43056C140.179 9.3054 140.416 9.23669 140.661 9.23669H141.585C141.909 9.23669 142.211 9.35545 142.444 9.55666C142.68 9.35297 142.983 9.23669 143.302 9.23669H144.266C144.391 9.23669 144.512 9.25432 144.629 9.28778C144.744 9.25447 144.866 9.23669 144.992 9.23669H146.002C146.41 9.23669 146.795 9.42724 147.046 9.75283C147.296 10.0784 147.383 10.5025 147.281 10.9015L146.449 14.167C146.438 14.2083 146.426 14.2488 146.412 14.2883C146.467 14.4641 146.497 14.6503 146.497 14.8414C146.497 15.8739 145.658 16.6674 144.681 16.6674C144.063 16.6674 143.518 16.3554 143.192 15.8788C142.978 16.3393 142.517 16.6474 141.995 16.6474H141.123C140.727 16.6474 140.352 16.468 140.101 16.1585C139.85 15.8491 139.75 15.4424 139.828 15.0506L139.947 14.4569C139.557 14.6605 139.114 14.7797 138.637 14.8036L138.485 15.575C138.362 16.1985 137.819 16.6474 137.189 16.6474H136.318C135.922 16.6474 135.547 16.4682 135.296 16.1592C135.045 15.8501 134.945 15.4438 135.023 15.0521L135.08 14.7628C134.955 14.7834 134.827 14.797 134.697 14.8036L134.544 15.575C134.421 16.1985 133.879 16.6474 133.249 16.6474H132.377C132.284 16.6474 132.192 16.6374 132.102 16.6181C132.012 16.6374 131.92 16.6474 131.827 16.6474H130.942C130.507 16.6474 130.117 16.4341 129.875 16.1009C129.629 16.4411 129.234 16.6474 128.809 16.6474H127.878C127.783 16.6474 127.69 16.6372 127.599 16.6175C127.509 16.6371 127.416 16.6474 127.32 16.6474H126.449C126.175 16.6474 125.912 16.562 125.693 16.4074C125.477 16.5595 125.215 16.6474 124.937 16.6474H124.065C123.669 16.6474 123.294 16.4682 123.043 16.1592C122.792 15.8501 122.692 15.4438 122.77 15.0521L123.714 10.3071C123.838 9.6846 124.38 9.23669 125.009 9.23669H125.881C126.154 9.23669 126.418 9.32211 126.637 9.47673C126.853 9.32465 127.114 9.23669 127.393 9.23669H128.265C128.661 9.23669 129.036 9.4159 129.287 9.72495C129.31 9.75358 129.332 9.78303 129.352 9.81322ZM145.052 15.1679C145.112 15.1001 145.154 15.0155 145.17 14.9219C145.174 14.8957 145.176 14.8688 145.176 14.8414C145.176 14.814 145.174 14.7869 145.17 14.7605C145.131 14.5237 144.925 14.3349 144.681 14.3349C144.638 14.3349 144.596 14.3409 144.556 14.3521C144.346 14.4107 144.192 14.612 144.192 14.8414C144.192 14.9544 144.192 15.1679 144.556 15.3345C144.867 15.3345 145.052 15.1679 145.052 15.1679ZM144.556 13.8351H145.17L146.002 10.5696H144.992L144.556 13.8351ZM131.133 10.5696H130.44L127.878 15.3145H128.809L129.251 14.4482H130.843L130.942 15.3145H131.827L131.133 10.5696ZM130.552 11.9024L129.608 13.7284H130.777L130.552 11.9024ZM132.377 15.3145H133.249L133.612 13.4752H134.517C134.528 13.4752 134.539 13.4751 134.55 13.475C134.867 13.4705 135.143 13.4018 135.374 13.2862C135.927 13.0102 136.228 12.4673 136.252 11.8958C136.253 11.8714 136.254 11.8469 136.254 11.8224C136.254 11.4169 136.115 11.0795 135.858 10.8573C135.646 10.6743 135.353 10.5696 134.992 10.5696H133.322L132.377 15.3145ZM135.171 12.4364C135.31 12.2807 135.375 12.078 135.375 11.8958C135.375 11.8709 135.375 11.8465 135.373 11.8224C135.367 11.756 135.354 11.6931 135.332 11.6363C135.328 11.6278 135.325 11.6195 135.321 11.6113C135.264 11.4872 135.16 11.3953 134.992 11.3625C134.949 11.3538 134.9 11.3493 134.847 11.3493H134.042L133.771 12.6955H134.55C134.608 12.6955 134.663 12.6909 134.715 12.6821C134.73 12.6797 134.744 12.6769 134.759 12.6737C134.789 12.667 134.819 12.6588 134.847 12.6492C134.981 12.6038 135.089 12.5283 135.171 12.4364ZM136.318 15.3145H137.189L137.553 13.4752H138.457C138.468 13.4752 138.479 13.4751 138.49 13.475C139.173 13.4654 139.662 13.1581 139.936 12.7274C140.093 12.4799 140.18 12.1917 140.192 11.8958C140.194 11.8714 140.194 11.8469 140.194 11.8224C140.194 11.4078 140.049 11.0643 139.78 10.8425C139.659 10.7419 139.511 10.6663 139.341 10.6205C139.217 10.5871 139.081 10.5696 138.933 10.5696H137.262L136.318 15.3145ZM139.111 12.4364C139.25 12.2807 139.316 12.078 139.316 11.8958C139.316 11.8709 139.315 11.8465 139.313 11.8224C139.307 11.756 139.294 11.6931 139.272 11.6363C139.268 11.6278 139.265 11.6195 139.261 11.6113C139.205 11.4872 139.1 11.3953 138.933 11.3625C138.889 11.3538 138.841 11.3493 138.788 11.3493H137.982L137.711 12.6955H138.49C138.549 12.6955 138.604 12.6909 138.655 12.6821C138.67 12.6797 138.685 12.6769 138.699 12.6737C138.73 12.667 138.759 12.6588 138.788 12.6492C138.922 12.6038 139.029 12.5283 139.111 12.4364ZM141.123 15.3145H141.995L142.378 13.4019L144.266 10.5696H143.302L142.087 12.5355L141.585 10.5696H140.661L141.513 13.3686L141.123 15.3145ZM126.449 15.3145L126.852 13.3019H125.339L124.937 15.3145H124.065L125.009 10.5696H125.881L125.498 12.5289H127.01L127.393 10.5696H128.265L127.32 15.3145H126.449Z" fill="#3F3334"/>
<path d="M133.32 41.1758C134.089 37.6038 131.917 34.1394 128.378 33.2927L125.547 32.6154C125.11 32.5108 124.662 32.4493 124.21 32.4323L122.264 32.3586C118.394 32.2121 115.075 35.2638 114.923 39.1077L114.79 42.4879C114.686 45.122 116.118 47.5375 118.472 48.6956L119.393 49.149C121.061 49.9702 123.016 50.0684 124.802 49.4205L128.409 48.1115C130.709 47.277 132.43 45.3159 132.939 42.9496L133.32 41.1758Z" fill="#302F35" fill-opacity="0.98"/>
<path fill-rule="evenodd" clip-rule="evenodd" d="M114.637 39.0964C114.795 35.0933 118.249 31.9207 122.275 32.073L124.221 32.1467C124.221 32.1467 124.221 32.1467 124.221 32.1467C124.691 32.1645 125.158 32.2285 125.614 32.3374L128.445 33.0148C128.445 33.0148 128.445 33.0148 128.445 33.0148C132.135 33.8978 134.4 37.5132 133.6 41.236L133.218 43.0098C132.688 45.4735 130.897 47.5126 128.506 48.3802L124.899 49.6892C123.042 50.363 121.007 50.2618 119.267 49.4054L118.345 48.952C118.345 48.952 118.345 48.952 118.345 48.952C115.89 47.7437 114.396 45.2229 114.504 42.4767C114.504 42.4767 114.504 42.4767 114.504 42.4767L114.637 39.0964ZM115.209 39.119C115.209 39.119 115.209 39.119 115.209 39.119L115.075 42.4992C114.976 45.0211 116.347 47.3313 118.598 48.4392L119.519 48.8926C119.519 48.8926 119.519 48.8926 119.519 48.8926C121.116 49.6786 122.99 49.7738 124.704 49.1519L128.311 47.8429C130.52 47.0415 132.171 45.1583 132.659 42.8895L133.041 41.1158C133.777 37.6945 131.698 34.381 128.312 33.5707L125.481 32.8934C125.062 32.7931 124.632 32.7342 124.199 32.7179L122.253 32.6442C122.253 32.6442 122.253 32.6442 122.253 32.6442C118.539 32.5036 115.354 35.4345 115.209 39.119Z" fill="#C9A38D"/>
<path d="M137.641 41.6183C136.937 38.0446 139.143 34.4612 142.661 33.4621L145.427 32.6766C145.864 32.5524 146.312 32.472 146.762 32.4365L148.646 32.288C152.481 31.986 155.72 34.9298 155.812 38.8011L155.893 42.2202C155.956 44.8729 154.502 47.3689 152.155 48.6357L151.281 49.1076C149.608 50.0109 147.659 50.1892 145.893 49.6007L142.388 48.4328C140.128 47.6796 138.459 45.7713 137.993 43.4074L137.641 41.6183Z" fill="#302F35" fill-opacity="0.98"/>
<path fill-rule="evenodd" clip-rule="evenodd" d="M148.669 32.573C148.669 32.573 148.669 32.573 148.669 32.573L146.785 32.7215C146.353 32.7554 145.924 32.8325 145.505 32.9516C145.505 32.9516 145.505 32.9516 145.505 32.9516L142.739 33.7371C139.363 34.6959 137.247 38.1363 137.922 41.5631L138.274 43.3522C138.274 43.3522 138.274 43.3522 138.274 43.3522C138.72 45.6167 140.317 47.4415 142.479 48.1617L145.983 49.3296C145.983 49.3296 145.983 49.3296 145.983 49.3296C147.673 49.8926 149.54 49.7228 151.145 48.8562L152.019 48.3843C154.272 47.1682 155.668 44.7717 155.607 42.227L155.526 38.8079C155.438 35.0986 152.338 32.284 148.669 32.573ZM148.624 32.0032C152.624 31.6881 156.001 34.7611 156.097 38.7943L156.179 42.2134C156.244 44.9743 154.732 47.5698 152.291 48.8873L151.417 49.3591C149.676 50.299 147.645 50.4859 145.803 49.8719L142.298 48.704C139.939 47.9178 138.198 45.9261 137.713 43.4627L137.361 41.6736C136.628 37.9529 138.922 34.2267 142.583 33.1872C142.583 33.1872 142.583 33.1872 142.583 33.1872L145.349 32.4017C145.804 32.2724 146.27 32.1886 146.74 32.1517C146.74 32.1517 146.74 32.1517 146.74 32.1517L148.624 32.0032Z" fill="#C9A38D"/>
<path d="M132.401 36.3383C134.383 35.3471 136.482 35.3378 138.588 36.2918L138.67 36.3295L138.067 37.6253C136.348 36.826 134.702 36.8112 133.113 37.5804L133.04 37.6164L132.401 36.3383Z" fill="#C9A38D"/>
<path d="M124.799 31.0764C124.854 30.9713 124.983 30.9303 125.088 30.9848L125.516 31.2056C130.062 33.5403 132.529 34.4287 135.25 34.5421C138.382 34.6727 141.736 33.6271 146.641 30.9864C146.745 30.9302 146.875 30.9692 146.931 31.0735C146.987 31.1777 146.948 31.3077 146.844 31.3638C141.878 34.0378 138.455 35.1048 135.232 34.9705C132.346 34.8502 129.765 33.8924 124.891 31.3654C124.786 31.3109 124.745 31.1815 124.799 31.0764Z" fill="#C9A38D"/>
</svg>
