<svg width="77" height="202" viewBox="0 0 77 202" fill="none" xmlns="http://www.w3.org/2000/svg">
<path d="M35.4098 148.212C44.2619 148.212 51.4381 144.813 51.4381 140.619C51.4381 136.426 44.2619 133.027 35.4098 133.027C26.5575 133.027 19.3813 136.426 19.3813 140.619C19.3813 144.813 26.5575 148.212 35.4098 148.212Z" fill="#1B1E21"/>
<path d="M47.2317 165.976C49.2805 165.976 50.9453 167.62 50.9784 169.661L50.9789 169.723V193.039C50.9789 195.109 49.3012 196.786 47.2317 196.786C45.1829 196.786 43.5181 195.142 43.485 193.101L43.4845 193.039V169.723C43.4845 167.654 45.1622 165.976 47.2317 165.976Z" fill="#EBBAAA"/>
<path d="M27.942 165.998C29.9787 165.776 31.8123 167.229 32.0669 169.254L32.0741 169.316L34.3958 190.561C34.6207 192.619 33.1352 194.469 31.0779 194.693C29.0412 194.916 27.2076 193.462 26.953 191.437L26.9458 191.375L24.6241 170.13C24.3992 168.073 25.8847 166.223 27.942 165.998Z" fill="#EBBAAA"/>
<path d="M34.2792 189.025C30.1712 189.858 27.4326 189.372 26.7155 189.025L27.1318 193.675L31.5035 195.756L34.8344 192.981C34.6956 191.801 34.418 190.413 34.2792 189.025Z" fill="#3F4248"/>
<path d="M43.4391 189.164C47.5471 189.997 50.2858 189.511 51.0029 189.164V193.813L46.6311 195.895L43.3003 193.119C43.4391 191.94 43.3003 190.552 43.4391 189.164Z" fill="#3F4248"/>
<path d="M18.1804 132.124H36.9164L36.2225 184.376V187.736H23.4543L22.8833 183.475L18.1804 132.124Z" fill="#1B1E21"/>
<path d="M36.7378 132.959H55.5374L54.717 184.029L53.8843 187.915L41.81 188.748L41.3574 184.584L36.7378 132.959Z" fill="#1B1E21"/>
<path d="M22.6213 186.805H36.4999V190.136H23.0079L22.6213 186.805Z" fill="#0A0A0B"/>
<path d="M41.3574 187.083H54.4032L53.8481 190.136H41.8769L41.3574 187.083Z" fill="#0A0A0B"/>
<path d="M66.779 198.879C66.779 194.618 64.0413 194.098 59.5792 192.638C57.3938 191.923 55.1635 191.3 52.9005 190.925C51.4784 190.689 51.0963 191.94 48.5981 191.94C46.3704 191.94 43.5911 190.836 43.0155 190.598C42.9433 190.567 42.8577 190.541 42.8003 190.594C42.7864 190.606 42.7747 190.623 42.766 190.639C42.4999 191.186 41.1037 194.167 41.1037 196.553C41.1037 198.378 40.9475 200.173 41.4507 201.1C41.6778 201.517 43.0955 201.746 43.5715 201.746H66.0069C66.4333 201.746 66.779 199.305 66.779 198.879Z" fill="#678EAB"/>
<mask id="mask0" mask-type="alpha" maskUnits="userSpaceOnUse" x="41" y="190" width="26" height="12">
<path fill-rule="evenodd" clip-rule="evenodd" d="M66.7785 198.879C66.7785 196.691 66.056 195.489 64.7484 194.639C58.5266 190.601 50.4592 190.411 43.0463 190.136C42.9856 190.136 42.792 190.585 42.7655 190.64C42.4994 191.186 41.1033 194.167 41.1033 196.553C41.1033 198.378 40.947 200.173 41.4502 201.1C41.6773 201.518 43.095 201.747 43.571 201.747H66.0065C66.4328 201.747 66.7785 199.305 66.7785 198.879Z" fill="white"/>
</mask>
<g mask="url(#mask0)">
<path d="M63.5175 195.965C65.6687 195.965 66.27 194.716 66.5014 194.508C66.9177 194.993 66.5708 196.95 66.8483 197.838C67.1259 198.727 66.7326 199.597 66.5014 199.92L47.1408 200.822C47.0251 198.972 46.8633 195.271 47.1408 195.271C47.4878 195.271 49.7084 192.287 50.888 192.218C51.8318 192.162 56.4163 193.352 58.5906 193.953C58.313 194.23 57.8551 195.646 57.6885 196.312C57.4803 197.145 57.4109 197.145 58.1743 197.353C58.9376 197.561 59.0764 195.965 59.9091 195.965H63.5175Z" fill="#35455F"/>
<path d="M48.8064 195.34C48.4733 194.785 43.1162 193.998 40.965 193.744L39.9935 199.712L50.8188 200.336C50.2867 198.903 49.1395 195.895 48.8064 195.34Z" fill="#071427"/>
<path d="M54.4965 199.642C58.0355 199.504 61.0888 200.336 64.9748 199.504C71.914 198.74 68.3488 199.194 70.1098 202.569H42.8963C40.2016 201.932 39.3075 198.006 41.3119 198.324C45.6836 199.018 51.7886 199.749 54.4965 199.642Z" fill="#D1CEC8"/>
<path d="M40.271 199.504C41.2147 199.892 54.0107 199.92 54.4271 199.643C53.4556 199.434 46.3055 198.624 44.7121 198.532C42.2834 198.393 41.3581 198.209 40.271 198.255C39.8777 198.532 39.3273 199.115 40.271 199.504Z" fill="#DEDEDE"/>
<path d="M52.9741 190.465C53.1758 190.342 53.4387 190.406 53.5614 190.608C53.6841 190.809 53.6201 191.072 53.4184 191.195L53.2941 191.268C53.1302 191.362 52.8641 191.514 52.7509 191.582L52.6837 191.623L52.5944 191.68L55.626 190.982C56.0084 190.894 56.293 191.323 56.0755 191.639L56.0612 191.659L55.2317 192.742L58.6125 191.78C59.0295 191.662 59.3327 192.164 59.0473 192.477L59.0305 192.495L57.1854 194.325C57.0178 194.492 56.7471 194.491 56.5809 194.323C56.4213 194.162 56.4159 193.906 56.564 193.739L56.5833 193.718L57.2507 193.056L54.2253 193.917C53.8372 194.027 53.531 193.59 53.7549 193.265L53.769 193.246L54.6604 192.082L51.6085 192.784C51.3491 192.844 51.1012 192.655 51.0859 192.393L51.0852 192.368C51.0852 191.781 51.4899 191.357 52.2356 190.895L52.3277 190.839C52.5057 190.733 52.9093 190.504 52.9741 190.465Z" fill="#0980D0"/>
<path fill-rule="evenodd" clip-rule="evenodd" d="M52.0407 189.101C52.0627 187.86 52.8832 186.944 53.9637 186.944C54.4973 186.944 54.9319 187.167 55.2317 187.576C55.5196 187.969 55.6735 188.519 55.6735 189.152C55.6735 189.736 55.3262 190.262 54.7331 190.657C54.2076 191.007 53.5327 191.217 52.9664 191.217C52.6948 191.217 52.4953 191.168 52.3545 191.069C52.2239 190.978 52.1394 190.844 52.0902 190.656C52.0473 190.493 52.0308 190.294 52.03 190.006L52.0301 189.912L52.0389 189.354L52.0407 189.101ZM54.5422 188.082C54.4022 187.89 54.2234 187.799 53.9637 187.799C53.3667 187.799 52.8952 188.335 52.8952 189.152L52.8942 189.326L52.8859 189.836C52.8852 189.889 52.8849 189.928 52.8848 189.968L52.8859 190.096C52.8878 190.198 52.8926 190.279 52.9 190.342L52.9022 190.36L52.9226 190.361L52.9664 190.362C53.3615 190.362 53.8722 190.203 54.2593 189.945C54.6338 189.696 54.8186 189.416 54.8186 189.152C54.8186 188.69 54.7141 188.316 54.5422 188.082Z" fill="#0980D0"/>
<path fill-rule="evenodd" clip-rule="evenodd" d="M49.9516 188.81C49.5895 188.971 49.361 189.252 49.2793 189.618C49.201 189.966 49.2609 190.382 49.4497 190.807C49.6243 191.198 50.0166 191.445 50.5372 191.53C50.9977 191.606 51.5187 191.544 51.9031 191.373L51.9436 191.354C52.0748 191.291 52.1682 191.223 52.2316 191.148L52.2498 191.126L52.2582 191.114L52.2686 191.099L52.2775 191.081L52.2939 191.053C52.3042 191.035 52.3073 191.026 52.3149 191.004L52.3149 191.004L52.323 190.979L52.3296 190.953L52.3355 190.919C52.3434 190.863 52.342 190.801 52.3311 190.733C52.3128 190.62 52.2706 190.494 52.1983 190.325L52.1566 190.231L51.9422 189.768C51.9338 189.749 51.9254 189.73 51.916 189.709C51.5374 188.86 50.6937 188.48 49.9516 188.81ZM51.5581 190.789L51.493 190.776L51.4963 190.762L51.5067 190.726L51.5165 190.704L51.5388 190.656L51.5562 190.628L51.7183 190.49L51.7216 190.489C51.7633 190.474 51.8214 190.459 51.9106 190.437L51.5581 190.789ZM51.1351 190.057L51.117 190.018C50.9192 189.611 50.5802 189.466 50.2996 189.591C50.1855 189.641 50.1365 189.702 50.1135 189.805C50.0786 189.96 50.1122 190.192 50.2306 190.46C50.2733 190.555 50.4149 190.644 50.6758 190.687C50.9041 190.724 51.1636 190.709 51.3755 190.653L51.4052 190.645L51.3555 190.534L51.2112 190.224L51.1351 190.057Z" fill="#0980D0"/>
</g>
<path d="M11.1021 198.879C11.1021 194.618 13.8397 194.098 18.3017 192.638C20.4871 191.923 22.7175 191.3 24.9806 190.925C26.4027 190.689 26.7848 191.94 29.2829 191.94C31.5107 191.94 34.29 190.836 34.8655 190.598C34.9377 190.567 35.0232 190.541 35.0807 190.594C35.0945 190.606 35.1063 190.623 35.1149 190.639C35.381 191.186 36.7773 194.167 36.7773 196.553C36.7773 198.378 36.9336 200.173 36.4303 201.1C36.2033 201.517 34.7856 201.746 34.3094 201.746H11.874C11.4477 201.746 11.1021 199.305 11.1021 198.879Z" fill="#678EAB"/>
<mask id="mask1" mask-type="alpha" maskUnits="userSpaceOnUse" x="11" y="190" width="26" height="12">
<path fill-rule="evenodd" clip-rule="evenodd" d="M11.1028 198.879C11.1028 196.691 11.8253 195.489 13.1329 194.639C19.3547 190.601 27.422 190.411 34.835 190.136C34.8956 190.136 35.0892 190.585 35.1157 190.64C35.3817 191.186 36.778 194.167 36.778 196.553C36.778 198.378 36.9343 200.173 36.4311 201.1C36.204 201.518 34.7863 201.747 34.3102 201.747H11.8748C11.4484 201.747 11.1028 199.305 11.1028 198.879Z" fill="white"/>
</mask>
<g mask="url(#mask1)">
<path d="M14.3633 195.965C12.2122 195.965 11.6108 194.716 11.3794 194.508C10.9631 194.993 11.3101 196.95 11.0325 197.838C10.7549 198.727 11.1481 199.597 11.3794 199.92L30.74 200.822C30.8556 198.972 31.0176 195.271 30.74 195.271C30.393 195.271 28.1725 192.287 26.9928 192.218C26.0491 192.162 21.4646 193.352 19.2902 193.953C19.5678 194.23 20.0258 195.646 20.1923 196.312C20.4005 197.145 20.4699 197.145 19.7066 197.353C18.9433 197.561 18.8045 195.965 17.9718 195.965H14.3633Z" fill="#35455F"/>
<path d="M29.0748 195.34C29.4078 194.785 34.765 193.998 36.9161 193.744L37.8876 199.712L27.0624 200.336C27.5943 198.903 28.7417 195.895 29.0748 195.34Z" fill="#071427"/>
<path d="M23.3846 199.642C19.8456 199.504 16.7923 200.336 12.9063 199.504C5.96702 198.74 9.53219 199.194 7.77124 202.569H34.9848C37.6794 201.932 38.5735 198.006 36.5692 198.324C32.1974 199.018 26.0923 199.749 23.3846 199.642Z" fill="#D1CEC8"/>
<path d="M37.6102 199.504C36.6665 199.892 23.8705 199.92 23.4541 199.643C24.4256 199.434 31.5757 198.624 33.1691 198.532C35.5978 198.393 36.5231 198.209 37.6102 198.255C38.0034 198.532 38.5539 199.115 37.6102 199.504Z" fill="#DEDEDE"/>
<path d="M24.3195 190.608C24.4421 190.406 24.7051 190.342 24.9068 190.465L25.1235 190.59C25.2896 190.686 25.5018 190.808 25.5928 190.863C26.3721 191.337 26.7958 191.767 26.7958 192.368C26.7958 192.634 26.556 192.833 26.2976 192.789L26.2725 192.784L23.2206 192.082L24.112 193.246C24.3573 193.566 24.0635 194.011 23.6789 193.923L23.6557 193.917L20.6301 193.056L21.2976 193.718C21.4585 193.878 21.4659 194.134 21.3191 194.302L21.3 194.323C21.1404 194.484 20.8846 194.491 20.7161 194.344L20.6955 194.325L18.8505 192.495C18.5428 192.189 18.8325 191.679 19.245 191.774L19.2685 191.78L22.6491 192.742L21.8198 191.659C21.5812 191.347 21.8531 190.911 22.2313 190.977L22.255 190.982L25.2864 191.68L25.1973 191.623L25.1085 191.569C24.9399 191.47 24.5404 191.242 24.4625 191.195C24.2608 191.072 24.1968 190.809 24.3195 190.608Z" fill="#0980D0"/>
<path fill-rule="evenodd" clip-rule="evenodd" d="M22.6489 187.577C22.9491 187.167 23.3837 186.944 23.9173 186.944C25.0128 186.944 25.8409 187.886 25.8409 189.152L25.8417 189.314L25.8509 189.902L25.8507 190.062C25.8478 190.321 25.8308 190.504 25.7908 190.656C25.7417 190.844 25.6575 190.978 25.5271 191.069C25.3852 191.168 25.1861 191.217 24.9148 191.217C24.3485 191.217 23.6735 191.007 23.1479 190.657C22.5549 190.262 22.2076 189.736 22.2076 189.152C22.2076 188.519 22.3615 187.968 22.6489 187.577ZM24.9855 189.107C24.9685 188.315 24.5033 187.799 23.9173 187.799C23.6576 187.799 23.4789 187.89 23.3385 188.082C23.167 188.316 23.0625 188.69 23.0625 189.152C23.0625 189.416 23.2473 189.696 23.6217 189.945C24.0089 190.203 24.5196 190.362 24.9148 190.362C24.9356 190.362 24.9545 190.362 24.9717 190.361L24.9786 190.36L24.9811 190.342C24.9896 190.269 24.9947 190.173 24.996 190.046L24.9963 190.003C24.9963 189.977 24.9963 189.953 24.9961 189.926L24.9879 189.409L24.9855 189.107Z" fill="#0980D0"/>
<path fill-rule="evenodd" clip-rule="evenodd" d="M25.8553 189.948L25.7359 190.206C25.7279 190.223 25.7205 190.24 25.7135 190.255L25.7031 190.279C25.6185 190.471 25.5701 190.61 25.5501 190.732C25.5389 190.802 25.5375 190.863 25.5454 190.92L25.5522 190.958C25.5541 190.973 25.5559 190.984 25.5615 190.998L25.5698 191.016L25.5722 191.022C25.5768 191.034 25.5809 191.043 25.5899 191.059L25.6158 191.102L25.6149 191.103C25.6822 191.204 25.7974 191.293 25.9773 191.373C26.3624 191.544 26.8833 191.607 27.3444 191.531C27.8645 191.446 28.2568 191.198 28.4309 190.808C28.6202 190.382 28.68 189.967 28.6014 189.617C28.5198 189.253 28.2916 188.972 27.93 188.81C27.1999 188.486 26.372 188.847 25.9846 189.667L25.8553 189.948ZM25.9738 190.44L26.3107 190.621L26.3558 190.69C26.3605 190.698 26.3645 190.704 26.3679 190.71L26.3703 190.715L26.3729 190.722L26.3863 190.769C26.3869 190.771 26.3873 190.774 26.3879 190.777L26.3529 190.784L25.9738 190.44ZM26.5142 190.559L26.4757 190.645L26.5053 190.654C26.7012 190.705 26.9374 190.722 27.1525 190.695L27.2058 190.687C27.4661 190.644 27.6077 190.555 27.6499 190.461C27.7689 190.193 27.8024 189.96 27.7673 189.805C27.7443 189.702 27.6954 189.642 27.582 189.591C27.292 189.462 26.9405 189.621 26.7458 190.057L26.5142 190.559Z" fill="#0980D0"/>
</g>
<path d="M9.68116 93.9707C10.9712 91.4451 14.0644 90.4435 16.59 91.7335C19.1156 93.0235 20.1173 96.1167 18.8273 98.6424C16.9426 102.332 15.7489 108.317 15.9766 113.807C16.2198 119.668 17.9782 124.12 20.9018 126.308L20.9908 126.373C23.2851 128.04 23.7935 131.252 22.1265 133.546C20.4594 135.84 17.2481 136.349 14.9538 134.682C9.03023 130.378 6.07871 122.992 5.71535 114.232C5.41685 107.036 6.96046 99.2974 9.68116 93.9707Z" fill="#EBBAAA"/>
<path d="M56.5609 88.6786C59.031 87.2852 62.163 88.158 63.5564 90.6282C67.0808 96.8761 69.2432 105.48 69.4286 113.511C69.5244 117.657 69.0891 121.519 68.0909 124.817C66.8997 128.752 64.9113 131.902 62.0108 133.914C59.6806 135.531 56.4811 134.952 54.8646 132.622C53.2643 130.315 53.8153 127.156 56.0875 125.525L56.1569 125.476C57.967 124.22 59.3013 119.812 59.1613 113.748C59.0131 107.334 57.2651 100.379 54.6113 95.674C53.2179 93.2039 54.0908 90.0719 56.5609 88.6786Z" fill="#EBBAAA"/>
<path d="M19.2295 83.2873C19.3454 78.5109 23.1692 74.6543 27.9441 74.4983L39.0919 74.1336C40.0003 74.105 40.9101 74.1522 41.8099 74.2767L52.6916 75.7815C57.4923 76.4452 60.9084 80.7853 60.4249 85.6075L58.3664 106.132L59.3991 135.537C59.4092 135.789 47.4391 135.55 47.1874 135.537H27.9441L17.0066 133.887C16.7648 133.874 16.5803 133.663 16.6004 133.422L18.7375 103.576L19.2295 83.2873Z" fill="#1D1E1F"/>
<path d="M37.3491 86.5708C42.8794 86.5708 47.3624 82.0876 47.3624 76.5573C47.3624 71.0271 42.8794 66.5439 37.3491 66.5439C31.8187 66.5439 27.3356 71.0271 27.3356 76.5573C27.3356 82.0876 31.8187 86.5708 37.3491 86.5708Z" fill="#363535"/>
<path d="M31.9209 71.0457C31.9209 68.1398 34.2765 65.7842 37.1824 65.7842H38.8725C41.7784 65.7842 44.134 68.1398 44.134 71.0457V77.0381C44.134 79.944 41.7783 82.2996 38.8725 82.2996H37.1824C34.2765 82.2996 31.9209 79.944 31.9209 77.0381V71.0457Z" fill="#EBBAAA"/>
<path d="M11.265 82.9677C12.8728 77.5398 18.5763 74.443 24.0042 76.0508C29.432 77.6586 32.5288 83.3622 30.921 88.79L22.5673 116.992C20.9595 122.42 15.2559 125.516 9.82807 123.909C4.40021 122.301 1.30344 116.597 2.91124 111.169L11.265 82.9677Z" fill="#1E4295"/>
<path d="M11.5014 132.022C9.4153 130.302 4.13017 121.061 2.91455 116.927L16.5056 109.808C17.8002 115.194 21.1699 121.266 23.6375 127.725L23.6199 127.737C21.1855 129.382 14.1029 134.167 11.5014 132.022Z" fill="#1E4295"/>
<path d="M10.8304 131.374L14.8023 128.958C17.5293 127.299 21.2433 125.526 22.6662 124.661L23.5778 127.761C22.1757 128.75 18.6425 131.024 15.7269 132.213C12.8114 133.402 11.2478 132.149 10.8304 131.374Z" fill="#172F72"/>
<path d="M6.10633 109.64L16.1683 112.693L5.20422 111.653L6.10633 109.64Z" fill="#172F72"/>
<path d="M8.60461 113.665L16.3767 113.249L9.6455 115.4L8.60461 113.665Z" fill="#172F72"/>
<path d="M64.3643 82.974C62.6985 77.153 56.6293 73.7845 50.8082 75.4502C44.9872 77.116 41.6187 83.1853 43.2844 89.0063L52.0788 119.738C53.7446 125.559 59.8138 128.928 65.6349 127.262C71.4559 125.596 74.8244 119.527 73.1587 113.706L64.3643 82.974Z" fill="#1E4295"/>
<path d="M38.9988 111.444C38.8886 102.124 35.8068 89.3293 35.8068 84.867C34.8353 84.867 33.8638 84.7282 33.1698 84.3119C33.2073 80.7253 33.461 77.0472 31.9367 73.6948L20.0673 75.9809C18.2184 78.5252 14.9655 86.1271 14.4436 100.688C14.0286 112.26 14.4576 120.058 14.4436 127.543C14.4398 129.477 17.2095 130.899 17.2095 136.104C19.4935 136.764 31.4943 138.452 38.9988 136.104C40.3867 126.988 39.162 125.242 38.9988 111.444Z" fill="#173988"/>
<path d="M28.3121 133.858C25.2033 134.081 19.7074 133.095 16.5154 131.985V136.704C18.3196 138.091 22.9689 137.953 25.5364 137.953C28.7285 137.953 33.8635 138.924 39.4149 138.091L39.1374 133.858C37.1944 134.275 31.4209 133.636 28.3121 133.858Z" fill="#172F72"/>
<path d="M66.4235 132.042C68.3686 130.164 72.3919 123.285 73.2799 119.068L59.6941 110.288C58.8254 115.759 54.6242 119.7 52.6703 126.332C55.2087 127.771 63.9924 134.39 66.4235 132.042Z" fill="#1E4295"/>
<path d="M61.2581 128.263C59.4144 127.331 54.8496 124.789 53.3636 124.038C52.877 124.129 52.7721 125.823 53.5375 126.77C54.4942 127.953 59.9737 130.957 63.0714 132.213C65.5495 133.217 66.6923 132.126 66.9539 131.454C65.7474 130.611 63.9209 129.61 61.2581 128.263Z" fill="#172F72"/>
<path d="M69.1845 108.391L59.1226 111.444L70.0866 110.403L69.1845 108.391Z" fill="#172F72"/>
<path d="M67.3108 112.832L59.5388 112.416L66.2699 114.567L67.3108 112.832Z" fill="#172F72"/>
<path d="M37.8885 109.779C37.8885 96.4271 39.3455 88.9642 39.3455 84.6463C40.1088 84.6463 40.8652 84.8545 41.913 84.5075C42.4103 80.8158 43.7542 76.5932 45.1584 73.4175L53.2139 74.7165C55.2177 75.0396 56.9764 76.2048 57.4219 78.1852C58.4092 82.5744 58.976 90.7719 59.8774 101.469C60.7881 112.277 60.3358 121.374 60.7881 128.793C60.9293 131.107 57.752 134.879 57.8736 136.388C53.8823 136.956 45.7829 138.66 38.7213 136.388C38.7213 127.298 37.8885 123.131 37.8885 109.779Z" fill="#173988"/>
<path d="M47.7421 134.622C50.8509 134.844 56.9019 134.553 59.5388 132.401L59.8164 137.259C57.0407 137.953 53.2241 138.508 52.1832 138.508C47.6882 138.508 43.8561 139.202 38.3047 138.369V133.72C40.2477 134.136 44.6333 134.4 47.7421 134.622Z" fill="#172F72"/>
<path d="M36.431 128.654C36.431 124.879 35.8526 101.452 34.8349 90.3495L33.3777 84.5205L36.3614 84.6593C36.5989 86.5841 37.1249 87.9207 37.9576 91.9455L39.3453 84.6593L41.7047 84.5205C41.7047 87.1112 40.6639 92.9031 40.6639 95.3458V138.647L36.431 138.369V128.654Z" fill="#143481"/>
<path d="M37.1255 91.7655L38.79 91.709L38.8235 92.7147C39.3619 109.132 39.7003 133.092 39.3542 138.344L39.3433 138.5L37.6824 138.377C38.0438 133.499 37.6935 108.786 37.1423 92.2636L37.1255 91.7655Z" fill="#122865"/>
<path d="M53.1113 75.4991C54.6657 74.7219 51.1683 73.1398 49.6416 72.3071C48.3926 71.9369 45.6446 71.0858 44.0902 73.4174C43.0363 74.9984 40.0392 80.079 39.34 84.659C38.582 88.4062 38.6029 89.5386 39.6923 88.198C47.8112 78.2054 51.1683 76.4706 53.1113 75.4991Z" fill="#172F72"/>
<path d="M23.1774 75.7765C21.623 74.9993 25.1204 73.4171 26.647 72.5844C27.8961 72.2143 30.644 71.3631 32.1984 73.6947C33.28 75.3171 35.3065 80.2394 36.5005 85.2139C37.3332 88.6835 37.1477 89.0999 36.5005 88.4059C28.7979 80.1482 25.1204 76.748 23.1774 75.7765Z" fill="#172F72"/>
<path fill-rule="evenodd" clip-rule="evenodd" d="M38.7211 91.4595H37.1251L36.9863 92.5698L36.553 95.4583C36.4524 96.1296 36.9723 96.7333 37.6511 96.7333H38.1953C38.8741 96.7333 39.394 96.1296 39.2932 95.4583L38.8599 92.5698L38.7211 91.4595ZM37.3331 92.8473L37.4719 91.8758H38.4508L38.5822 92.8473H37.3331ZM37.5567 96.1782H38.3765C38.7704 96.1782 39.0659 95.8182 38.9891 95.4318C38.931 95.1396 38.6745 94.9291 38.3765 94.9291H37.5567C37.264 94.9291 37.0106 95.1324 36.947 95.4182C36.8604 95.8082 37.1572 96.1782 37.5567 96.1782Z" fill="#09193F"/>
<path d="M37.5188 91.2492L37.6024 92.1088C37.6202 92.2916 37.7738 92.431 37.9575 92.431C38.1413 92.431 38.2949 92.2916 38.3127 92.1088L38.3962 91.2492C38.4215 90.99 38.2179 90.7656 37.9575 90.7656C37.6972 90.7656 37.4936 90.99 37.5188 91.2492Z" fill="#2E4A7A"/>
<path d="M14.2947 106.587C15.8797 106.587 17.8329 107.684 19.7221 109.4C21.4277 110.949 22.7769 112.744 23.08 113.99C23.3639 115.157 23.2594 117.779 22.8709 121.969L22.8208 122.501C22.774 122.993 22.7236 123.502 22.6687 124.044L22.567 125.028C22.4487 126.155 22.2152 128.345 22.1689 128.796L22.1089 129.393C22.0255 130.247 21.988 130.749 21.9958 130.89C22.0335 131.569 22.2454 132.411 22.4559 132.945L22.4793 133.003L22.5381 133.146L22.6498 134.555L22.6705 134.834C22.7001 135.244 22.7235 135.62 22.7409 135.982L22.7465 136.102C22.776 136.762 22.7833 137.341 22.7635 137.837L22.7595 137.929L20.8187 137.837C20.8388 137.415 20.835 136.9 20.8103 136.302L20.8055 136.189C20.7868 135.772 20.7593 135.332 20.7227 134.839L20.6238 133.594L20.5975 133.524C20.345 132.842 20.1198 131.919 20.0615 131.089L20.0558 130.998L20.0535 130.941C20.0449 130.628 20.091 130.037 20.1994 128.959L20.4288 126.772C20.5267 125.848 20.6331 124.844 20.6794 124.396L20.7536 123.67C20.7774 123.434 20.8003 123.204 20.8225 122.979L20.8866 122.317C21.2859 118.129 21.4109 115.349 21.1921 114.45C21.0027 113.671 19.8587 112.149 18.4157 110.838C16.8772 109.441 15.3172 108.557 14.3388 108.531L14.2947 108.53V106.587Z" fill="#142C6F"/>
<path opacity="0.1" d="M14.3513 107.35C15.4547 107.281 17.2254 108.302 19.034 109.911C20.7398 111.429 22.0856 113.131 22.3386 114.171C22.5987 115.24 22.4835 117.939 22.0859 122.168L22.0612 122.429C22.0145 122.919 21.9643 123.427 21.9095 123.966L21.8081 124.948L21.3952 128.861C21.276 130.032 21.2235 130.683 21.2332 130.918L21.2339 130.932C21.2767 131.703 21.5086 132.624 21.748 133.229L21.7863 133.324L21.8889 134.598L21.9184 134.993C21.9489 135.422 21.972 135.813 21.9879 136.19L21.9924 136.303C22.0139 136.861 22.0178 137.36 22.0012 137.799L21.9973 137.892L21.5813 137.873C21.6004 137.455 21.5993 136.975 21.5806 136.436L21.5764 136.319C21.5593 135.875 21.5318 135.412 21.4937 134.894L21.3759 133.42L21.3622 133.386C21.1157 132.764 20.8806 131.843 20.8236 131.041L20.8181 130.955C20.807 130.754 20.8369 130.306 20.9113 129.523L20.9957 128.675C21.0486 128.16 21.3425 125.405 21.4349 124.513L21.5133 123.746C21.5611 123.273 21.6053 122.824 21.6467 122.389L21.7062 121.754C22.0694 117.804 22.1706 115.242 21.934 114.269C21.4226 112.167 16.4565 107.732 14.4376 107.764L14.3773 107.766L14.3513 107.35Z" fill="#F5F6F8"/>
<path d="M60.2327 106.174V108.117C59.2427 108.117 57.6412 109.008 56.0624 110.428L55.9308 110.548C54.5363 111.83 53.4446 113.285 53.2594 114.039C53.0388 114.937 53.165 117.716 53.568 121.903L53.6328 122.565C53.6719 122.959 53.7134 123.367 53.758 123.797L54.2248 128.183C54.3687 129.571 54.4252 130.258 54.4069 130.585C54.3573 131.469 53.6571 133.627 53.1584 134.872L53.1415 134.914L53.1369 134.987L53.128 135.155C53.0878 135.987 53.0942 137.096 53.1481 138.277L53.1535 138.392L51.2127 138.485L51.2014 138.237C51.1429 136.878 51.1448 135.611 51.2084 134.7L51.2262 134.462L51.2861 134.318C51.3916 134.065 51.6506 133.359 51.8706 132.705L51.9278 132.534C52.2374 131.596 52.4388 130.84 52.4653 130.5L52.4669 130.476C52.4748 130.336 52.4369 129.834 52.3527 128.981L52.2764 128.233C52.1946 127.458 51.9268 124.971 51.8447 124.183L51.7693 123.452C51.739 123.155 51.7102 122.868 51.6825 122.587L51.634 122.089C51.2005 117.586 51.0736 114.792 51.3725 113.575C51.6788 112.328 53.0409 110.533 54.7628 108.984C56.642 107.293 58.5838 106.204 60.1669 106.174L60.2327 106.174Z" fill="#142C6F"/>
<path opacity="0.1" d="M55.4503 109.497C57.252 107.91 59.0166 106.895 60.132 106.935L60.1757 106.937L60.15 107.353C58.1509 107.229 53.0399 111.733 52.5182 113.856L52.5036 113.92C52.2721 114.992 52.4017 117.751 52.8084 121.976L52.8403 122.305C52.8836 122.747 52.9298 123.206 52.9799 123.692L53.4657 128.262C53.6027 129.583 53.6598 130.277 53.6449 130.542C53.6008 131.329 52.9267 133.437 52.4914 134.518L52.4578 134.601L52.4553 134.636C52.3942 135.506 52.3926 136.805 52.4507 138.201L52.4606 138.429L52.0447 138.448L52.0347 138.218C51.976 136.809 51.9777 135.496 52.0399 134.608L52.0476 134.503L52.0604 134.472C52.4669 133.494 53.1625 131.346 53.2264 130.559L53.2292 130.519C53.2414 130.3 53.1911 129.668 53.0734 128.517L52.604 124.104L52.4933 123.024C52.4584 122.677 52.4254 122.343 52.3939 122.016L52.3329 121.371C51.9607 117.362 51.8592 114.794 52.1139 113.757C52.3694 112.717 53.7281 111.015 55.4503 109.497Z" fill="#F5F6F8"/>
<path d="M48.9982 76.54C49.4039 76.5541 49.902 76.6967 50.2375 76.9155C50.6957 77.2142 50.8509 77.6478 50.554 78.1097C50.2513 78.5807 49.8189 78.5804 49.4063 78.2305C49.1604 78.022 48.9232 77.7011 48.7106 77.3359L48.671 77.2669L49.0335 77.062C49.2337 77.4162 49.4608 77.7308 49.6756 77.913C49.9148 78.1158 50.0551 78.1159 50.2038 77.8846C50.3617 77.6388 50.2939 77.4492 50.0102 77.2643C49.7558 77.0985 49.3615 76.9806 49.0372 76.9589L48.9838 76.9561L48.9982 76.54Z" fill="#1E1C1C"/>
<path d="M28.5857 78.3215C28.5178 77.9142 27.9748 77.439 27.4315 77.3032C26.753 77.3032 27.0242 77.9142 27.4315 78.3215C27.8389 78.7288 28.6536 78.7288 28.5857 78.3215Z" fill="#020D2B"/>
<path d="M27.6958 77.6382L27.7101 78.0543C27.3847 78.0655 26.9703 78.1842 26.7084 78.355C26.4327 78.5347 26.3673 78.7176 26.5203 78.9557C26.6641 79.1794 26.7983 79.1793 27.0303 78.9825C27.2277 78.8151 27.4359 78.5328 27.6227 78.2118L27.6574 78.1512L28.0199 78.356C27.8022 78.7413 27.5558 79.0828 27.2996 79.3C26.8941 79.6439 26.468 79.6442 26.1701 79.1808C25.8781 78.7266 26.0308 78.2996 26.481 78.0062C26.7943 77.8019 27.2519 77.6654 27.6384 77.641L27.6958 77.6382Z" fill="#1E1C1C"/>
<path d="M48.0887 77.2338C48.1581 76.8174 48.7132 76.3317 49.2684 76.1929C49.962 76.1929 49.6847 76.8174 49.2684 77.2338C48.852 77.6501 48.0193 77.6501 48.0887 77.2338Z" fill="#020D2B"/>
<path d="M58.2119 70.8199C57.5073 69.8216 56.0588 69.0338 55.4226 68.7646L51.0184 71.1869C51.4099 71.3337 52.5599 72.009 54.028 73.5358C55.863 75.4442 56.4502 75.6645 57.3311 75.5911C58.0358 75.5324 58.1141 74.8815 58.0651 74.5634C58.2119 74.7102 58.623 74.8863 59.0928 74.4167C59.68 73.8293 59.0928 72.0677 58.2119 70.8199Z" fill="#F5D4A1"/>
<path d="M16.3749 71.0166C17.1847 70.0881 18.7175 69.448 19.3827 69.2441L23.5409 72.1334C23.1335 72.24 21.9113 72.798 20.282 74.1775C18.2452 75.9021 17.6341 76.062 16.7596 75.8967C16.06 75.7644 16.0495 75.1031 16.1316 74.7889C15.9692 74.921 15.5393 75.0549 15.1178 74.5346C14.5908 73.8843 15.3626 72.1774 16.3749 71.0166Z" fill="#F5D4A1"/>
<path d="M12.996 54.5243C13.407 49.6505 13.8524 40.015 14.0237 35.8066H61.2949C61.4661 39.6969 61.8674 48.7402 62.1022 53.7903C62.3959 60.1029 58.2121 76.7653 35.8242 75.0772C13.4364 73.3888 12.4822 60.6167 12.996 54.5243Z" fill="#76CCDB"/>
<path d="M57.4413 55.5014C62.1134 55.5014 65.9008 51.714 65.9008 47.0419C65.9008 42.37 62.1134 38.5825 57.4413 38.5825C52.7694 38.5825 48.9819 42.37 48.9819 47.0419C48.9819 51.714 52.7694 55.5014 57.4413 55.5014Z" fill="#EBBAAA"/>
<path d="M18.0343 55.9296C13.3624 55.9296 9.57495 52.1422 9.57495 47.4701C9.57495 42.7982 13.3624 39.0107 18.0343 39.0107C22.7064 39.0107 26.4939 42.7982 26.4939 47.4701C26.4939 52.1422 22.7064 55.9296 18.0343 55.9296Z" fill="#EBBAAA"/>
<path d="M15.265 32.4572C15.265 20.3567 25.0745 10.5474 37.175 10.5474C49.2754 10.5474 59.0849 20.3567 59.0849 32.4572V42.8056L58.0211 55.3612C57.2684 64.2465 50.9005 71.6729 42.2437 73.8116C38.9253 74.6314 35.4422 74.6159 32.1327 73.7603C23.8911 71.6298 17.8081 64.6501 16.8238 56.1946L15.265 42.8056V32.4572Z" fill="#F4D4C9"/>
<path d="M33.467 39.4908L33.2136 38.203C33.1663 37.9621 32.9696 37.7788 32.7258 37.7484L26.5125 36.9748C26.4856 36.9715 26.4584 36.972 26.4317 36.9766L23.031 37.5541C22.8941 37.5773 22.7942 37.6958 22.7942 37.8344V39.445C22.7942 39.6082 22.9312 39.738 23.0941 39.729L27.8329 39.4693C27.8508 39.4683 27.8689 39.4692 27.8866 39.4717L32.83 40.1639C33.2172 40.2182 33.5425 39.8746 33.467 39.4908Z" fill="#393939"/>
<path d="M41.4874 39.4113L41.6928 38.2173C41.7344 37.9753 41.9267 37.7872 42.1696 37.7512L48.0973 36.8692C48.1241 36.8653 48.1513 36.8652 48.178 36.8692L51.4439 37.344C51.5812 37.3639 51.684 37.48 51.6874 37.6186L51.7236 39.1428C51.7275 39.3058 51.5937 39.4388 51.4305 39.4338L46.8897 39.2933C46.8718 39.2928 46.8538 39.294 46.8361 39.2969L42.1402 40.069C41.7542 40.1324 41.421 39.7967 41.4874 39.4113Z" fill="#393939"/>
<path d="M46.6305 42.6069C47.5503 42.6069 48.2959 43.3526 48.2959 44.2724C48.2959 45.1778 47.5734 45.9144 46.6735 45.9372L46.6305 45.9378H44.0277C43.1079 45.9378 42.3623 45.1921 42.3623 44.2724C42.3623 43.3669 43.0848 42.6303 43.9847 42.6075L44.0277 42.6069H46.6305Z" fill="black"/>
<path d="M30.4621 42.6069C31.3818 42.6069 32.1275 43.3526 32.1275 44.2724C32.1275 45.1778 31.405 45.9144 30.505 45.9372L30.4621 45.9378H27.617C26.6972 45.9378 25.9515 45.1921 25.9515 44.2724C25.9515 43.3669 26.6741 42.6303 27.574 42.6075L27.617 42.6069H30.4621Z" fill="black"/>
<path d="M36.38 45.2876L38.491 46.484C37.6167 48.0266 36.9409 49.8181 36.8488 51.1342L36.843 51.2286C36.7737 52.5309 37.2218 53.0567 38.7007 53.0689L38.7539 53.0691V55.4956C35.7088 55.4956 34.2379 53.6855 34.4282 50.9649C34.5481 49.2518 35.3128 47.1978 36.3204 45.3934L36.38 45.2876Z" fill="#EBBAAA"/>
<path d="M52.265 24.9513C49.8311 22.1123 51.4231 18.5719 51.1282 16.0964C50.9193 14.343 50.8976 13.8957 55.8821 17.5699C60.8667 21.2439 61.6141 29.3047 60.258 36.156L59.2601 43.9115H58.1499L58.4968 39.6927C58.4968 39.6927 58.2887 38.513 56.9008 37.1251C55.5129 35.7373 55.0273 28.1735 52.265 24.9513Z" fill="#6E6C6C"/>
<path d="M18.4481 29.7327C18.654 25.9993 18.2334 26.1915 18.3706 23.7025C18.4678 21.9395 19.0754 22.3254 15.928 25.5581C14.191 27.3423 14.3864 35.0468 14.7561 40.0602L15.1956 44.681H16.3563C16.3563 44.681 16.2189 42.9422 16.3563 42.1095C16.4935 41.2767 17.4859 40.5487 17.7425 38.9867C18.1097 36.7504 18.3269 31.9308 18.4481 29.7327Z" fill="#6E6C6C"/>
<path d="M17.9024 15.3355C21.5798 12.0047 25.2013 11.0332 29.9762 11.0332C30.1483 13.7215 27.364 14.0466 28.2415 19.7073C29.3385 26.7831 31.6036 27.2353 29.0225 28.6808C26.9576 29.8373 20.6086 34.0021 18.8738 35.9451C17.139 37.8881 17.139 38.3563 16.2369 38.5127C15.3348 38.6691 14.7103 38.0676 13.8775 36.5409C13.0448 35.0143 12.9413 34.9043 12.2811 31.6428C11.6209 28.3813 12.5527 20.1811 17.9024 15.3355Z" fill="#272727"/>
<path d="M28.5883 35.3207C26.3677 35.4594 20.4728 37.2373 19.4978 36.2225C14.1548 24.4954 22.6373 12.1168 27.5472 10.5474C42.7444 5.68996 54.8134 12.6892 58.2189 17.8337C61.4804 22.7606 61.8967 33.3777 60.9252 34.5573C59.7294 36.0093 57.0714 36.9836 54.4717 36.2225C51.872 35.4612 46.7672 36.1578 44.6874 35.3207C43.0235 34.6507 37.1931 35.3899 33.7927 35.3207C32.0449 35.285 31.9744 28.25 30.6007 28.2426C28.7964 28.2329 29.6675 35.2532 28.5883 35.3207Z" fill="#272727"/>
<path d="M40.9521 59.2566C41.4983 59.0331 42.1223 59.2948 42.3457 59.841C42.5692 60.3873 42.3075 61.0112 41.7613 61.2347C38.2992 62.651 35.0905 62.6901 32.3719 61.1798C31.856 60.8931 31.6701 60.2426 31.9567 59.7267C32.2433 59.2108 32.8939 59.0249 33.4098 59.3115C35.5056 60.4758 38.0475 60.4448 40.9521 59.2566Z" fill="#C99584"/>
<path fill-rule="evenodd" clip-rule="evenodd" d="M39.5009 41.5874C41.4226 40.8817 43.876 40.358 46.795 40.2338L46.9518 40.2275C49.7668 40.1198 52.1144 40.3573 53.9499 40.78C54.6734 40.9465 55.1763 41.5797 55.2149 42.3319C55.307 44.1287 55.3711 45.7373 55.3785 46.7851L55.3792 46.9788C55.3792 47.9382 55.1655 49.0065 54.828 50.0784C54.608 50.7776 53.9528 51.2389 53.209 51.2464L41.9919 51.3593C41.3486 51.3657 40.7571 51.031 40.4553 50.4726C39.7535 49.174 39.1919 47.8182 38.9523 46.5702C38.7463 45.4981 38.5822 44.3883 38.4569 43.3288C38.3668 42.5659 38.7869 41.8497 39.5009 41.5874ZM54.3832 42.3746C54.3633 41.9852 54.1149 41.6725 53.7631 41.5915C51.9645 41.1773 49.6383 40.9463 46.8304 41.0658C44.0013 41.1862 41.632 41.6919 39.788 42.3691C39.4424 42.496 39.2382 42.8442 39.2839 43.231C39.407 44.2721 39.5683 45.3628 39.77 46.4132C39.9903 47.5604 40.5231 48.8465 41.1878 50.0767C41.34 50.3582 41.6437 50.53 41.9836 50.5267L53.2006 50.4138C53.5918 50.4098 53.9245 50.1756 54.0337 49.8284C54.348 48.8303 54.5465 47.8379 54.5465 46.9788C54.5465 46.0425 54.4907 44.5376 54.406 42.8256L54.3832 42.3746Z" fill="black"/>
<path d="M34.9565 42.4998C36.0732 41.958 37.7293 41.8197 39.1261 42.4667L39.1957 42.4997L38.59 43.7484C37.6223 43.279 36.3936 43.3653 35.6089 43.7264L35.5624 43.7484L34.9565 42.4998Z" fill="black"/>
<path fill-rule="evenodd" clip-rule="evenodd" d="M18.5629 42.6229C18.5841 41.911 19.0282 41.2969 19.6992 41.0913C21.7306 40.4694 24.3183 40.1279 27.3614 40.3388C30.3288 40.5445 32.8115 41.1373 34.7464 41.8968C35.4594 42.1765 35.8656 42.9085 35.7535 43.6734C35.5988 44.7282 35.4039 45.8294 35.1678 46.8923C34.8911 48.1379 34.2822 49.4821 33.5325 50.7634C33.2149 51.306 32.62 51.6194 31.9829 51.5965L20.8665 51.1987C20.1411 51.1729 19.508 50.7166 19.2841 50.0355C18.9272 48.9494 18.6695 47.8453 18.5947 46.8327C18.5212 45.8382 18.5154 44.4892 18.5519 43.0249L18.5629 42.6229ZM34.4422 42.672C32.5831 41.9422 30.1828 41.3691 27.3038 41.1695L27.1523 41.1595C24.2822 40.9774 21.8477 41.3044 19.943 41.8876C19.6217 41.986 19.4061 42.2841 19.3953 42.6476C19.3506 44.1525 19.3479 45.5623 19.4132 46.5976L19.4251 46.7713C19.4941 47.7049 19.7376 48.7482 20.0752 49.7755C20.188 50.1188 20.5129 50.3529 20.8962 50.3666L32.0128 50.7643C32.3492 50.7764 32.654 50.6158 32.8138 50.3428C33.5236 49.1298 34.1008 47.8554 34.3549 46.7117C34.5862 45.6708 34.7776 44.5888 34.9296 43.5526C34.9865 43.1646 34.7885 42.8078 34.4422 42.672Z" fill="black"/>
<path d="M10.3517 40.2223C11.7123 39.4184 13.65 39.4236 14.4488 39.5265C15.4538 40.0677 14.758 42.6187 14.2169 43.0825C13.6758 43.5463 10.6609 45.1697 9.5014 44.7832C8.34186 44.3967 9.34679 43.3144 9.03759 43.3917C8.72838 43.469 8.18726 43.0825 8.18726 42.6187C8.18726 42.1549 8.65108 41.2272 10.3517 40.2223Z" fill="#EFD19F"/>
<path d="M64.3401 39.0551C62.9736 38.244 61.0271 38.2492 60.2248 38.3532C59.2154 38.8991 59.9142 41.4727 60.4578 41.9407C61.0013 42.4086 64.0295 44.0464 65.1941 43.6564C66.359 43.2665 65.3494 42.1746 65.66 42.2526C65.9706 42.3306 66.5143 41.9407 66.5143 41.4727C66.5143 41.0047 66.0484 40.0689 64.3401 39.0551Z" fill="#EFD19F"/>
<path d="M60.6821 42.8846C59.8319 43.3609 56.0532 31.3961 36.9595 31.7053C17.8657 32.0145 14.9216 44.6794 14.1194 44.2725C13.3172 43.8656 11.1095 31.2569 11.2951 23.5885C11.527 14.0029 13.5367 0.474937 36.9595 0.0111198C60.3822 -0.452696 62.0057 13.6937 62.083 23.5885C62.1449 31.5042 61.5324 42.4083 60.6821 42.8846Z" fill="#76CCDB"/>
<path d="M33.79 28.6133C32.5532 27.7474 32.6563 25.1088 32.8624 23.8978L36.4959 22.5063V27.0672C36.4959 28.0722 35.3361 29.6956 33.79 28.6133Z" fill="#F5F6F8"/>
<path d="M37.2689 28.9225C36.0321 28.0566 36.3678 23.7174 36.5739 22.5063H40.1007V27.0672C40.1007 28.9225 38.8149 30.0048 37.2689 28.9225Z" fill="#F5F6F8"/>
<path d="M30.7754 21.7329C30.93 19.955 33.8675 18.8727 36.3412 18.7954C39.8199 18.7954 41.2112 19.7231 42.4481 20.8053C43.6849 21.8875 43.8395 23.9746 41.7523 24.3611C39.6651 24.7476 38.351 23.4335 36.8822 23.3562C35.4135 23.2789 34.0994 24.3611 32.8626 24.3611C31.6257 24.3611 30.6208 23.5108 30.7754 21.7329Z" fill="#F6D59F"/>
<path d="M33.2493 19.105C33.172 18.1001 34.0996 16.4767 36.5733 16.3994C39.511 16.3994 40.2063 17.7136 40.2063 18.5639C40.2063 19.4142 39.356 20.6511 36.8824 20.7284C34.4087 20.8057 33.3266 20.11 33.2493 19.105Z" fill="black"/>
<path d="M37.811 11.8384C37.5018 7.81865 41.5213 3.64429 46.469 4.0308C51.4166 4.41731 53.1941 6.96831 53.6579 10.2923C54.1218 13.6164 53.1941 17.3268 47.4737 18.4864C41.7532 19.6459 38.1202 15.8581 37.811 11.8384Z" fill="#F5F6F8"/>
<path d="M39.5106 11.7611C39.5106 10.9881 40.2064 9.44205 41.8297 9.36475C43.8396 9.36475 44.3034 11.22 44.3034 11.7611C44.3034 12.3022 43.9169 14.3894 41.8297 14.3894C39.7425 14.3894 39.5106 12.5342 39.5106 11.7611Z" fill="black"/>
<path d="M18.2689 12.5591C17.9597 8.53934 21.9792 4.36498 26.9269 4.7515C31.8744 5.13802 33.652 7.68901 34.1158 11.013C34.5797 14.3371 33.652 18.0476 27.9316 19.2072C22.2111 20.3667 18.5781 16.5789 18.2689 12.5591Z" fill="#F5F6F8"/>
<path d="M19.9689 12.4818C19.9689 11.7088 20.6646 10.1628 22.288 10.0854C24.2977 10.0854 24.7615 11.9407 24.7615 12.4818C24.7615 13.023 24.375 15.1102 22.288 15.1102C20.2008 15.1102 19.9689 13.2549 19.9689 12.4818Z" fill="black"/>
<path d="M62.2375 4.26276C59.1455 1.72722 55.7957 4.18545 54.5073 5.73151L57.9087 13.771C58.424 14.1318 60.0113 14.544 62.2375 13.3072C65.0204 11.7611 66.1027 7.43218 62.2375 4.26276Z" fill="#76CCDB"/>
<path d="M59.667 6.84365C58.4998 5.87882 57.2353 6.81424 56.749 7.40257L58.0329 10.4618C58.2274 10.5991 58.8265 10.756 59.667 10.2853C60.7174 9.69701 61.1259 8.04971 59.667 6.84365Z" fill="black"/>
<path d="M10.6247 5.51249C13.7994 2.97531 17.2387 5.43514 18.5615 6.98219L15.0693 15.0269C14.5402 15.3879 12.9105 15.8005 10.6247 14.5628C7.76745 13.0157 6.65629 8.68396 10.6247 5.51249Z" fill="#76CCDB"/>
<path d="M13.2079 8.08048C14.4217 7.11563 15.7367 8.05106 16.2426 8.63938L14.9072 11.6986C14.705 11.8359 14.0819 11.9928 13.2079 11.5221C12.1154 10.9338 11.6905 9.28652 13.2079 8.08048Z" fill="black"/>
</svg>
