<svg width="30" height="16" viewBox="0 0 30 16" fill="none" xmlns="http://www.w3.org/2000/svg">
  <path fill-rule="evenodd" clip-rule="evenodd" d="M0 0.5C0 0.223858 0.223858 0 0.5 0H29.5C29.7761 0 30 0.223858 30 0.5C30 0.776142 29.7761 1 29.5 1H0.5C0.223858 1 0 0.776142 0 0.5ZM0 5.5C0 5.22386 0.223858 5 0.5 5H29.5C29.7761 5 30 5.22386 30 5.5C30 5.77614 29.7761 6 29.5 6H0.5C0.223858 6 0 5.77614 0 5.5ZM0 10.5C0 10.2239 0.223858 10 0.5 10H29.5C29.7761 10 30 10.2239 30 10.5C30 10.7761 29.7761 11 29.5 11H0.5C0.223858 11 0 10.7761 0 10.5ZM0 15.5C0 15.2239 0.223858 15 0.5 15H29.5C29.7761 15 30 15.2239 30 15.5C30 15.7761 29.7761 16 29.5 16H0.5C0.223858 16 0 15.7761 0 15.5Z" fill="#666666"/>
</svg>
