<svg viewBox="0 0 579 312" fill="none" xmlns="http://www.w3.org/2000/svg">
  <path d="M214.126 90.16h11.456v20.992h8V90.16h11.52V142h-11.52v-22.656h-8V142h-11.456V90.16zM260.036 142.64c-1.792 0-3.349-.427-4.672-1.28a9.01 9.01 0 01-2.944-3.392 10.411 10.411 0 01-.96-4.352c0-2.859.726-5.205 2.176-7.04 1.451-1.835 3.179-3.264 5.184-4.288 2.048-1.024 4.672-2.091 7.872-3.2v-3.712c0-1.067-.17-1.877-.512-2.432-.298-.555-.853-.832-1.664-.832-.81 0-1.386.256-1.728.768-.341.512-.533 1.237-.576 2.176l-.256 2.688-9.728-.384c.171-4.437 1.344-7.701 3.52-9.792 2.176-2.133 5.419-3.2 9.728-3.2 3.627 0 6.4 1.024 8.32 3.072 1.92 2.005 2.88 4.693 2.88 8.064v17.28c0 3.755.214 6.827.64 9.216h-9.344c-.384-2.859-.661-4.608-.832-5.248-.512 1.707-1.365 3.115-2.56 4.224-1.194 1.109-2.709 1.664-4.544 1.664zm3.712-7.04c1.067 0 2.048-.619 2.944-1.856v-10.112c-1.92 1.109-3.37 2.283-4.352 3.52-.981 1.195-1.472 2.667-1.472 4.416 0 1.237.256 2.219.768 2.944.512.725 1.216 1.088 2.112 1.088zM294.25 142.64c-3.286 0-6.016-.725-8.192-2.176-2.134-1.493-3.862-3.861-5.184-7.104l7.104-3.136c.682 1.707 1.472 3.029 2.368 3.968.938.939 1.962 1.408 3.072 1.408 1.621 0 2.432-.64 2.432-1.92 0-.939-.32-1.771-.96-2.496-.64-.768-2.027-2.027-4.16-3.776l-2.688-2.24c-2.219-1.877-3.84-3.584-4.864-5.12-.982-1.536-1.472-3.371-1.472-5.504 0-1.963.512-3.712 1.536-5.248 1.066-1.536 2.474-2.731 4.224-3.584a12.175 12.175 0 015.632-1.344c3.029 0 5.546.832 7.552 2.496 2.048 1.621 3.498 3.968 4.352 7.04l-6.72 3.072a10.472 10.472 0 00-1.984-3.648c-.896-1.109-1.878-1.664-2.944-1.664-.683 0-1.238.192-1.664.576-.384.384-.576.896-.576 1.536 0 .768.405 1.6 1.216 2.496.853.896 2.176 2.069 3.968 3.52l2.624 2.304c2.133 1.792 3.776 3.477 4.928 5.056 1.152 1.536 1.728 3.349 1.728 5.44s-.534 3.904-1.6 5.44c-1.024 1.493-2.411 2.645-4.16 3.456-1.707.768-3.563 1.152-5.568 1.152zM309.983 90.16h10.368v28.736l9.088-13.888h11.712l-9.856 15.168L341.023 142h-11.392l-6.528-17.6-2.752 3.52V142h-10.368V90.16zM356.391 142.64c-4.053 0-7.21-1.067-9.472-3.2-2.261-2.176-3.392-5.227-3.392-9.152V116.72c0-3.925 1.131-6.955 3.392-9.088 2.262-2.176 5.419-3.264 9.472-3.264 4.096 0 7.168 1.045 9.216 3.136 2.048 2.091 3.072 5.163 3.072 9.216v7.424h-14.848v7.104c0 2.645.854 3.968 2.56 3.968 1.792 0 2.688-1.195 2.688-3.584v-3.904h9.6v3.584c0 3.712-1.088 6.528-3.264 8.448-2.133 1.92-5.141 2.88-9.024 2.88zm2.688-23.36v-3.712c0-1.365-.256-2.325-.768-2.88-.469-.597-1.13-.896-1.984-.896-.81 0-1.429.32-1.856.96-.426.64-.64 1.771-.64 3.392v3.136h5.248zM374.806 90.16h10.368V142h-10.368V90.16zM392.368 90.16h10.368V142h-10.368V90.16zM426.434 90.16h11.456v44.096h11.904V142h-23.36V90.16zM466.393 142.64c-4.054 0-7.232-1.024-9.536-3.072-2.262-2.048-3.392-5.056-3.392-9.024v-14.08c0-3.968 1.13-6.976 3.392-9.024 2.304-2.048 5.482-3.072 9.536-3.072 4.053 0 7.232 1.045 9.536 3.136 2.304 2.048 3.456 5.035 3.456 8.96v14.08c0 3.925-1.152 6.933-3.456 9.024-2.304 2.048-5.483 3.072-9.536 3.072zm.064-6.912c.981 0 1.664-.363 2.048-1.088.384-.768.576-1.899.576-3.392V115.76c0-1.493-.192-2.603-.576-3.328-.384-.768-1.067-1.152-2.048-1.152-.982 0-1.686.384-2.112 1.152-.384.768-.576 1.877-.576 3.328v15.488c0 1.493.192 2.624.576 3.392.426.725 1.13 1.088 2.112 1.088zM482.546 105.008h9.984l3.072 23.616 2.816-23.616h9.984L500.786 142H489.97l-7.424-36.992zM524.204 142.64c-4.054 0-7.211-1.067-9.472-3.2-2.262-2.176-3.392-5.227-3.392-9.152V116.72c0-3.925 1.13-6.955 3.392-9.088 2.261-2.176 5.418-3.264 9.472-3.264 4.096 0 7.168 1.045 9.216 3.136 2.048 2.091 3.072 5.163 3.072 9.216v7.424h-14.848v7.104c0 2.645.853 3.968 2.56 3.968 1.792 0 2.688-1.195 2.688-3.584v-3.904h9.6v3.584c0 3.712-1.088 6.528-3.264 8.448-2.134 1.92-5.142 2.88-9.024 2.88zm2.688-23.36v-3.712c0-1.365-.256-2.325-.768-2.88-.47-.597-1.131-.896-1.984-.896-.811 0-1.43.32-1.856.96-.427.64-.64 1.771-.64 3.392v3.136h5.248z" fill="#8C5388"/>
  <path d="M300.981 204.432c-3.168 0-5.424-.828-6.768-2.484-1.32-1.68-1.98-4.092-1.98-7.236V184.2c0-3.216.66-5.64 1.98-7.272 1.32-1.656 3.576-2.484 6.768-2.484 3.048 0 5.208.732 6.48 2.196 1.272 1.464 1.908 3.54 1.908 6.228v2.52h-6.3v-2.916c0-1.128-.12-1.992-.36-2.592-.24-.6-.816-.9-1.728-.9s-1.512.324-1.8.972c-.288.624-.432 1.5-.432 2.628v13.716c0 1.152.144 2.04.432 2.664.312.6.912.9 1.8.9s1.452-.3 1.692-.9c.264-.624.396-1.512.396-2.664v-3.06h6.3v2.52c0 2.736-.636 4.872-1.908 6.408-1.272 1.512-3.432 2.268-6.48 2.268zM319.43 204.36c-2.28 0-4.068-.576-5.364-1.728-1.272-1.152-1.908-2.844-1.908-5.076v-7.92c0-2.232.636-3.924 1.908-5.076 1.296-1.152 3.084-1.728 5.364-1.728s4.068.588 5.364 1.764c1.296 1.152 1.944 2.832 1.944 5.04v7.92c0 2.208-.648 3.9-1.944 5.076-1.296 1.152-3.084 1.728-5.364 1.728zm.036-3.888c.552 0 .936-.204 1.152-.612.216-.432.324-1.068.324-1.908v-8.712c0-.84-.108-1.464-.324-1.872-.216-.432-.6-.648-1.152-.648-.552 0-.948.216-1.188.648-.216.432-.324 1.056-.324 1.872v8.712c0 .84.108 1.476.324 1.908.24.408.636.612 1.188.612zM329.992 183.192h5.868v2.088c1.632-1.632 3.3-2.448 5.004-2.448 1.248 0 2.196.456 2.844 1.368.672.888 1.008 2.052 1.008 3.492V204h-5.832v-15.48c0-.528-.096-.912-.288-1.152-.168-.264-.468-.396-.9-.396-.48 0-1.092.252-1.836.756V204h-5.868v-20.808zM348.994 187.152h-1.98v-3.96h1.98v-1.548c0-1.392.132-2.508.396-3.348.264-.864.804-1.536 1.62-2.016.84-.48 2.064-.72 3.672-.72 1.008 0 1.944.06 2.808.18v4.356c-.528-.12-.948-.18-1.26-.18-.912 0-1.368.54-1.368 1.62v1.656h2.628v3.96h-2.628V204h-5.868v-16.848zM366.574 204.36c-2.28 0-4.056-.6-5.328-1.8-1.272-1.224-1.908-2.94-1.908-5.148v-7.632c0-2.208.636-3.912 1.908-5.112 1.272-1.224 3.048-1.836 5.328-1.836 2.304 0 4.032.588 5.184 1.764 1.152 1.176 1.728 2.904 1.728 5.184v4.176h-8.352v3.996c0 1.488.48 2.232 1.44 2.232 1.008 0 1.512-.672 1.512-2.016v-2.196h5.4v2.016c0 2.088-.612 3.672-1.836 4.752-1.2 1.08-2.892 1.62-5.076 1.62zm1.512-13.14v-2.088c0-.768-.144-1.308-.432-1.62-.264-.336-.636-.504-1.116-.504-.456 0-.804.18-1.044.54-.24.36-.36.996-.36 1.908v1.764h2.952zM376.752 183.192h5.868v3.456c.72-1.272 1.416-2.208 2.088-2.808.672-.6 1.464-.9 2.376-.9.336 0 .636.036.9.108v5.832c-.72-.288-1.356-.432-1.908-.432-1.272 0-2.424.672-3.456 2.016V204h-5.868v-20.808zM397.265 204.36c-2.28 0-4.056-.6-5.328-1.8-1.272-1.224-1.908-2.94-1.908-5.148v-7.632c0-2.208.636-3.912 1.908-5.112 1.272-1.224 3.048-1.836 5.328-1.836 2.304 0 4.032.588 5.184 1.764 1.152 1.176 1.728 2.904 1.728 5.184v4.176h-8.352v3.996c0 1.488.48 2.232 1.44 2.232 1.008 0 1.512-.672 1.512-2.016v-2.196h5.4v2.016c0 2.088-.612 3.672-1.836 4.752-1.2 1.08-2.892 1.62-5.076 1.62zm1.512-13.14v-2.088c0-.768-.144-1.308-.432-1.62-.264-.336-.636-.504-1.116-.504-.456 0-.804.18-1.044.54-.24.36-.36.996-.36 1.908v1.764h2.952zM407.371 183.192h5.868v2.088c1.632-1.632 3.3-2.448 5.004-2.448 1.248 0 2.196.456 2.844 1.368.672.888 1.008 2.052 1.008 3.492V204h-5.832v-15.48c0-.528-.096-.912-.288-1.152-.168-.264-.468-.396-.9-.396-.48 0-1.092.252-1.836.756V204h-5.868v-20.808zM432.385 204.36c-2.256 0-4.02-.612-5.292-1.836-1.272-1.224-1.908-2.928-1.908-5.112v-7.632c0-2.208.624-3.912 1.872-5.112 1.272-1.224 3.048-1.836 5.328-1.836 2.256 0 3.984.528 5.184 1.584 1.224 1.056 1.836 2.616 1.836 4.68v2.196h-5.652v-2.376c0-.792-.12-1.332-.36-1.62-.216-.312-.552-.468-1.008-.468-.456 0-.792.192-1.008.576-.192.36-.288.984-.288 1.872v8.64c0 .888.108 1.512.324 1.872.216.36.552.54 1.008.54.456 0 .792-.156 1.008-.468.216-.312.324-.84.324-1.584v-2.772h5.652v2.52c0 2.064-.612 3.636-1.836 4.716-1.224 1.08-2.952 1.62-5.184 1.62zM449.261 204.36c-2.28 0-4.056-.6-5.328-1.8-1.272-1.224-1.908-2.94-1.908-5.148v-7.632c0-2.208.636-3.912 1.908-5.112 1.272-1.224 3.048-1.836 5.328-1.836 2.304 0 4.032.588 5.184 1.764 1.152 1.176 1.728 2.904 1.728 5.184v4.176h-8.352v3.996c0 1.488.48 2.232 1.44 2.232 1.008 0 1.512-.672 1.512-2.016v-2.196h5.4v2.016c0 2.088-.612 3.672-1.836 4.752-1.2 1.08-2.892 1.62-5.076 1.62zm1.512-13.14v-2.088c0-.768-.144-1.308-.432-1.62-.264-.336-.636-.504-1.116-.504-.456 0-.804.18-1.044.54-.24.36-.36.996-.36 1.908v1.764h2.952z" fill="#675B8A"/>
  <path d="M160.161 82.076a4.243 4.243 0 00-2.603-1.075h-24.619a4.224 4.224 0 00-2.598 1.075l-14.152 14.147a1.522 1.522 0 000 2.151l6.454 6.475a1.531 1.531 0 001.078.448 1.518 1.518 0 001.079-.448l10.594-10.595a4.232 4.232 0 012.598-1.075h13.771c.838 0 1.015.507.447 1.08l-19.013 18.983a1.52 1.52 0 000 2.151l6.46 6.459a1.52 1.52 0 002.151 0l19.373-19.373a1.516 1.516 0 011.078-.447 1.517 1.517 0 011.078.447l1.878 1.878a1.52 1.52 0 010 2.151l-19.378 19.373a1.515 1.515 0 00-.448 1.078 1.518 1.518 0 00.448 1.079l6.459 6.454a1.525 1.525 0 002.152 0l14.329-14.329c.594-.589 1.076-.391 1.076.446v17.79a4.223 4.223 0 01-1.076 2.598l-12.523 12.523a1.521 1.521 0 01-2.151 0L82.649 82.076a4.217 4.217 0 00-2.598-1.075h-24.73a4.227 4.227 0 00-2.599 1.075l-20.646 20.647A4.229 4.229 0 0031 105.321v37.878c.052.963.431 1.88 1.076 2.598l73.513 73.488a1.525 1.525 0 002.152 0l37.776-37.777a1.52 1.52 0 000-2.151l-6.459-6.459a1.522 1.522 0 00-2.151 0l-29.197 29.171a1.516 1.516 0 01-1.078.447 1.521 1.521 0 01-1.078-.447L67.64 164.155a1.51 1.51 0 01-.448-1.078 1.521 1.521 0 01.448-1.078l29.176-29.171a1.524 1.524 0 000-2.152l-28.075-28.075a1.522 1.522 0 00-2.151 0l-6.455 6.459a1.524 1.524 0 000 2.152l19.46 19.459a1.52 1.52 0 01.33 1.662 1.53 1.53 0 01-.33.495l-20.566 20.56a1.522 1.522 0 01-2.151 0l-12.624-12.62a4.224 4.224 0 01-1.076-2.597v-27.852a4.226 4.226 0 011.076-2.598l13.481-13.482a4.242 4.242 0 012.603-1.06h14.67c.964.053 1.88.434 2.598 1.08l36.213 36.214a1.524 1.524 0 010 2.152l-29.226 29.231a1.524 1.524 0 000 2.152l6.459 6.459a1.522 1.522 0 002.151 0l29.227-29.227a1.531 1.531 0 011.078-.447 1.517 1.517 0 011.079.447l29.516 29.516a1.522 1.522 0 002.151 0l24.67-24.67a4.248 4.248 0 001.076-2.598v-38.056a4.26 4.26 0 00-1.076-2.613l-20.763-20.743z" fill="#8C5388"/>
  <path d="M162.095 147.679l-5.546 5.546a1.925 1.925 0 01-1.37.571 1.925 1.925 0 01-1.37-.571L82.142 81.568a1.938 1.938 0 00-1.37-.568H67.22v12.178h7.728a3.826 3.826 0 012.7 1.121l35.879 35.869a1.945 1.945 0 010 2.745l-28.923 28.922a1.525 1.525 0 000 2.152l6.46 6.459a1.522 1.522 0 002.151 0l28.922-28.922a1.936 1.936 0 012.746 0l29.221 29.222a1.525 1.525 0 002.152 0l14.451-14.457-8.611-8.61z" fill="#675B8A"/>
  <path d="M83.694 145.908l13.101-13.101a1.525 1.525 0 000-2.152L68.74 102.6a1.522 1.522 0 00-2.15 0l-6.455 6.46a1.52 1.52 0 000 2.151l19.459 19.459a1.53 1.53 0 01.448 1.079 1.518 1.518 0 01-.448 1.078l-30.257 30.231 8.626 8.601 25.73-25.751z" fill="#473D63"/>
</svg>
