<svg  viewBox="0 0 579 319" fill="#151515" xmlns="http://www.w3.org/2000/svg">
  <path d="M127.78 115.69l-26.699 17.8-26.7-17.8-26.7 22.25v31.15l53.4 44.5 53.399-44.5v-31.15l-26.7-22.25z"/>
  <path fill-rule="evenodd" clip-rule="evenodd" d="M55.88 210.672a5.34 5.34 0 10-7.552-7.552 5.34 5.34 0 007.552 7.552zm3.776 3.776c4.17-4.171 4.17-10.933 0-15.104-4.171-4.17-10.933-4.17-15.104 0-4.17 4.171-4.17 10.933 0 15.104 4.17 4.171 10.933 4.171 15.104 0z"/>
  <path fill-rule="evenodd" clip-rule="evenodd" d="M163.328 118.36L60.344 203.31l-3.398-4.119L159.93 114.24l3.398 4.12z"/>
  <path fill-rule="evenodd" clip-rule="evenodd" d="M170.69 115.88a5.34 5.34 0 10-7.554-7.552 5.34 5.34 0 007.554 7.552zm3.776 3.776c4.171-4.171 4.171-10.933 0-15.104-4.171-4.171-10.933-4.171-15.104 0-4.171 4.171-4.171 10.933 0 15.104 4.171 4.17 10.933 4.17 15.104 0z"/>
  <path fill-rule="evenodd" clip-rule="evenodd" d="M105.275 166.905L74.38 192.39l-3.398-4.119 30.895-25.485 3.398 4.119z" class="card-pocarst-accent"/>
  <path d="M212.566 129.052a30.955 30.955 0 013.312-.432c1.224-.12 2.436-.18 3.636-.18 1.248 0 2.496.108 3.744.324 1.272.192 2.412.6 3.42 1.224 1.008.6 1.824 1.452 2.448 2.556.648 1.08.972 2.496.972 4.248 0 1.584-.276 2.928-.828 4.032-.552 1.08-1.284 1.968-2.196 2.664a8.838 8.838 0 01-3.132 1.512 13.711 13.711 0 01-3.6.468h-1.404l-.864-.072a6.078 6.078 0 01-.576-.072V154h-4.932v-24.948zm7.344 3.636c-.48 0-.936.024-1.368.072-.432.024-.78.06-1.044.108v8.172c.096.024.24.048.432.072.192.024.396.048.612.072h1.08c.648 0 1.284-.06 1.908-.18a4.968 4.968 0 001.728-.648c.504-.336.9-.792 1.188-1.368.312-.576.468-1.332.468-2.268 0-.792-.144-1.44-.432-1.944a3.433 3.433 0 00-1.152-1.26 4.245 4.245 0 00-1.584-.648c-.6-.12-1.212-.18-1.836-.18zM233.168 129.052c.552-.096 1.14-.18 1.764-.252a27.32 27.32 0 011.908-.216 55.278 55.278 0 011.872-.108 41.67 41.67 0 011.656-.036c1.176 0 2.328.108 3.456.324 1.152.216 2.172.588 3.06 1.116a5.754 5.754 0 012.16 2.196c.552.912.828 2.064.828 3.456 0 2.064-.48 3.744-1.44 5.04-.96 1.296-2.244 2.196-3.852 2.7l1.764 1.116 5.76 9.612h-5.688l-5.724-9.864-2.592-.468V154h-4.932v-24.948zm7.56 3.78c-.504 0-1.008.012-1.512.036-.48.024-.852.072-1.116.144v7.308h2.088c1.368 0 2.46-.312 3.276-.936.816-.624 1.224-1.656 1.224-3.096 0-1.08-.336-1.92-1.008-2.52-.672-.624-1.656-.936-2.952-.936zM252.837 141.4c0-4.2.924-7.428 2.772-9.684 1.848-2.28 4.488-3.42 7.92-3.42 1.8 0 3.372.312 4.716.936a8.884 8.884 0 013.348 2.664c.888 1.152 1.548 2.532 1.98 4.14.432 1.608.648 3.396.648 5.364 0 4.2-.936 7.44-2.808 9.72-1.848 2.256-4.476 3.384-7.884 3.384-1.824 0-3.408-.312-4.752-.936a8.884 8.884 0 01-3.348-2.664c-.864-1.152-1.512-2.532-1.944-4.14-.432-1.608-.648-3.396-.648-5.364zm5.184 0c0 1.272.108 2.448.324 3.528.216 1.056.54 1.968.972 2.736.456.768 1.032 1.368 1.728 1.8.696.432 1.524.648 2.484.648 1.752 0 3.108-.684 4.068-2.052.96-1.368 1.44-3.588 1.44-6.66 0-1.224-.108-2.364-.324-3.42-.192-1.056-.504-1.98-.936-2.772-.432-.792-.996-1.404-1.692-1.836-.696-.456-1.548-.684-2.556-.684-1.752 0-3.108.708-4.068 2.124-.96 1.392-1.44 3.588-1.44 6.588zM286.638 140.86h9.396v11.232c-1.008.84-2.22 1.452-3.636 1.836a15.514 15.514 0 01-4.14.576c-1.608 0-3.108-.252-4.5-.756a9.318 9.318 0 01-3.564-2.34c-1.008-1.08-1.8-2.448-2.376-4.104-.576-1.656-.864-3.624-.864-5.904 0-2.376.336-4.392 1.008-6.048.696-1.68 1.596-3.036 2.7-4.068 1.128-1.056 2.388-1.812 3.78-2.268 1.392-.48 2.808-.72 4.248-.72 1.44 0 2.7.108 3.78.324 1.104.216 1.98.444 2.628.684l-1.008 4.14c-.6-.24-1.272-.42-2.016-.54-.744-.144-1.692-.216-2.844-.216-1.032 0-1.98.156-2.844.468a5.564 5.564 0 00-2.268 1.548c-.624.696-1.116 1.596-1.476 2.7-.336 1.104-.504 2.448-.504 4.032 0 1.512.168 2.82.504 3.924.336 1.08.804 1.98 1.404 2.7a5.655 5.655 0 002.088 1.548 6.74 6.74 0 002.592.504 7.84 7.84 0 001.836-.216c.6-.168 1.104-.408 1.512-.72v-4.752l-5.436-.576v-2.988zM299.684 129.052c.552-.096 1.14-.18 1.764-.252a27.32 27.32 0 011.908-.216 55.278 55.278 0 011.872-.108 41.67 41.67 0 011.656-.036c1.176 0 2.328.108 3.456.324 1.152.216 2.172.588 3.06 1.116a5.754 5.754 0 012.16 2.196c.552.912.828 2.064.828 3.456 0 2.064-.48 3.744-1.44 5.04-.96 1.296-2.244 2.196-3.852 2.7l1.764 1.116 5.76 9.612h-5.688l-5.724-9.864-2.592-.468V154h-4.932v-24.948zm7.56 3.78c-.504 0-1.008.012-1.512.036-.48.024-.852.072-1.116.144v7.308h2.088c1.368 0 2.46-.312 3.276-.936.816-.624 1.224-1.656 1.224-3.096 0-1.08-.336-1.92-1.008-2.52-.672-.624-1.656-.936-2.952-.936z"/>
  <path d="M332.424 148.42h-7.74l-1.908 5.58h-4.932l9.072-25.38h3.636l9.072 25.38h-5.184l-2.016-5.58zm-6.48-3.96h5.4l-1.872-5.616-.756-3.96h-.18l-.756 3.996-1.836 5.58zM361.349 140.932l.54-5.004h-.216l-1.548 4.032-5.364 9.396h-1.584l-5.652-9.432-1.584-3.996h-.18l.72 4.968V154h-4.68v-25.2h4.5l6.732 11.52 1.188 2.88h.144l1.08-2.952 6.372-11.448h4.464V154h-4.932v-13.068zM390.142 140.932l.54-5.004h-.216l-1.548 4.032-5.364 9.396h-1.584l-5.652-9.432-1.584-3.996h-.18l.72 4.968V154h-4.68v-25.2h4.5l6.732 11.52 1.188 2.88h.144l1.08-2.952 6.372-11.448h4.464V154h-4.932v-13.068zM399.891 128.8h4.932V154h-4.932v-25.2zM415.916 140.86l-1.98-3.96h-.18l.576 3.96V154h-4.68v-25.38h3.6l9.54 13.428 1.908 3.852h.18l-.576-3.852V128.8h4.68v25.38h-3.6l-9.468-13.32zM442.204 140.86h9.396v11.232c-1.008.84-2.22 1.452-3.636 1.836a15.514 15.514 0 01-4.14.576c-1.608 0-3.108-.252-4.5-.756a9.318 9.318 0 01-3.564-2.34c-1.008-1.08-1.8-2.448-2.376-4.104-.576-1.656-.864-3.624-.864-5.904 0-2.376.337-4.392 1.009-6.048.696-1.68 1.596-3.036 2.7-4.068 1.128-1.056 2.387-1.812 3.779-2.268 1.392-.48 2.809-.72 4.249-.72 1.44 0 2.699.108 3.779.324 1.104.216 1.981.444 2.629.684l-1.009 4.14c-.6-.24-1.271-.42-2.015-.54-.744-.144-1.693-.216-2.845-.216-1.032 0-1.98.156-2.844.468a5.564 5.564 0 00-2.268 1.548c-.624.696-1.116 1.596-1.476 2.7-.336 1.104-.504 2.448-.504 4.032 0 1.512.168 2.82.504 3.924.336 1.08.805 1.98 1.405 2.7a5.655 5.655 0 002.088 1.548 6.736 6.736 0 002.591.504 7.84 7.84 0 001.836-.216c.6-.168 1.105-.408 1.513-.72v-4.752l-5.437-.576v-2.988zM480.303 154h-15.948v-25.2h4.932v20.808h11.016V154zM478.716 141.4c0-4.2.924-7.428 2.772-9.684 1.848-2.28 4.488-3.42 7.92-3.42 1.8 0 3.372.312 4.716.936a8.884 8.884 0 013.348 2.664c.888 1.152 1.548 2.532 1.98 4.14.432 1.608.648 3.396.648 5.364 0 4.2-.936 7.44-2.808 9.72-1.848 2.256-4.476 3.384-7.884 3.384-1.824 0-3.408-.312-4.752-.936a8.884 8.884 0 01-3.348-2.664c-.864-1.152-1.512-2.532-1.944-4.14-.432-1.608-.648-3.396-.648-5.364zm5.184 0c0 1.272.108 2.448.324 3.528.216 1.056.54 1.968.972 2.736.456.768 1.032 1.368 1.728 1.8.696.432 1.524.648 2.484.648 1.752 0 3.108-.684 4.068-2.052.96-1.368 1.44-3.588 1.44-6.66 0-1.224-.108-2.364-.324-3.42-.192-1.056-.504-1.98-.936-2.772-.432-.792-.996-1.404-1.692-1.836-.696-.456-1.548-.684-2.556-.684-1.752 0-3.108.708-4.068 2.124-.96 1.392-1.44 3.588-1.44 6.588zM510.569 143.596l.648 4.284h.18l.72-4.32 4.824-14.76h5.184l-9.36 25.38h-3.528l-9.432-25.38h5.724l5.04 14.796zM523.945 128.8h14.94v4.392h-10.008v5.868h9.108v4.392h-9.108v6.156h10.188V154h-15.12v-25.2z"/>
  <path d="M249.113 190h-7.452v-12.6h1.494v11.268h5.958V190zM249.257 185.5c0-1.524.336-2.688 1.008-3.492.684-.816 1.662-1.224 2.934-1.224.672 0 1.254.114 1.746.342.504.216.918.534 1.242.954.324.408.564.906.72 1.494.156.576.234 1.218.234 1.926 0 1.524-.342 2.694-1.026 3.51-.672.804-1.644 1.206-2.916 1.206-.672 0-1.26-.108-1.764-.324a3.319 3.319 0 01-1.224-.954 4.222 4.222 0 01-.72-1.494 7.573 7.573 0 01-.234-1.944zm1.494 0c0 .456.042.894.126 1.314.096.42.24.786.432 1.098.192.312.444.564.756.756.312.192.69.288 1.134.288 1.632.012 2.448-1.14 2.448-3.456 0-.468-.048-.912-.144-1.332a3.32 3.32 0 00-.414-1.098 2.12 2.12 0 00-.756-.738c-.312-.192-.69-.288-1.134-.288-1.632-.012-2.448 1.14-2.448 3.456zM261.792 186.274l.504 1.71h.018l.45-1.746L264.78 181h1.548l-3.834 9.198h-.612L257.976 181h1.656l2.16 5.274zM274.26 189.28c-.36.288-.816.516-1.368.684a5.786 5.786 0 01-1.728.252c-.684 0-1.278-.108-1.782-.324a3.286 3.286 0 01-1.242-.954 4.222 4.222 0 01-.72-1.494 7.442 7.442 0 01-.234-1.944c0-1.536.342-2.706 1.026-3.51.684-.804 1.662-1.206 2.934-1.206.408 0 .816.048 1.224.144.408.084.774.252 1.098.504.324.252.588.612.792 1.08.204.456.306 1.062.306 1.818 0 .396-.036.834-.108 1.314h-5.778c0 .528.054.996.162 1.404.108.408.276.756.504 1.044.228.276.522.492.882.648.372.144.822.216 1.35.216.408 0 .816-.072 1.224-.216.408-.144.714-.312.918-.504l.54 1.044zm-3.096-7.236c-.708 0-1.278.186-1.71.558-.42.372-.672 1.008-.756 1.908h4.464c0-.912-.174-1.548-.522-1.908-.348-.372-.84-.558-1.476-.558zM278.433 187.786c0 .42.072.72.216.9.144.18.348.27.612.27.156 0 .324-.012.504-.036.18-.024.384-.078.612-.162l.162 1.134c-.192.096-.462.174-.81.234-.336.06-.63.09-.882.09-.54 0-.984-.15-1.332-.45-.348-.312-.522-.834-.522-1.566v-10.8h1.44v10.386zM284.733 186.832l.504 1.728h.09l.396-1.746 1.746-5.814h1.458l-2.664 8.082a90.626 90.626 0 01-.612 1.71 9.396 9.396 0 01-.648 1.476c-.24.432-.51.774-.81 1.026-.3.264-.648.396-1.044.396-.432 0-.786-.06-1.062-.18l.252-1.242c.156.06.306.09.45.09.336 0 .66-.18.972-.54.312-.348.57-.954.774-1.818l-3.618-9h1.656l2.16 5.832zM294.764 177.526a9.09 9.09 0 011.476-.216c.528-.036 1.05-.054 1.566-.054.552 0 1.11.054 1.674.162a4.563 4.563 0 011.566.594 3.27 3.27 0 011.134 1.188c.3.504.45 1.146.45 1.926 0 .768-.138 1.416-.414 1.944-.276.528-.642.96-1.098 1.296a4.537 4.537 0 01-1.566.702 7.615 7.615 0 01-1.818.216h-.738l-.432-.036a3.093 3.093 0 01-.306-.036V190h-1.494v-12.474zm3.078 1.026c-.312 0-.612.006-.9.018a3.052 3.052 0 00-.684.09v5.22c.06.024.156.042.288.054.132 0 .27.006.414.018h.702c.408 0 .81-.036 1.206-.108a3.284 3.284 0 001.098-.432 2.17 2.17 0 00.774-.864c.204-.372.306-.846.306-1.422 0-.492-.096-.9-.288-1.224-.18-.336-.426-.6-.738-.792a2.91 2.91 0 00-1.026-.432 5.377 5.377 0 00-1.152-.126zM303.52 185.5c0-1.524.336-2.688 1.008-3.492.684-.816 1.662-1.224 2.934-1.224.672 0 1.254.114 1.746.342.504.216.918.534 1.242.954.324.408.564.906.72 1.494.156.576.234 1.218.234 1.926 0 1.524-.342 2.694-1.026 3.51-.672.804-1.644 1.206-2.916 1.206-.672 0-1.26-.108-1.764-.324a3.319 3.319 0 01-1.224-.954 4.222 4.222 0 01-.72-1.494 7.573 7.573 0 01-.234-1.944zm1.494 0c0 .456.042.894.126 1.314.096.42.24.786.432 1.098.192.312.444.564.756.756.312.192.69.288 1.134.288 1.632.012 2.448-1.14 2.448-3.456 0-.468-.048-.912-.144-1.332a3.32 3.32 0 00-.414-1.098 2.12 2.12 0 00-.756-.738c-.312-.192-.69-.288-1.134-.288-1.632-.012-2.448 1.14-2.448 3.456zM320.587 186.904c0 .612.006 1.17.018 1.674.012.492.066.978.162 1.458h-.972l-.36-1.278h-.072a2.9 2.9 0 01-1.044 1.044c-.456.276-.99.414-1.602.414-1.2 0-2.094-.378-2.682-1.134-.576-.756-.864-1.938-.864-3.546 0-1.536.36-2.7 1.08-3.492.732-.804 1.734-1.206 3.006-1.206.444 0 .792.024 1.044.072.264.048.546.126.846.234V177.4h1.44v9.504zm-3.636 2.052c.612 0 1.098-.156 1.458-.468.36-.324.606-.81.738-1.458v-4.464a2.017 2.017 0 00-.738-.36c-.276-.072-.642-.108-1.098-.108-.828 0-1.476.276-1.944.828-.468.54-.702 1.41-.702 2.61 0 .492.036.948.108 1.368.084.42.216.78.396 1.08.18.3.414.54.702.72.3.168.66.252 1.08.252zM329.498 189.406c-.36.264-.786.462-1.278.594a5.483 5.483 0 01-1.548.216c-.696 0-1.284-.108-1.764-.324a3.197 3.197 0 01-1.188-.954c-.3-.42-.522-.918-.666-1.494a8.883 8.883 0 01-.198-1.944c0-1.524.336-2.688 1.008-3.492.672-.816 1.638-1.224 2.898-1.224.576 0 1.062.048 1.458.144.408.084.774.21 1.098.378l-.414 1.242a3.66 3.66 0 00-.918-.36 3.915 3.915 0 00-1.08-.144c-1.704 0-2.556 1.152-2.556 3.456 0 .456.042.894.126 1.314.096.408.246.774.45 1.098.216.312.492.564.828.756.348.192.774.288 1.278.288.432 0 .816-.066 1.152-.198.348-.132.63-.282.846-.45l.468 1.098zM331.337 181.666a5.19 5.19 0 011.584-.612 9.026 9.026 0 011.908-.198c.624 0 1.122.084 1.494.252.384.168.672.39.864.666.204.264.336.558.396.882.072.324.108.648.108.972 0 .72-.018 1.422-.054 2.106a37.07 37.07 0 00-.054 1.944c0 .444.018.864.054 1.26.036.396.102.762.198 1.098h-1.062l-.378-1.26h-.09a3.061 3.061 0 01-.414.504c-.156.156-.348.3-.576.432a3.812 3.812 0 01-1.818.432c-.384 0-.744-.06-1.08-.18a2.6 2.6 0 01-.846-.504 2.618 2.618 0 01-.576-.81 2.703 2.703 0 01-.198-1.062c0-.528.108-.966.324-1.314.216-.36.516-.642.9-.846a4.293 4.293 0 011.404-.45 10.638 10.638 0 011.818-.144h.486c.168 0 .336.012.504.036.036-.36.054-.684.054-.972 0-.66-.132-1.122-.396-1.386-.264-.264-.744-.396-1.44-.396-.204 0-.426.018-.666.054a5.686 5.686 0 00-.72.126c-.24.048-.474.114-.702.198a3.198 3.198 0 00-.576.252l-.45-1.08zm2.556 7.218c.336 0 .636-.042.9-.126.264-.096.492-.21.684-.342.192-.144.348-.3.468-.468.132-.168.228-.33.288-.486v-1.494a7.33 7.33 0 00-.522-.018 8.3 8.3 0 00-1.602.054 3.15 3.15 0 00-.936.234c-.264.108-.48.264-.648.468-.156.192-.234.438-.234.738 0 .42.15.768.45 1.044.3.264.684.396 1.152.396zM344.371 187.552c0-.36-.108-.642-.324-.846a2.585 2.585 0 00-.81-.504 8.658 8.658 0 00-1.044-.396 5.935 5.935 0 01-1.044-.486 2.86 2.86 0 01-.792-.774c-.216-.312-.324-.732-.324-1.26 0-.864.246-1.494.738-1.89.492-.408 1.176-.612 2.052-.612.648 0 1.188.06 1.62.18.444.108.828.24 1.152.396l-.342 1.188a5.186 5.186 0 00-1.008-.342 4.571 4.571 0 00-1.242-.162c-.528 0-.918.09-1.17.27-.24.18-.36.492-.36.936 0 .312.108.558.324.738.216.168.48.324.792.468.324.132.672.264 1.044.396a4.25 4.25 0 011.044.522c.324.216.594.492.81.828.216.324.324.756.324 1.296 0 .384-.066.744-.198 1.08a2.11 2.11 0 01-.576.864c-.264.24-.594.426-.99.558-.384.144-.84.216-1.368.216-.684 0-1.266-.066-1.746-.198a5.502 5.502 0 01-1.206-.468l.432-1.224c.276.156.636.3 1.08.432.444.132.894.198 1.35.198.516 0 .942-.102 1.278-.306.336-.204.504-.57.504-1.098zM346.799 181h1.404v-1.782l1.44-.414V181h2.448v1.26h-2.448v4.986c0 .624.078 1.068.234 1.332.156.252.42.378.792.378.312 0 .576-.03.792-.09.216-.072.456-.162.72-.27l.324 1.098a5.538 5.538 0 01-1.062.378 5.11 5.11 0 01-1.242.144c-.732 0-1.248-.204-1.548-.612-.3-.42-.45-1.116-.45-2.088v-5.256h-1.404V181zM364.444 186.508H359.8L358.54 190h-1.476l4.77-12.798h.684L367.306 190h-1.566l-1.296-3.492zm-4.158-1.296h3.708l-1.404-3.834-.45-1.908h-.018l-.45 1.944-1.386 3.798zM368.835 177.4h1.44v4.482h.072a2.79 2.79 0 011.044-.81c.432-.192.9-.288 1.404-.288 1.164 0 2.034.372 2.61 1.116.588.744.882 1.896.882 3.456 0 1.572-.384 2.766-1.152 3.582-.768.816-1.848 1.224-3.24 1.224a7.271 7.271 0 01-1.836-.216c-.54-.144-.948-.3-1.224-.468V177.4zm3.708 4.644c-.6 0-1.086.168-1.458.504-.372.336-.642.81-.81 1.422v4.536c.228.132.504.234.828.306.324.06.66.09 1.008.09.816 0 1.464-.288 1.944-.864.492-.576.738-1.476.738-2.7 0-.468-.042-.906-.126-1.314a3.157 3.157 0 00-.396-1.044 2.015 2.015 0 00-.702-.684c-.276-.168-.618-.252-1.026-.252zM378.052 185.5c0-1.524.336-2.688 1.008-3.492.684-.816 1.662-1.224 2.934-1.224.672 0 1.254.114 1.746.342.504.216.918.534 1.242.954.324.408.564.906.72 1.494.156.576.234 1.218.234 1.926 0 1.524-.342 2.694-1.026 3.51-.672.804-1.644 1.206-2.916 1.206-.672 0-1.26-.108-1.764-.324a3.319 3.319 0 01-1.224-.954 4.222 4.222 0 01-.72-1.494 7.573 7.573 0 01-.234-1.944zm1.494 0c0 .456.042.894.126 1.314.096.42.24.786.432 1.098.192.312.444.564.756.756.312.192.69.288 1.134.288 1.632.012 2.448-1.14 2.448-3.456 0-.468-.048-.912-.144-1.332a3.32 3.32 0 00-.414-1.098 2.12 2.12 0 00-.756-.738c-.312-.192-.69-.288-1.134-.288-1.632-.012-2.448 1.14-2.448 3.456zM389.502 181v5.13c0 .468.024.882.072 1.242.06.348.156.642.288.882.132.228.312.402.54.522.228.12.516.18.864.18.324 0 .612-.048.864-.144.252-.108.474-.252.666-.432.204-.18.378-.384.522-.612a3.71 3.71 0 00.378-.756V181h1.44v6.444c0 .432.012.882.036 1.35.036.456.09.858.162 1.206h-.99l-.36-1.422h-.09a3.58 3.58 0 01-1.116 1.17c-.468.312-1.062.468-1.782.468-.48 0-.906-.06-1.278-.18a1.939 1.939 0 01-.918-.594c-.24-.288-.426-.672-.558-1.152-.12-.492-.18-1.11-.18-1.854V181h1.44zM396.721 181h1.404v-1.782l1.44-.414V181h2.448v1.26h-2.448v4.986c0 .624.078 1.068.234 1.332.156.252.42.378.792.378.312 0 .576-.03.792-.09.216-.072.456-.162.72-.27l.324 1.098a5.538 5.538 0 01-1.062.378 5.11 5.11 0 01-1.242.144c-.732 0-1.248-.204-1.548-.612-.3-.42-.45-1.116-.45-2.088v-5.256h-1.404V181zM408.952 177.526a9.09 9.09 0 011.476-.216c.528-.036 1.05-.054 1.566-.054.552 0 1.11.054 1.674.162a4.563 4.563 0 011.566.594 3.27 3.27 0 011.134 1.188c.3.504.45 1.146.45 1.926 0 .768-.138 1.416-.414 1.944-.276.528-.642.96-1.098 1.296a4.537 4.537 0 01-1.566.702 7.615 7.615 0 01-1.818.216h-.738l-.432-.036a3.093 3.093 0 01-.306-.036V190h-1.494v-12.474zm3.078 1.026c-.312 0-.612.006-.9.018a3.052 3.052 0 00-.684.09v5.22c.06.024.156.042.288.054.132 0 .27.006.414.018h.702c.408 0 .81-.036 1.206-.108a3.284 3.284 0 001.098-.432 2.17 2.17 0 00.774-.864c.204-.372.306-.846.306-1.422 0-.492-.096-.9-.288-1.224-.18-.336-.426-.6-.738-.792a2.91 2.91 0 00-1.026-.432 5.377 5.377 0 00-1.152-.126zM422.478 182.386c-.36-.12-.702-.18-1.026-.18-.516 0-.924.144-1.224.432a1.8 1.8 0 00-.558 1.062v6.3h-1.44v-9h1.008l.27 1.098h.072c.228-.408.498-.72.81-.936.324-.228.732-.342 1.224-.342.348 0 .738.06 1.17.18l-.306 1.386zM423.843 185.5c0-1.524.336-2.688 1.008-3.492.684-.816 1.662-1.224 2.934-1.224.672 0 1.254.114 1.746.342.504.216.918.534 1.242.954.324.408.564.906.72 1.494.156.576.234 1.218.234 1.926 0 1.524-.342 2.694-1.026 3.51-.672.804-1.644 1.206-2.916 1.206-.672 0-1.26-.108-1.764-.324a3.319 3.319 0 01-1.224-.954 4.222 4.222 0 01-.72-1.494 7.573 7.573 0 01-.234-1.944zm1.494 0c0 .456.042.894.126 1.314.096.42.24.786.432 1.098.192.312.444.564.756.756.312.192.69.288 1.134.288 1.632.012 2.448-1.14 2.448-3.456 0-.468-.048-.912-.144-1.332a3.32 3.32 0 00-.414-1.098 2.12 2.12 0 00-.756-.738c-.312-.192-.69-.288-1.134-.288-1.632-.012-2.448 1.14-2.448 3.456zM440.891 190.414c0 1.164-.312 2.022-.936 2.574-.612.552-1.524.828-2.736.828-.72 0-1.302-.048-1.746-.144a4.907 4.907 0 01-1.116-.342l.378-1.224c.276.108.582.21.918.306.336.096.774.144 1.314.144.504 0 .912-.048 1.224-.144.324-.084.582-.234.774-.45.192-.204.324-.474.396-.81a5.47 5.47 0 00.108-1.17v-.864h-.072c-.24.348-.546.618-.918.81-.372.18-.858.27-1.458.27-1.212 0-2.106-.378-2.682-1.134-.564-.756-.846-1.932-.846-3.528 0-1.536.366-2.7 1.098-3.492.732-.804 1.812-1.206 3.24-1.206.684 0 1.266.054 1.746.162.492.108.93.234 1.314.378v9.036zm-3.618-1.476c.612 0 1.092-.15 1.44-.45.348-.312.594-.792.738-1.44v-4.608c-.48-.228-1.092-.342-1.836-.342-.816 0-1.458.276-1.926.828-.468.552-.702 1.416-.702 2.592 0 .504.042.966.126 1.386.084.42.216.78.396 1.08.18.3.414.534.702.702.288.168.642.252 1.062.252zM447.913 182.386c-.36-.12-.702-.18-1.026-.18-.516 0-.924.144-1.224.432a1.8 1.8 0 00-.558 1.062v6.3h-1.44v-9h1.008l.27 1.098h.072c.228-.408.498-.72.81-.936.324-.228.732-.342 1.224-.342.348 0 .738.06 1.17.18l-.306 1.386zM449.638 181.666a5.19 5.19 0 011.584-.612 9.026 9.026 0 011.908-.198c.624 0 1.122.084 1.494.252.384.168.672.39.864.666.204.264.336.558.396.882.072.324.108.648.108.972 0 .72-.018 1.422-.054 2.106a37.07 37.07 0 00-.054 1.944c0 .444.018.864.054 1.26.036.396.102.762.198 1.098h-1.062l-.378-1.26h-.09a3.061 3.061 0 01-.414.504c-.156.156-.348.3-.576.432a3.812 3.812 0 01-1.818.432c-.384 0-.744-.06-1.08-.18a2.6 2.6 0 01-.846-.504 2.618 2.618 0 01-.576-.81 2.703 2.703 0 01-.198-1.062c0-.528.108-.966.324-1.314.216-.36.516-.642.9-.846a4.293 4.293 0 011.404-.45 10.638 10.638 0 011.818-.144h.486c.168 0 .336.012.504.036.036-.36.054-.684.054-.972 0-.66-.132-1.122-.396-1.386-.264-.264-.744-.396-1.44-.396-.204 0-.426.018-.666.054a5.686 5.686 0 00-.72.126c-.24.048-.474.114-.702.198a3.198 3.198 0 00-.576.252l-.45-1.08zm2.556 7.218c.336 0 .636-.042.9-.126.264-.096.492-.21.684-.342.192-.144.348-.3.468-.468.132-.168.228-.33.288-.486v-1.494a7.33 7.33 0 00-.522-.018 8.3 8.3 0 00-1.602.054 3.15 3.15 0 00-.936.234c-.264.108-.48.264-.648.468-.156.192-.234.438-.234.738 0 .42.15.768.45 1.044.3.264.684.396 1.152.396zM463.986 190v-5.094c0-.48-.024-.894-.072-1.242-.036-.36-.114-.66-.234-.9-.12-.24-.294-.42-.522-.54-.216-.12-.504-.18-.864-.18-.552 0-1.014.168-1.386.504a2.7 2.7 0 00-.756 1.26V190h-1.44v-9h1.008l.27 1.098h.072a4.143 4.143 0 011.116-.936c.432-.252.99-.378 1.674-.378.576 0 1.044.114 1.404.342.372.216.66.6.864 1.152a2.933 2.933 0 011.134-1.098 3.446 3.446 0 011.656-.396c.504 0 .93.06 1.278.18.348.108.636.306.864.594.228.288.39.678.486 1.17.108.492.162 1.116.162 1.872v5.4h-1.44v-5.418c0-.432-.024-.804-.072-1.116-.036-.324-.12-.588-.252-.792a1.045 1.045 0 00-.522-.468c-.216-.108-.504-.162-.864-.162-.6 0-1.068.168-1.404.504-.336.336-.576.816-.72 1.44V190h-1.44zM478.593 190v-5.094c0-.48-.024-.894-.072-1.242-.036-.36-.114-.66-.234-.9-.12-.24-.294-.42-.522-.54-.216-.12-.504-.18-.864-.18-.552 0-1.014.168-1.386.504a2.7 2.7 0 00-.756 1.26V190h-1.44v-9h1.008l.27 1.098h.072a4.143 4.143 0 011.116-.936c.432-.252.99-.378 1.674-.378.576 0 1.044.114 1.404.342.372.216.66.6.864 1.152a2.933 2.933 0 011.134-1.098 3.446 3.446 0 011.656-.396c.504 0 .93.06 1.278.18.348.108.636.306.864.594.228.288.39.678.486 1.17.108.492.162 1.116.162 1.872v5.4h-1.44v-5.418c0-.432-.024-.804-.072-1.116-.036-.324-.12-.588-.252-.792a1.045 1.045 0 00-.522-.468c-.216-.108-.504-.162-.864-.162-.6 0-1.068.168-1.404.504-.336.336-.576.816-.72 1.44V190h-1.44zM488.233 181h1.44v9h-1.44v-9zm-.306-2.736c0-.276.09-.51.27-.702a.948.948 0 01.72-.306c.288 0 .534.102.738.306a.928.928 0 01.306.702.873.873 0 01-.306.684c-.204.18-.45.27-.738.27s-.528-.09-.72-.27a.927.927 0 01-.27-.684zM498.521 190v-5.13c0-.936-.138-1.638-.414-2.106-.264-.48-.756-.72-1.476-.72-.636 0-1.164.174-1.584.522a2.703 2.703 0 00-.864 1.278V190h-1.44v-9h1.008l.27 1.098h.072a3.195 3.195 0 011.152-.936c.492-.252 1.074-.378 1.746-.378.492 0 .924.06 1.296.18.372.108.678.306.918.594.252.288.438.678.558 1.17.132.48.198 1.092.198 1.836V190h-1.44zM509.481 190.414c0 1.164-.312 2.022-.936 2.574-.612.552-1.524.828-2.736.828-.72 0-1.302-.048-1.746-.144a4.907 4.907 0 01-1.116-.342l.378-1.224c.276.108.582.21.918.306.336.096.774.144 1.314.144.504 0 .912-.048 1.224-.144.324-.084.582-.234.774-.45.192-.204.324-.474.396-.81a5.47 5.47 0 00.108-1.17v-.864h-.072c-.24.348-.546.618-.918.81-.372.18-.858.27-1.458.27-1.212 0-2.106-.378-2.682-1.134-.564-.756-.846-1.932-.846-3.528 0-1.536.366-2.7 1.098-3.492.732-.804 1.812-1.206 3.24-1.206.684 0 1.266.054 1.746.162.492.108.93.234 1.314.378v9.036zm-3.618-1.476c.612 0 1.092-.15 1.44-.45.348-.312.594-.792.738-1.44v-4.608c-.48-.228-1.092-.342-1.836-.342-.816 0-1.458.276-1.926.828-.468.552-.702 1.416-.702 2.592 0 .504.042.966.126 1.386.084.42.216.78.396 1.08.18.3.414.534.702.702.288.168.642.252 1.062.252z" fill="#666"/>
</svg>
