<svg width="579" height="319" viewBox="0 0 579 319" fill="none" xmlns="http://www.w3.org/2000/svg">
  <g class="scala-card-text">
    <path d="M233.816 169.496c0 3.712 1.579 5.568 4.736 5.568 3.456 0 5.781-1.195 6.976-3.584.427-.853.64-1.941.64-3.264 0-1.365-.32-2.624-.96-3.776-1.067-1.835-2.901-3.861-5.504-6.08-4.309-3.669-6.464-7.467-6.464-11.392 0-3.968 1.237-7.019 3.712-9.152 2.475-2.133 5.312-3.2 8.512-3.2s5.739.811 7.616 2.432c1.877 1.621 2.816 4.053 2.816 7.296 0 2.133-.725 3.989-2.176 5.568-1.408 1.579-3.285 2.56-5.632 2.944 1.067.896 2.133 1.813 3.2 2.752a24.073 24.073 0 012.816 3.072c1.877 2.517 2.816 5.525 2.816 9.024 0 2.432-.576 4.629-1.728 6.592a15.928 15.928 0 01-4.416 4.992c-1.792 1.323-3.819 2.347-6.08 3.072-2.261.725-4.373 1.088-6.336 1.088-4.181 0-7.424-.96-9.728-2.88-2.688-2.176-4.032-5.312-4.032-9.408 0-2.688.875-5.291 2.624-7.808 1.749-2.517 3.605-3.776 5.568-3.776 1.536 0 2.304.469 2.304 1.408 0 1.365-.213 2.731-.64 4.096-.427 1.323-.64 2.795-.64 4.416zm12.416-18.176c2.432-2.432 3.648-4.971 3.648-7.616 0-.811-.427-1.493-1.28-2.048a6.066 6.066 0 00-2.944-.768c-2.304 0-3.968.747-4.992 2.24.512 1.835 1.259 3.392 2.24 4.672a28.957 28.957 0 003.328 3.52zM286.828 167.896c.768 0 1.152.661 1.152 1.984 0 1.28-.341 2.667-1.024 4.16-.64 1.493-1.643 2.944-3.008 4.352-1.323 1.365-3.029 2.539-5.12 3.52-2.091.981-4.565 1.472-7.424 1.472-2.816 0-5.291-.832-7.424-2.496-2.133-1.707-3.2-4.139-3.2-7.296 0-3.2.491-6.08 1.472-8.64 1.024-2.603 2.347-4.843 3.968-6.72 1.664-1.877 3.541-3.328 5.632-4.352 2.091-1.067 4.075-1.6 5.952-1.6 3.285 0 4.928 1.301 4.928 3.904 0 1.493-.32 2.688-.96 3.584-.597.896-1.216 1.344-1.856 1.344-.853 0-1.6-.299-2.24-.896-.64-.597-1.344-.896-2.112-.896-.768-.043-1.515.32-2.24 1.088-.683.768-1.259 1.749-1.728 2.944-.939 2.389-1.408 5.184-1.408 8.384.043 1.536.747 2.688 2.112 3.456.939.512 2.048.789 3.328.832 1.28 0 2.496-.427 3.648-1.28a25.805 25.805 0 003.264-2.752 64.681 64.681 0 002.56-2.816c.768-.853 1.344-1.28 1.728-1.28z"/>
    <path d="M324.091 167.896c.768 0 1.152.981 1.152 2.944 0 1.067-.448 2.368-1.344 3.904-.896 1.493-2.069 2.88-3.52 4.16a19.664 19.664 0 01-4.736 3.072c-1.749.811-3.456 1.216-5.12 1.216-2.261 0-3.776-1.984-4.544-5.952a14.275 14.275 0 01-4.352 4.544c-1.792 1.152-4.203 1.728-7.232 1.728-2.987 0-5.397-.939-7.232-2.816-1.835-1.877-2.731-4.16-2.688-6.848 0-7.253 2.411-12.971 7.232-17.152 2.048-1.749 3.947-2.901 5.696-3.456a18.926 18.926 0 015.632-.832c1.963 0 3.563.341 4.8 1.024.597-1.237 1.28-1.856 2.048-1.856 1.493 0 2.901.661 4.224 1.984 1.365 1.28 2.048 2.496 2.048 3.648-.597 1.408-1.472 3.093-2.624 5.056-.341 1.963-.512 4.715-.512 8.256 0 3.541.448 5.312 1.344 5.312 1.109 0 3.797-2.219 8.064-6.656.768-.853 1.323-1.28 1.664-1.28zm-30.208 3.84c0 3.285 1.216 4.928 3.648 4.928 2.603-.043 4.757-1.429 6.464-4.16.597-.939 1.088-2.091 1.472-3.456 0-4.779.427-8.875 1.28-12.288-3.456.683-6.464 2.347-9.024 4.992-2.56 2.645-3.84 5.973-3.84 9.984z"/>
    <path d="M336.317 183.192c-6.101.043-10.261-2.24-12.48-6.848-.768-1.621-1.152-3.648-1.152-6.08 0-2.475.213-5.099.64-7.872.853-5.547 2.496-10.667 4.928-15.36 1.237-2.389 2.624-4.437 4.16-6.144 3.371-3.755 7.125-5.611 11.264-5.568 1.835 0 3.264.512 4.288 1.536 1.067.981 1.6 2.411 1.6 4.288 0 1.877-.555 3.776-1.664 5.696-1.109 1.877-2.539 3.84-4.288 5.888a169.6 169.6 0 01-5.696 6.336 95.57 95.57 0 00-6.144 7.232v2.56c0 2.389.512 4.139 1.536 5.248s2.219 1.664 3.584 1.664c3.669 0 6.912-1.813 9.728-5.44 1.152-1.493 2.027-2.24 2.624-2.24s.896.725.896 2.176-.405 2.944-1.216 4.48c-.768 1.493-1.792 2.88-3.072 4.16a17.058 17.058 0 01-4.416 3.072c-1.664.811-3.371 1.216-5.12 1.216zm3.456-34.368c.896-1.109 1.6-2.112 2.112-3.008.512-.896.768-1.813.768-2.752 0-.981-.341-1.472-1.024-1.472-1.493 0-3.157 1.536-4.992 4.608-1.792 3.072-3.136 7.104-4.032 12.096 1.451-2.219 2.773-4.075 3.968-5.568a416.016 416.016 0 003.2-3.904z"/>
    <path d="M385.654 167.896c.768 0 1.152.981 1.152 2.944 0 1.067-.448 2.368-1.344 3.904-.896 1.493-2.07 2.88-3.52 4.16a19.664 19.664 0 01-4.736 3.072c-1.75.811-3.456 1.216-5.12 1.216-2.262 0-3.776-1.984-4.544-5.952a14.285 14.285 0 01-4.352 4.544c-1.792 1.152-4.203 1.728-7.232 1.728-2.987 0-5.398-.939-7.232-2.816-1.835-1.877-2.731-4.16-2.688-6.848 0-7.253 2.41-12.971 7.232-17.152 2.048-1.749 3.946-2.901 5.696-3.456a18.926 18.926 0 015.632-.832c1.962 0 3.562.341 4.8 1.024.597-1.237 1.28-1.856 2.048-1.856 1.493 0 2.901.661 4.224 1.984 1.365 1.28 2.048 2.496 2.048 3.648-.598 1.408-1.472 3.093-2.624 5.056-.342 1.963-.512 4.715-.512 8.256 0 3.541.448 5.312 1.344 5.312 1.109 0 3.797-2.219 8.064-6.656.768-.853 1.322-1.28 1.664-1.28zm-30.208 3.84c0 3.285 1.216 4.928 3.648 4.928 2.602-.043 4.757-1.429 6.464-4.16.597-.939 1.088-2.091 1.472-3.456 0-4.779.426-8.875 1.28-12.288-3.456.683-6.464 2.347-9.024 4.992-2.56 2.645-3.84 5.973-3.84 9.984zM449.169 167.896c.64 0 .96.725.96 2.176 0 3.029-1.408 5.973-4.224 8.832-2.816 2.816-6.251 4.245-10.304 4.288-2.859 0-6.166-1.131-9.92-3.392-2.688 2.859-6.038 4.288-10.048 4.288-2.646 0-4.587-.661-5.824-1.984-1.238-1.323-1.856-3.072-1.856-5.248s.789-3.797 2.368-4.864c1.621-1.109 3.669-1.664 6.144-1.664a33.7 33.7 0 013.712.192c0-5.205.576-10.283 1.728-15.232-1.408-.725-2.624-1.536-3.648-2.432-.982-.896-1.472-1.6-1.472-2.112 0-1.365.298-2.048.896-2.048.853 0 1.728.256 2.624.768.938.469 1.941.832 3.008 1.088 2.645-7.637 6.272-12.565 10.88-14.784a11.816 11.816 0 015.12-1.152c6.741 0 10.112 2.837 10.112 8.512 0 3.243-1.216 6.037-3.648 8.384-3.371 3.243-8.491 4.949-15.36 5.12-.47 3.584-.704 7.829-.704 12.736 0 1.195-.15 2.539-.448 4.032a99.917 99.917 0 004.352 2.112c1.408.64 3.136.96 5.184.96 1.066 0 2.112-.448 3.136-1.344a24.008 24.008 0 002.944-2.944 96.883 96.883 0 002.496-2.944c.725-.896 1.322-1.344 1.792-1.344zm-9.984-27.008c-3.584 0-6.187 3.413-7.808 10.24 3.072-.256 5.653-1.109 7.744-2.56 2.133-1.493 3.2-2.987 3.2-4.48 0-2.133-1.046-3.2-3.136-3.2zm-25.024 36.416c.042 1.195.874 1.792 2.496 1.792 1.621 0 2.645-.939 3.072-2.816-1.195-.597-2.176-.896-2.944-.896-1.707 0-2.582.64-2.624 1.92z"/>
    <path d="M472.964 177.56c-3.371 3.968-7.424 5.952-12.16 5.952-4.694 0-8.214-1.195-10.56-3.584-2.347-2.432-3.499-5.44-3.456-9.024-.043-5.077 1.557-9.451 4.8-13.12 3.242-3.669 7.488-5.504 12.736-5.504 2.389 0 4.309.299 5.76.896 2.517 1.024 3.776 1.984 3.776 2.88 0 .683-1.771 1.045-5.312 1.088-3.499 0-6.443 1.216-8.832 3.648-2.347 2.389-3.52 5.419-3.52 9.088 0 1.92.554 3.541 1.664 4.864 1.152 1.28 2.752 1.92 4.8 1.92 2.09 0 3.818-.427 5.184-1.28-3.03-2.048-4.544-5.013-4.544-8.896-.043-2.048.682-3.904 2.176-5.568 1.536-1.707 3.477-2.56 5.824-2.56 2.389-.043 4.096.597 5.12 1.92s1.536 3.029 1.536 5.12c0 2.048-.491 4.224-1.472 6.528h.384c1.877-.043 3.498-.704 4.864-1.984.512-.512.938-.96 1.28-1.344.384-.384.768-.576 1.152-.576.597 0 .896.704.896 2.112 0 2.603-.768 4.565-2.304 5.888-1.536 1.28-3.243 1.92-5.12 1.92-1.835 0-3.392-.128-4.672-.384zm-.576-7.424c.725-1.536 1.088-3.029 1.088-4.48 0-1.451-.47-2.176-1.408-2.176-.384 0-.704.277-.96.832-.256.555-.384 1.088-.384 1.6 0 1.707.554 3.115 1.664 4.224z"/>
    <path d="M491.97 154.84c0 2.859-.512 6.101-1.536 9.728a63.9 63.9 0 01.128 3.968c0 1.28.085 2.389.256 3.328.64 1.707 1.45 2.752 2.432 3.136.853 0 1.792-.725 2.816-2.176 1.024-1.493 2.069-3.264 3.136-5.312-.512-1.963-.768-3.819-.768-5.568 0-3.072.469-5.312 1.408-6.72 1.152-1.792 2.901-2.688 5.248-2.688 2.346 0 3.904.896 4.672 2.688.298.683.448 1.451.448 2.304 0 1.536-.384 3.115-1.152 4.736-.768 1.579-2.006 3.669-3.712 6.272.768 2.261 1.92 3.392 3.456 3.392 1.877-.043 3.498-.704 4.864-1.984.512-.512.938-.96 1.28-1.344.384-.384.768-.576 1.152-.576.597 0 .896.704.896 2.112 0 2.645-.768 4.587-2.304 5.824-1.494 1.195-3.392 1.792-5.696 1.792-3.03 0-5.44-1.323-7.232-3.968-4.992 6.485-9.174 9.728-12.544 9.728-1.323 0-2.624-1.877-3.904-5.632-1.28-3.755-2.262-8.832-2.944-15.232-.512-4.053-.214-6.955.896-8.704.938-1.365 2.773-2.048 5.504-2.048 1.024 0 1.813.32 2.368.96.554.597.832 1.259.832 1.984z"/>
    <path d="M529.02 176.024c3.328 0 6.549-1.323 9.664-3.968 1.152-.981 2.09-1.877 2.816-2.688.725-.853 1.28-1.28 1.664-1.28.597 0 .896.597.896 1.792s-.32 2.539-.96 4.032c-.64 1.451-1.707 2.88-3.2 4.288-3.67 3.456-8.704 5.184-15.104 5.184-5.078 0-8.534-1.835-10.368-5.504-.64-1.28-.96-3.115-.96-5.504 0-2.389.469-4.864 1.408-7.424.938-2.603 2.176-4.843 3.712-6.72 1.578-1.877 3.392-3.328 5.44-4.352a13.93 13.93 0 016.528-1.6c2.346 0 4.138.576 5.376 1.728 1.28 1.152 1.92 2.645 1.92 4.48 0 1.835-.47 3.349-1.408 4.544-.896 1.152-2.07 2.133-3.52 2.944-1.451.768-3.072 1.472-4.864 2.112a59.14 59.14 0 00-5.184 2.048v1.6c.042 1.536.682 2.624 1.92 3.264 1.237.64 2.645.981 4.224 1.024zm-1.088-18.048c-2.219 0-3.755 2.581-4.608 7.744a75.6 75.6 0 012.496-1.6c.81-.469 1.514-.917 2.112-1.344 1.28-.939 1.941-2.005 1.984-3.2 0-1.067-.662-1.6-1.984-1.6z"/>
  </g>
  <circle cx="118.5" cy="159.5" r="80.5" fill="#fff"/>
  <g clip-path="url(#clip0)">
    <path d="M63.108 138.822c6.795 1.083 32.21-15.887 33.84-26.929 5.98.27 15.765 6.495 16.853 8.931 3.751 8.417-38.054 37.62-48.383 34.643-1.902-4.33-2.664-13.126-2.31-16.645z" fill="url(#paint0_radial)"/>
    <path d="M123.857 120.824c-4.349 20.028-42.81 40.733-55.993 41.409 2.99 7.037 8.698 15.427 10.33 17.051 31.257-.812 85.891-48.446 80.183-64.414-7.882-5.142-26.909-4.601-34.52 5.954z" fill="url(#paint1_radial)"/>
    <path d="M85.804 187.945c13.047-1.894 83.989-41.68 81.543-66.038 6.523 5.142 9.513 18.133 5.164 32.207-7.311 23.655-63.168 45.74-73.66 45.198-2.719-1.894-9.514-6.766-13.047-11.367z" fill="url(#paint2_radial)"/>
    <path d="M105.646 203.643c6.523 1.353 47.295-17.322 52.731-23.817-6.523 10.014-11.959 12.72-15.221 15.427-10.057 8.336-24.572 13.072-26.366 12.72-4.349-.812-8.97-2.977-11.144-4.33z" fill="#D82A2A"/>
    <path d="M64.603 131.379c10.546 1.327 25.55-12.693 23.973-20.975-2.12-1.299-6.469-2.49-9.432-2.49.462 8.282-8.29 14.534-10.736 16.158-1.522 1.001-3.805 7.307-3.805 7.307z" fill="url(#paint3_radial)"/>
    <path d="M80.72 130.811c7.856-5.602 15.331-13.072 16.228-18.891-.081 0-.19-.027-.272-.027-3.452 0-6.115 2.76-9.92 5.873-4.214 7.253-14.38 14.588-22.153 13.613 1.223 2.599 8.29 2.544 16.118-.568z" fill="url(#paint4_radial)"/>
    <path d="M82.515 157.876c16.472-7.199 38.108-22.302 41.342-37.025-5.463 4.736-13.318 11.286-21.581 15.914-12.232 10.204-30.498 20.543-36.858 18.702 4.865 2.301 10.71 2.977 17.097 2.409z" fill="url(#paint5_radial)"/>
    <path d="M167.755 122.258a1.222 1.222 0 00-.354-.297c.136.108.245.189.354.297z" fill="url(#paint6_radial)"/>
    <path d="M114.154 174.9c24.544-14.182 54.77-36.917 53.193-52.966-3.126-1.164-10.03 6.576-19.462 15.616-16.58 19.108-48.49 41.166-69.665 41.734 4.322 4.358 18.51 2.436 35.934-4.384z" fill="url(#paint7_radial)"/>
    <path d="M98.851 199.312c-.027-.027-.054-.054-.109-.054.055 0 .082.027.11.054z" fill="url(#paint8_radial)"/>
    <path d="M125.271 197.797c13.672-5.711 29.763-14.02 33.079-17.944.68-.894 1.087-1.57 1.115-1.922.108-1.732-5.138-.352-12.069 1.895-18.836 11.719-42.103 19.811-48.518 19.486 3.044 2.003 15.357.514 26.393-1.515z" fill="url(#paint9_radial)"/>
    <path d="M134.893 200.882c-7.665 4.385-15.358 6.902-17.614 7.091 5.6 1.272 9.813-1.353 14.787 1.489 2.31-1.191 5.871-4.655 8.1-7.145-1.332-1.327-3.262-1.57-5.273-1.435z" fill="url(#paint10_radial)"/>
  </g>
  <defs>
    <radialGradient id="paint0_radial" cx="0" cy="0" r="1" gradientUnits="userSpaceOnUse" gradientTransform="matrix(35.0079 0 0 34.8583 98.227 125.786)">
      <stop stop-color="#E15961"/>
      <stop offset=".089" stop-color="#E25359"/>
      <stop offset=".432" stop-color="#E33F40"/>
      <stop offset=".746" stop-color="#E53331"/>
      <stop offset="1" stop-color="#E52F2C"/>
    </radialGradient>
    <radialGradient id="paint1_radial" cx="0" cy="0" r="1" gradientUnits="userSpaceOnUse" gradientTransform="matrix(75.8841 0 0 75.5598 134.275 131.592)">
      <stop offset=".07" stop-color="#E15961"/>
      <stop offset=".263" stop-color="#E3474B"/>
      <stop offset=".479" stop-color="#E43A39"/>
      <stop offset=".714" stop-color="#E5322F"/>
      <stop offset="1" stop-color="#E52F2C"/>
    </radialGradient>
    <radialGradient id="paint2_radial" cx="0" cy="0" r="1" gradientUnits="userSpaceOnUse" gradientTransform="matrix(59.5105 0 0 59.2561 163.295 148.177)">
      <stop offset=".083" stop-color="#E15961"/>
      <stop offset=".14" stop-color="#E25056"/>
      <stop offset=".27" stop-color="#E34243"/>
      <stop offset=".423" stop-color="#E43736"/>
      <stop offset=".619" stop-color="#E5312E"/>
      <stop offset="1" stop-color="#E52F2C"/>
    </radialGradient>
    <radialGradient id="paint3_radial" cx="0" cy="0" r="1" gradientUnits="userSpaceOnUse" gradientTransform="matrix(13.3125 0 0 13.2556 83.545 113.678)">
      <stop stop-color="#E15961"/>
      <stop offset=".089" stop-color="#E25359"/>
      <stop offset=".432" stop-color="#E33F40"/>
      <stop offset=".746" stop-color="#E53331"/>
      <stop offset="1" stop-color="#E52F2C"/>
    </radialGradient>
    <radialGradient id="paint4_radial" cx="0" cy="0" r="1" gradientUnits="userSpaceOnUse" gradientTransform="matrix(13.7194 0 0 13.6607 80.774 122.568)">
      <stop stop-color="#9F0C1D"/>
      <stop offset=".575" stop-color="#8E0C1D"/>
      <stop offset=".996" stop-color="#7F0C1D"/>
    </radialGradient>
    <radialGradient id="paint5_radial" cx="0" cy="0" r="1" gradientUnits="userSpaceOnUse" gradientTransform="matrix(24.5255 0 0 24.4206 94.635 139.458)">
      <stop stop-color="#9F0C1D"/>
      <stop offset=".575" stop-color="#8E0C1D"/>
      <stop offset=".996" stop-color="#7F0C1D"/>
    </radialGradient>
    <radialGradient id="paint6_radial" cx="0" cy="0" r="1" gradientUnits="userSpaceOnUse" gradientTransform="matrix(.15929 0 0 .1586 167.595 122.115)">
      <stop stop-color="#9F0C1D"/>
      <stop offset=".575" stop-color="#8E0C1D"/>
      <stop offset=".996" stop-color="#7F0C1D"/>
    </radialGradient>
    <radialGradient id="paint7_radial" cx="0" cy="0" r="1" gradientUnits="userSpaceOnUse" gradientTransform="matrix(38.0132 0 0 37.8507 122.816 151.716)">
      <stop stop-color="#9F0C1D"/>
      <stop offset=".575" stop-color="#8E0C1D"/>
      <stop offset=".996" stop-color="#7F0C1D"/>
    </radialGradient>
    <radialGradient id="paint8_radial" cx="0" cy="0" r="1" gradientUnits="userSpaceOnUse" gradientTransform="matrix(.04448 0 0 .0443 98.808 199.279)">
      <stop stop-color="#9F0C1D"/>
      <stop offset=".575" stop-color="#8E0C1D"/>
      <stop offset=".996" stop-color="#7F0C1D"/>
    </radialGradient>
    <radialGradient id="paint9_radial" cx="0" cy="0" r="1" gradientUnits="userSpaceOnUse" gradientTransform="matrix(22.9453 0 0 22.8472 129.163 188.705)">
      <stop stop-color="#9F0C1D"/>
      <stop offset=".575" stop-color="#8E0C1D"/>
      <stop offset=".996" stop-color="#7F0C1D"/>
    </radialGradient>
    <radialGradient id="paint10_radial" cx="0" cy="0" r="1" gradientUnits="userSpaceOnUse" gradientTransform="matrix(8.64622 0 0 8.60927 128.721 205.176)">
      <stop stop-color="#9F0C1D"/>
      <stop offset=".575" stop-color="#8E0C1D"/>
      <stop offset=".996" stop-color="#7F0C1D"/>
    </radialGradient>
    <clipPath id="clip0">
      <path fill="#fff" transform="translate(62.972 107.914)" d="M0 0h111.714v103.171H0z"/>
    </clipPath>
  </defs>
</svg>
