<svg  viewBox="0 0 33 33" fill="currentColor" xmlns="http://www.w3.org/2000/svg">
  <path fill-rule="evenodd" clip-rule="evenodd" d="M12.16 0h-.004a3.47 3.47 0 000 6.938h3.467V3.462A3.463 3.463 0 0012.16 0zM3.492 24.332a3.47 3.47 0 010-6.938h3.47v3.469a3.47 3.47 0 01-3.47 3.47zm5.198-3.47a3.467 3.467 0 016.933 0v8.672a3.467 3.467 0 01-6.933 0v-8.671zm3.466-5.227H3.47a3.47 3.47 0 010-6.938h8.687a3.47 3.47 0 010 6.938zm17.345-6.94a3.462 3.462 0 00-3.463 3.463v3.476h3.467a3.47 3.47 0 000-6.938H29.5zm-12.122 3.471V3.47a3.467 3.467 0 016.932 0v8.697a3.467 3.467 0 01-6.932 0zm6.93 17.365a3.467 3.467 0 00-3.466-3.466h-3.466v3.469a3.466 3.466 0 006.933-.003zm-3.465-12.137h8.687a3.47 3.47 0 010 6.938h-8.687a3.47 3.47 0 010-6.938z"/>
</svg>
